<svg xmlns="http://www.w3.org/2000/svg" viewBox="0 0 30.01 30.01"><title>ruler-change</title><g id="Camada_2" data-name="Camada 2"><g id="Camada_1-2" data-name="Camada 1"><path d="M14.81,8.42v3.26l7.86-5.87L14.88,0V4C4.34,3.19,1.72,13,1.72,13l4.66,1.72C8.36,9.51,12.26,8.49,14.81,8.42ZM26.43,23.16c5.68-8.61-1.91-15.5-1.91-15.5l-3.77,3.12c3.77,4.21,2.81,8,1.66,10.21l-2.94-1.53L21,29l9-3.89Zm-18.9-2.3,2.88-1.59L1.34,15.51,0,25,3.51,23.1C8,32.29,18.13,29.67,18.13,29.67l-.76-4.79C11.68,25.78,8.87,23,7.53,20.86Z"/></g></g></svg>