<svg xmlns="http://www.w3.org/2000/svg" viewBox="0 0 36.99 24"><title>ruler-card</title><g id="Camada_2" data-name="Camada 2"><g id="Camada_1-2" data-name="Camada 1"><path d="M34.11,0H2.88A2.83,2.83,0,0,0,0,2.78V21.22A2.83,2.83,0,0,0,2.88,24H34.11A2.83,2.83,0,0,0,37,21.22V2.78A2.83,2.83,0,0,0,34.11,0ZM19.91,14.65H24.7v1.79H19.91ZM9.24,12h-2A2.53,2.53,0,0,1,4.67,9.69H8.31a1.69,1.69,0,0,0,.93.49h2.64a1.72,1.72,0,0,0,.93-.49h3.64A2.53,2.53,0,0,1,13.89,12H9.24Zm.23,2.61v1.79H4.68V14.65Zm-.91-6V6.41a.78.78,0,0,1,.8-.77H11.7a.78.78,0,0,1,.79.77V8.66a.78.78,0,0,1-.79.77H9.36A.78.78,0,0,1,8.56,8.66Zm3.73,6h4.8v1.79h-4.8Zm4.16-5.82h-3.2a2.28,2.28,0,0,0,0-.26V6.52a1.55,1.55,0,0,0,0-.31h3.21ZM7.23,3h6.66a2.53,2.53,0,0,1,2.56,2.35h-3.7a1.73,1.73,0,0,0-.87-.42H9.24a1.73,1.73,0,0,0-.87.42H4.67A2.53,2.53,0,0,1,7.23,3ZM4.67,6.21H7.88a1.55,1.55,0,0,0,0,.31V8.57a2.28,2.28,0,0,0,0,.26H4.67ZM32.28,21H4.67V19.2H32.28Zm0-4.57H27.53V14.65h4.79Z"/></g></g></svg>