<svg xmlns="http://www.w3.org/2000/svg" viewBox="0 0 21.01 30.01"><title>ruler-certified</title><g id="Camada_2" data-name="Camada 2"><g id="Camada_1-2" data-name="Camada 1"><path d="M13.39,22.23a2.09,2.09,0,0,1-.59.09,2.49,2.49,0,0,1-1.65-.64,1,1,0,0,0-1.29,0,2.52,2.52,0,0,1-2.24.6,2.35,2.35,0,0,1-1.33-.83L5.14,30l5.37-4.39,5.36,4.3-1.15-8.51A2.14,2.14,0,0,1,13.39,22.23ZM21,9.24a1,1,0,0,0-.5-.73l-.05,0A2.37,2.37,0,0,1,19.31,5.4a.86.86,0,0,0-.09-.87.9.9,0,0,0-.78-.41H18.3a2.44,2.44,0,0,1-2.43-2.2v0a1,1,0,0,0-.51-.74,1,1,0,0,0-.87,0v.09A2.39,2.39,0,0,1,11.33.46l0-.05A.92.92,0,0,0,10.51,0a.91.91,0,0,0-.78.41L9.68.46a2.39,2.39,0,0,1-3.16.77l0,0a.94.94,0,0,0-1.37.73V2A2.44,2.44,0,0,1,2.67,4.16H2.53a.91.91,0,0,0-.78.41.86.86,0,0,0-.09.87A2.42,2.42,0,0,1,.51,8.55a1,1,0,0,0-.5.74.93.93,0,0,0,.32.82A2.46,2.46,0,0,1,.74,13.4l0,0a.86.86,0,0,0-.1.87,1,1,0,0,0,.69.55,2.49,2.49,0,0,1,1.93,2.7v0a.82.82,0,0,0,.32.82.8.8,0,0,0,.82.19A3.26,3.26,0,0,1,5,18.53,2.41,2.41,0,0,1,7.3,20.17a.84.84,0,0,0,.64.6.87.87,0,0,0,.87-.23,2.48,2.48,0,0,1,3.35,0,.87.87,0,0,0,.87.23.85.85,0,0,0,.64-.6,2.42,2.42,0,0,1,3-1.55.86.86,0,0,0,.82-.19.92.92,0,0,0,.32-.82v0a2.38,2.38,0,0,1,1.93-2.7,1,1,0,0,0,.69-.6.89.89,0,0,0-.09-.87l-.05,0a2.48,2.48,0,0,1,.41-3.3A.93.93,0,0,0,21,9.24Z"/></g></g></svg>