<svg xmlns="http://www.w3.org/2000/svg" viewBox="0 0 24.99 30.01"><title>ruler-security</title><g id="Camada_2" data-name="Camada 2"><g id="Camada_1-2" data-name="Camada 1"><path d="M13,29.92c12.27-4.29,12.08-14.35,12-21.7,0-.76,0-1.49,0-2.19V5.29a.85.85,0,0,0-.85-.85h-.74A12.9,12.9,0,0,1,13.59.74l-.51-.5a.85.85,0,0,0-1.18,0l-.51.5a12.9,12.9,0,0,1-9.75,3.7H.91a.85.85,0,0,0-.85.85V6c0,.7,0,1.43,0,2.19C-.11,15.57-.3,25.64,12,29.92h0A1.55,1.55,0,0,0,13,29.92ZM10.33,18.59a.49.49,0,0,1-.28-.61l1.13-3.2a2.15,2.15,0,0,1-.36-3,2.12,2.12,0,0,1,3-.36,2.16,2.16,0,0,1,.36,3,2,2,0,0,1-.36.36L14.92,18a.48.48,0,0,1-.28.61,5.94,5.94,0,0,1-4.31,0Z"/></g></g></svg>