<svg xmlns="http://www.w3.org/2000/svg" viewBox="0 0 26.01 29">
  <g data-name="Camada 2">
    <path d="M26 3.93V1.45A1.45 1.45 0 0024.56 0H1.46A1.44 1.44 0 000 1.45v2.42a.13.13 0 000 .06V4l2.4 8.54-2.35 6.14a.29.29 0 000 .09.22.22 0 000 .08v8.83a1.42 1.42 0 00.27 1.07A.92.92 0 001 29h23.56A1.45 1.45 0 0026 27.55v-8.7-.08a.29.29 0 000-.09l-2.35-6.14L26 4zm-3.34 8.51v.05a.38.38 0 000 .1v.1a.09.09 0 000 .05l2.15 5.63H1.2l2-5.32h4.65A6.74 6.74 0 006.43 16h-1.6a.49.49 0 000 1h6.26a.49.49 0 000-1H9.44a3.85 3.85 0 017.14 0h-1.64a.49.49 0 100 1h6.25a.49.49 0 000-1h-1.6a6.74 6.74 0 00-1.42-2.9h3a.49.49 0 000-1h-4a6.57 6.57 0 00-3.09-1.35l2.16-2.17a.48.48 0 000-.68l-1.93-1.96A.48.48 0 0014 5.8h-1.95a.48.48 0 00-.34.14L9.78 7.88a.48.48 0 000 .68l2.16 2.17a6.57 6.57 0 00-3.09 1.35H3.27L1.13 4.35h23.76zM13 7.73h-1.72l1-1h1.52l1.45 1.45L13 10.43 11.28 8.7H13a.49.49 0 000-1zm0 3.87a5.78 5.78 0 015.6 4.4h-1a4.81 4.81 0 00-9.18 0h-1A5.78 5.78 0 0113 11.6zM1 1.45A.47.47 0 011.46 1h23.1a.47.47 0 01.48.48v1.9H1zm24 26.1a.48.48 0 01-.48.49H1v-8.7h24z" data-name="Camada 1"/>
  </g>
</svg>
