<svg xmlns="http://www.w3.org/2000/svg" viewBox="0 0 25 29">
  <g data-name="Camada 2">
    <path d="M21.39 14.57a.7.7 0 00.17-.44.68.68 0 00-.22-.49.71.71 0 00-.46-.17h-.12a.67.67 0 00-.37.22l-3.45 3.75L15.47 16a.66.66 0 00-.47-.19.7.7 0 00-.49.2.65.65 0 00-.19.46.67.67 0 00.2.47l2 1.9a.7.7 0 00.47.19.69.69 0 00.48-.2l3.92-4.29zm-3.45 8.3A7 7 0 0025 16a6.78 6.78 0 00-3.56-5.92V.66a.67.67 0 00-.67-.66H.55A.66.66 0 000 .65v23.24a.66.66 0 00.68.65h11.13a.65.65 0 00.67-.65.65.65 0 00-.66-.66H1.35V1.32h18.74v8.22a7.27 7.27 0 00-2.15-.33 7.14 7.14 0 00-5 2 6.66 6.66 0 00.87 10.35v6.79a.67.67 0 00.68.65.7.7 0 00.37-.11l3.08-2 3.06 2a.73.73 0 00.38.11.68.68 0 00.56-.29.77.77 0 00.12-.36v-4.22a.67.67 0 00-.67-.66.67.67 0 00-.68.65v3l-2.4-1.56a.62.62 0 00-.37-.11.64.64 0 00-.37.11l-2.4 1.56V22.3a7.07 7.07 0 002.77.57zm-4-2.93a5.42 5.42 0 010-7.81 5.87 5.87 0 018.08 0 5.4 5.4 0 010 7.81 5.85 5.85 0 01-8.08 0zM7.13 14a.67.67 0 00.68-.65.67.67 0 00-.67-.66H3.72a.67.67 0 00-.62.66v.06a.67.67 0 00.67.6h3.36zm-4-6.83a.68.68 0 00.68.63h13.83a.66.66 0 00.67-.65.66.66 0 00-.66-.66H3.76a.66.66 0 00-.64.66zm7.34 3.73a.66.66 0 00.67-.65.66.66 0 00-.66-.66H3.72a.67.67 0 00-.62.66v.06a.67.67 0 00.67.6h6.68zM3.8 4.65h8.44a.67.67 0 00.68-.65.67.67 0 00-.67-.66H3.81a.67.67 0 00-.68.66.67.67 0 00.67.65z" data-name="Camada 1"/>
  </g>
</svg>
