<svg xmlns="http://www.w3.org/2000/svg" viewBox="0 0 18.01 30">
  <g data-name="Camada 2">
    <path d="M15.72 18.8c-.17-1.43-2.67-1.49-2.9-1.49L11.13 17l-.55-2.17A5.87 5.87 0 0013 13.54l.15-.05H18l-.79-.63a5.74 5.74 0 01-1.54-2.47h.06a.91.91 0 00.91-.91v-2.7A.91.91 0 0016 5.9 6.8 6.8 0 009 0a6.79 6.79 0 00-7 5.9.91.91 0 00-.66.88v2.74a.91.91 0 00.91.91A5.74 5.74 0 01.79 12.9l-.79.63h4.88l.16.05a5.9 5.9 0 002.37 1.32L6.88 17l-1.64.28c-.28 0-2.78.06-3 1.51l-.5 7.23L1.71 30H16.3l-.07-4zm-2.08-6a6 6 0 001.19-2.55h.06a8.32 8.32 0 001.28 2.52zM3.78 7.1a5.28 5.28 0 014.88-4.82.33.33 0 000 .1 5.13 5.13 0 01-1.57 3.15A5 5 0 013.78 7.1zm5.58-4.82a5.28 5.28 0 014.87 4.82 5 5 0 01-3.31-1.57 5.14 5.14 0 01-1.56-3.15zM16 9.52a.21.21 0 01-.21.21h-.29c-.13-.41-.23-.8-.31-1.14V6.78a.22.22 0 01.22-.22h.38a.21.21 0 01.21.22zM9 .7a6.11 6.11 0 016.27 5.17.87.87 0 00-.53.22 5.92 5.92 0 00-11.51 0 .82.82 0 00-.5-.2A6.11 6.11 0 019 .7zm-6.72 9a.22.22 0 01-.22-.22v-2.7a.22.22 0 01.22-.22h.38a.22.22 0 01.22.22v1.71c-.09.36-.19.79-.33 1.24H2.3zm.82.58h.06a5.88 5.88 0 001.2 2.56H1.83a8.42 8.42 0 001.29-2.52zm.63-1.27v-1.2A5.7 5.7 0 007.59 6 6.37 6.37 0 009 3.91 6.5 6.5 0 0010.42 6a5.7 5.7 0 003.84 1.78v1.65c-.25 1.43-1.15 2.81-3.68 3v-.34H9.1v.7h.9v.37a5.78 5.78 0 003.1-.77 5.2 5.2 0 01-4.1 2 5.3 5.3 0 01-5.25-5.34zm3.7 8.6L8.11 15a6.54 6.54 0 00.89.07 6.56 6.56 0 00.9-.07l.66 2.64 1.12.18-.42.26-2.26.03H6.75l-.42-.26zM3 18.88c.08-.64 1.54-.86 2.3-.87l1.26.79h4.92l1.27-.8c.71 0 2.19.23 2.27.86l.5 7.19v.08h-1.85v-1.4H13v4.57H5v-4.56h-.7v1.4H2.48v-.06zm-.51 8h1.85v2.42H2.42zm11.2 2.45v-2.48h1.87v2.45z" data-name="Camada 1"/>
  </g>
</svg>
