<svg xmlns="http://www.w3.org/2000/svg" viewBox="0 0 36.01 36">
  <g data-name="Camada 2">
    <path d="M35.83 4.38a.56.56 0 00-.42-.18h-4.2V0H30v4.2h-1.2V1.8h-1.2v2.4h-1.2V1.8h-1.2v2.4h-4.8a.58.58 0 00-.42.18.6.6 0 00-.18.42v1.8h-.6a1.81 1.81 0 00-1.8 1.8V17l-3.6 2.29V12a.61.61 0 00-.31-.53.62.62 0 00-.62 0L7.8 14.88V4.2h.6a.6.6 0 00.43-.2.59.59 0 00.17-.4v-3a.59.59 0 00-.17-.42A.6.6 0 008.4 0h-6a.56.56 0 00-.4.18.56.56 0 00-.2.42v3A.56.56 0 002 4a.56.56 0 00.42.18H3v13.9L.27 19.9l-.06.1a.42.42 0 00-.09.14.78.78 0 000 .21H0v15a.56.56 0 00.18.42.56.56 0 00.42.23h34.81a.56.56 0 00.42-.18.6.6 0 00.17-.42V4.8a.6.6 0 00-.17-.42zM18.6 8.4a.6.6 0 01.6-.6h.6v7.69l-1.2.76zM3 1.2h4.8V3H3zm3.6 3v11.48l-2.4 1.6V4.2zm6 8.92v6.68h-10zm0 21.68H9v-6.6h3.6zm4.8 0h-3.6v-6.6h3.6zm8.41 0H18.6v-7.2a.59.59 0 00-.17-.42A.58.58 0 0018 27H8.4a.56.56 0 00-.42.18.6.6 0 00-.18.42v7.2H1.2V21h24.61zm0-15H15.26l10.55-6.71zm9 15H27V12a.6.6 0 00-.32-.53.63.63 0 00-.61 0L21 14.73V5.4h13.81zM3 26.4h21a.58.58 0 00.43-.18.59.59 0 00.17-.42v-3a.59.59 0 00-.17-.42.58.58 0 00-.43-.18H3a.56.56 0 00-.42.18.56.56 0 00-.18.42v3a.56.56 0 00.18.42.56.56 0 00.42.18zm18.6-3h1.8v1.8h-1.8zm-3 0h1.8v1.8h-1.8zm-3 0h1.8v1.8h-1.8zm-3 0h1.8v1.8h-1.8zm-3 0h1.8v1.8H9.6zm-3 0h1.8v1.8H6.6zm-3 0h1.8v1.8H3.6zm28.81-12h-3a.58.58 0 00-.43.18.59.59 0 00-.17.42v3a.59.59 0 00.17.42.58.58 0 00.43.18h3a.58.58 0 00.42-.18A.6.6 0 0033 15v-3a.6.6 0 00-.18-.42.58.58 0 00-.41-.18zm-.6 3H30v-1.8h1.8zm.6 2.4h-3a.58.58 0 00-.41.2.59.59 0 00-.17.42v3a.59.59 0 00.17.42.58.58 0 00.43.18h3a.58.58 0 00.42-.18.6.6 0 00.15-.44v-3a.6.6 0 00-.18-.42.58.58 0 00-.41-.18zm-.6 3H30V18h1.8zm.6 2.4h-3a.58.58 0 00-.43.18.59.59 0 00-.17.42v3a.59.59 0 00.17.42.58.58 0 00.43.18h3a.58.58 0 00.42-.18.6.6 0 00.17-.42v-3a.6.6 0 00-.18-.42.58.58 0 00-.41-.18zm-.6 3H30v-1.8h1.8zm.6 2.4h-3a.58.58 0 00-.43.18.59.59 0 00-.17.42v3a.59.59 0 00.17.42.58.58 0 00.43.18h3a.58.58 0 00.42-.18.6.6 0 00.17-.42v-3a.6.6 0 00-.18-.42.58.58 0 00-.41-.18zm-.6 3H30v-1.8h1.8zm-9-20.4h10.8A.58.58 0 0034 10a.6.6 0 00.18-.42V7.2a.6.6 0 00-.18-.42.58.58 0 00-.42-.18H22.8a.58.58 0 00-.42.18.6.6 0 00-.18.42v2.4a.6.6 0 00.18.42.58.58 0 00.42.18zm.6-2.4H33V9h-9.6zM12 30.6h-1.2v1.2H12zm3.6 0h-1.2v1.2h1.2z" data-name="Camada 1"/>
  </g>
</svg>
