<svg xmlns="http://www.w3.org/2000/svg" viewBox="0 0 38 52">
  <g data-name="Camada 2">
    <g data-name="Camada 1">
      <path d="M19 10.32a6.89 6.89 0 00-4.87 11.76 6.86 6.86 0 009.72 0A6.89 6.89 0 0019 10.32zm2.4 9.28a3.38 3.38 0 01-4.78 0 3.38 3.38 0 114.8 0z"/>
      <path d="M32.44 5.57A19 19 0 000 19c0 8.79 4.88 15 10.2 21.8a88.16 88.16 0 017.27 10.29 1.77 1.77 0 003.05 0 88.48 88.48 0 017.28-10.27C33.12 34 38 27.81 38 19a18.94 18.94 0 00-5.56-13.43zm-7.39 33.1C23 41.27 20.91 44 19 46.9c-1.91-2.9-4-5.63-6-8.23C8 32.39 3.51 26.62 3.51 19a15.49 15.49 0 1131 0c-.02 7.62-4.51 13.39-9.46 19.67z"/>
    </g>
  </g>
</svg>
