<svg xmlns="http://www.w3.org/2000/svg" viewBox="0 0 28 28">
  <g data-name="Camada 2">
    <path d="M22 9.52a19.21 19.21 0 01-2.47-2.21 9.72 9.72 0 001.31.09 7 7 0 00.83-.05A2.47 2.47 0 0024 8.71a4.1 4.1 0 004-4.29 4.07 4.07 0 00-1.31-3A6 6 0 0022.54 0h-.14c-5.22.06-6.92 3.75-6.92 5.55l-.4-.13A24.54 24.54 0 007.63 4a8.48 8.48 0 00-5.84 1.84A5.59 5.59 0 000 10c0 2.76 1.94 5.74 5.07 5.74a3.72 3.72 0 003.06-1.37.36.36 0 00-.1-.51.39.39 0 00-.52.09A3 3 0 015.06 15C3 15 .75 13.09.75 10A4.84 4.84 0 012.3 6.38a7.7 7.7 0 015.32-1.69 24 24 0 017.22 1.46l.69.21c.32 2.64 2.18 4.5 4 6.29s3.56 3.56 3.56 6A6.33 6.33 0 0122 22.4a12.9 12.9 0 00.17-2 8.16 8.16 0 00-3.85-6.64 6 6 0 00-5.83-.47 5.46 5.46 0 00-3 6.36c.6 2.58 3 5.61 8 5.61h.11a15.51 15.51 0 002.9-.31 16.54 16.54 0 01-1.06 2.45.36.36 0 00.14.5.31.31 0 00.18.05.37.37 0 00.33-.19 17.13 17.13 0 001.28-3 9.38 9.38 0 004-2.12 6.34 6.34 0 001.95-4.81c.08-3.94-2.81-6.26-5.32-8.31zm.25-3.1c0-.89.61-1.88 1.42-1.88.22 0 .22.33.22.37A1.5 1.5 0 0123.21 6a2.78 2.78 0 01-1 .49zm.26-5.68a5.29 5.29 0 013.66 1.16 3.38 3.38 0 011.08 2.52A3.36 3.36 0 0124 8a1.69 1.69 0 01-1.63-.76 3.64 3.64 0 001.3-.63 2.21 2.21 0 00.91-1.66 1 1 0 00-1-1.12 2 2 0 00-1.58.84 2.91 2.91 0 00-.59 1.75v.21a4.5 4.5 0 01-.66 0 10.5 10.5 0 01-1.91-.2 2.49 2.49 0 01-.35-1.23 4.55 4.55 0 011.24-3.46 4.13 4.13 0 012.62-1zM10.29 19.5a4.69 4.69 0 012.54-5.5 5.19 5.19 0 012.17-.5 5.62 5.62 0 013 .9 7.39 7.39 0 013.49 6 13.17 13.17 0 01-.38 3 5.66 5.66 0 01-3.48 1.13c-4.58.02-6.81-2.7-7.34-5.03z" data-name="Camada 1"/>
  </g>
</svg>
