<svg xmlns="http://www.w3.org/2000/svg" viewBox="0 0 27 19">
  <g data-name="Camada 2">
    <path d="M26.43 11.29h-5.55V4.74a2 2 0 00-.06-.48C20.26 1.83 16 0 11 0h-1C4 .29 0 2.56 0 5.67v6.55a3 3 0 00.08.66C.92 16.54 6.45 19 13.84 19h12.59a.58.58 0 00.57-.58v-6.55a.58.58 0 00-.57-.58zm-12.59 0a24.94 24.94 0 01-6.66-.84V7.17a8.34 8.34 0 003.64 1.28 13.1 13.1 0 002 .15h.66a11.32 11.32 0 006.27-1.8v4.5zm-1-7.57h.48l.25.06a2.42 2.42 0 011.6.94v2.51a15.75 15.75 0 01-1.83.19h-.61a12.25 12.25 0 01-1.64-.1C8.93 7 7.37 6.2 7.19 5.39a.25.25 0 010-.09c0-.6 1.43-1.55 4-1.67h.4a9.43 9.43 0 011.11.07zM10 1.19h.93c3.85 0 8.28 1.36 8.74 3.37a.76.76 0 010 .21c0 .82-1.24 1.74-3.35 2.27V4.83a.65.65 0 000-.24c-.25-1.1-1.65-1.75-3.2-2a9 9 0 00-1.56-.13h-.46C8.13 2.61 6 3.77 6 5.3a.81.81 0 000 .16v4.62c-2.65-.93-4.45-2.35-4.84-4a1.72 1.72 0 010-.39C1.15 3.27 4.8 1.42 10 1.19zm15.85 16.65h-2.68v-2a.57.57 0 10-1.14 0v2h-2.44v-2a.58.58 0 10-1.15 0v2h-2.56v-2a.58.58 0 10-1.15 0v2h-.89c-.57 0-1.12 0-1.66-.05v-2a.58.58 0 00-.58-.58.57.57 0 00-.57.58v1.91a24.13 24.13 0 01-2.56-.39v-2a.58.58 0 10-1.15 0V17a15.93 15.93 0 01-2.56-.91V14a.57.57 0 00-.57-.58.58.58 0 00-.58.58v1.5a5 5 0 01-2.42-2.89 1.72 1.72 0 010-.39V8.41l.12.13a7.4 7.4 0 00.56.56c2.33 2.08 6.68 3.35 12 3.35h12z" data-name="Camada 1"/>
  </g>
</svg>
