<svg xmlns="http://www.w3.org/2000/svg" viewBox="0 0 20 25.04">
  <g data-name="Camada 2">
    <path d="M18 3.93a9.22 9.22 0 01-5.9-2.8l-.49-.5a2.28 2.28 0 00-3.15 0l-.46.5a9.27 9.27 0 01-5.9 2.8A2.25 2.25 0 000 6.19v2.88a18.13 18.13 0 008.9 15.68 2.23 2.23 0 002.2 0A18.13 18.13 0 0020 9.07V6.19a2.26 2.26 0 00-2-2.26zM10.31 23.3a.62.62 0 01-.62 0 16.45 16.45 0 01-8.1-14.23V6.19a.63.63 0 01.56-.63 10.79 10.79 0 006.9-3.27l.49-.5a.59.59 0 01.46-.18.67.67 0 01.44.18l.49.5a10.86 10.86 0 006.89 3.27.63.63 0 01.57.63v2.88h.05a16.39 16.39 0 01-8.13 14.23zM13 9.2V7.8a2.61 2.61 0 00-2.57-2.63h-.79A2.6 2.6 0 007.08 7.8v1.4a2.58 2.58 0 00-1.8 2.48V15a2.55 2.55 0 002.51 2.58h4.42A2.55 2.55 0 0014.72 15v-3.32A2.59 2.59 0 0013 9.2zM8.67 7.8a1 1 0 011-1h.74a1 1 0 011 1v1.27H8.67zm4.46 7.2a.93.93 0 01-.92.95H7.79a.93.93 0 01-.92-.95v-3.32a.93.93 0 01.92-.95h4.42a.93.93 0 01.92.95zM11 12.6a1 1 0 00-.95-.95.93.93 0 00-.92.95 1 1 0 00.46.82l-.31 1.24a.36.36 0 000 .26.24.24 0 00.23.1h1a.31.31 0 00.23-.1.3.3 0 000-.26l-.3-1.24a1 1 0 00.56-.82z" data-name="Camada 1"/>
  </g>
</svg>
