<svg xmlns="http://www.w3.org/2000/svg" viewBox="0 0 24.02 23">
  <g data-name="Camada 2">
    <path d="M7.34 11.5a.67.67 0 00.66-.68V1.35h4v4.06a.67.67 0 00.67.68h4a.67.67 0 00.67-.68V1.35h4v10.83a.67.67 0 001.34 0V.68A.67.67 0 0022 0H7.34a.67.67 0 00-.67.68v10.14a.67.67 0 00.67.68zm6-10.15H16v3.39h-2.65zm10.53 13.43a1.8 1.8 0 00-.46-.64 1.73 1.73 0 00-1.41-.42l-6 .87a2 2 0 00-1.57-2.37 1.75 1.75 0 00-.4 0H8a.73.73 0 00-.35.09l-2.31 1.38v-.84a.67.67 0 00-.67-.67h-4a.67.67 0 00-.67.67v9.47a.67.67 0 00.67.68h4a.67.67 0 00.67-.68v-.67h7.34a.66.66 0 00.27-.06l10-4.44a1.8 1.8 0 00.92-2.37zM4 21.65H1.33v-8.12H4zm18.42-5.74l-9.88 4.38h-7.2v-5l2.85-1.74H14a.67.67 0 01.67.68.66.66 0 01-.56.65H9.34a.68.68 0 000 1.36h5.14l7.7-1.12a.47.47 0 01.36.1.49.49 0 01.15.34.45.45 0 01-.27.35z" data-name="Camada 1"/>
  </g>
</svg>
