<svg xmlns="http://www.w3.org/2000/svg" viewBox="0 0 23 28.94">
  <g data-name="Camada 2">
    <path d="M21.24 28l-2.43-1.93a.51.51 0 00-.31-.07h-1.56a10.44 10.44 0 00-2.3-19.71 2.67 2.67 0 00-.64-.78l.61-1.32a.49.49 0 00-.24-.66l-.45-.21.62-1.32a.5.5 0 00-.25-.66L11.57.05a.5.5 0 00-.67.24l-.63 1.36-.45-.21a.5.5 0 00-.38 0 .45.45 0 00-.28.26L5.4 9.83a.49.49 0 00.24.66l.45.21-.63 1.36a.51.51 0 00.25.66L8.43 14a.54.54 0 00.21 0 .52.52 0 00.46-.29l.63-1.37.45.21a.54.54 0 00.21 0 .47.47 0 00.17 0 .48.48 0 00.28-.26L12 9.94a2.44 2.44 0 00.55.06 2.49 2.49 0 002-1.05A7.8 7.8 0 116.1 21h1.4a.49.49 0 00.5-.49v-2a.5.5 0 00-.5-.5h-7a.5.5 0 00-.5.5v2a.49.49 0 00.5.49H3a10.49 10.49 0 005 5H6.5a.51.51 0 00-.31.11l-2.5 2a.48.48 0 00-.16.55A.51.51 0 004 29h17a.5.5 0 00.5-.5.49.49 0 00-.26-.5zM11.6 1.16l1.82.84-.42.9-1.81-.83zm-3.2 11.7L6.58 12l.42-.9 1.81.9zm1.75-1.4l-3.06-1.4L7 10l-.45-.2 3.31-7.24 3.63 1.66-.4.87A2.6 2.6 0 0012.5 5a2.49 2.49 0 00-2.22 1.37 2.35 2.35 0 00-.17.44v.09a2.43 2.43 0 00-.07.55 2.38 2.38 0 00.1.65c0 .07.05.14.07.2a2.09 2.09 0 00.19.4l.1.3a3.48 3.48 0 00.26.3 1.54 1.54 0 00.19.17l.09.08zm3.7-3.31a1.51 1.51 0 01-2 .72A1.49 1.49 0 0112.5 6a1.43 1.43 0 01.64.15 1.46 1.46 0 01.73.74 1.33 1.33 0 01.13.61 1.37 1.37 0 01-.15.65zM1 20v-1h6v1H1zm3.14 1h.76A8.82 8.82 0 1015 8a2.84 2.84 0 000-.49v-.17A9.47 9.47 0 114.14 21zm1.29 7l1.25-1h11.65l1.25 1zM12.5 6.85a.63.63 0 10.63.63.63.63 0 00-.63-.63zm0 1a.38.38 0 01-.37-.37.37.37 0 11.37.37z" data-name="Camada 1"/>
  </g>
</svg>
