<svg xmlns="http://www.w3.org/2000/svg" viewBox="0 0 25.99 29.01">
  <g data-name="Camada 2">
    <path d="M11.39 16a17.43 17.43 0 00.2-7v-.19a.08.08 0 000-.05.16.16 0 00-.05-.11c-.89-5.2-3.45-9-5.9-8.64a2.38 2.38 0 00-1.17.55A2.51 2.51 0 003.21.39C2 .58 1 1.79.45 3.8a17.44 17.44 0 00-.2 6.94c.8 5.14 3.23 9 5.64 9a1.84 1.84 0 00.33 0 2.26 2.26 0 001.14-.53 2.38 2.38 0 00.93.19h.34c1.24-.22 2.22-1.4 2.76-3.4zm-5.26 3.15a1.88 1.88 0 01-.9-.12.15.15 0 00.13-.15.15.15 0 00-.15-.15.16.16 0 00-.16.15.13.13 0 000 .09 3.28 3.28 0 01-1-.7.11.11 0 000-.06.15.15 0 00-.05-.15h-.06c-.14-.16-.29-.32-.43-.51a.16.16 0 00-.15-.16 10.68 10.68 0 01-.66-1.06.16.16 0 00.16-.15.15.15 0 00-.14-.18.14.14 0 00-.13.11A11.7 11.7 0 012 15h.06a.16.16 0 00.16-.16.16.16 0 00-.16-.15.15.15 0 00-.06.11c-.15-.38-.29-.77-.42-1.18a.14.14 0 00.09-.12.16.16 0 00-.16-.16c-.05-.16-.08-.34-.12-.5a.15.15 0 00.14.13.16.16 0 00.16-.16.16.16 0 00-.16-.15.15.15 0 00-.15.15c-.12-.43-.24-.86-.33-1.31a.1.1 0 000-.08c0-.15 0-.31-.08-.46A.16.16 0 001 10.8a.16.16 0 00-.16-.15v-.39H.9a.16.16 0 00.1-.13.15.15 0 00-.14-.13.17.17 0 00-.1 0c0-.18 0-.36-.05-.54a.15.15 0 00.15.14.16.16 0 00.14-.15.16.16 0 00-.14-.15.16.16 0 00-.15.14 17.4 17.4 0 010-4 .15.15 0 00.13.09.16.16 0 00.16-.12.16.16 0 00-.16-.15.18.18 0 00-.1 0c0-.14 0-.28.07-.42a.16.16 0 00.19-.1.14.14 0 00-.12-.14c0-.17.07-.32.11-.48S1 4 1 4a7.18 7.18 0 01.39-1.11h.06a.16.16 0 00.16-.15.15.15 0 00-.1-.13A3.4 3.4 0 012.6 1.29a.19.19 0 000 .08.16.16 0 00.15.16.16.16 0 00.16-.16.16.16 0 00-.16-.15H2.7A1.63 1.63 0 013.3 1h.24A1.76 1.76 0 014 1a4.86 4.86 0 00-.57.89.19.19 0 00-.08 0 .16.16 0 00-.15.16.15.15 0 00.1.13 8.7 8.7 0 00-.42 1.19.15.15 0 00-.15-.13.15.15 0 00-.15.15.16.16 0 00.15.16.17.17 0 00.12 0c0 .13-.07.27-.11.42a.16.16 0 00-.15.16.14.14 0 00.1.13l-.09.5a18.27 18.27 0 000 5.27.18.18 0 000 .1.15.15 0 00.07.12V10.66a.15.15 0 00-.14.14.16.16 0 00.15.16c0 .15.05.3.08.45a.13.13 0 00-.12-.07.16.16 0 00-.15.16.15.15 0 00.15.15.16.16 0 00.15-.13c.13.64.29 1.26.47 1.85a.15.15 0 00-.15.15.15.15 0 00.15.15.24.24 0 00.09 0c.13.39.27.78.42 1.14v.08a.16.16 0 00.13.15 11.39 11.39 0 00.53 1.11.18.18 0 000 .09.15.15 0 00.16.15 11.14 11.14 0 00.69 1.08.12.12 0 00-.08 0 .16.16 0 00-.16.16.16.16 0 00.16.15.15.15 0 00.15-.15.14.14 0 000-.06 5.48 5.48 0 00.48.58.16.16 0 00-.15.15.15.15 0 00.16.15.15.15 0 00.16-.23 4.82 4.82 0 00.8.67 1.81 1.81 0 01-.67.26zm1.12-.67c-1.72-1-3.39-4.29-4-8.2s0-7.55 1.32-9c1.72 1 3.39 4.28 4 8.2a16.58 16.58 0 01-.18 6.69 5.36 5.36 0 01-1.14 2.31zm1.18.3a.17.17 0 00-.12-.05.15.15 0 00-.11.06 2 2 0 01-.35-.06c.11-.14.22-.3.33-.47a.14.14 0 00.13.1.16.16 0 00.16-.15.15.15 0 00-.16-.15 7 7 0 00.51-1.16.15.15 0 00.13.11.16.16 0 00.16-.16.16.16 0 00-.16-.15h-.08a4.17 4.17 0 00.13-.38.14.14 0 00.11-.13.16.16 0 00-.11-.11 14.33 14.33 0 00.4-2.58.16.16 0 00.15.15.16.16 0 00.16-.15.16.16 0 00-.16-.16.16.16 0 00-.15.15v-.6a.13.13 0 00.12.09.16.16 0 00.16-.16.16.16 0 00-.16-.15.13.13 0 00-.12.09v-.54a.13.13 0 00.12.08.15.15 0 100-.3.15.15 0 00-.13.09 21.13 21.13 0 00-.24-2.7c0-.2-.07-.39-.1-.58s0 0 0-.06L9 8.25a.16.16 0 00.12-.14.15.15 0 00-.19-.11c0-.18-.08-.35-.13-.52a.15.15 0 00.15.14.16.16 0 00.16-.15.16.16 0 00-.16-.16.15.15 0 00-.15.15c-.11-.43-.23-.84-.36-1.24a.12.12 0 00.05-.1.15.15 0 00-.15-.12 14.84 14.84 0 00-.7-1.75h.05a.16.16 0 00.16-.15.16.16 0 00-.16-.16c-.07 0-.11 0-.14.11-.1-.22-.21-.42-.33-.63a.15.15 0 00-.07-.12 9.93 9.93 0 00-.71-1.1.15.15 0 00.15-.15.16.16 0 00-.15-.16.15.15 0 00-.14.11 4.6 4.6 0 00-.46-.51.15.15 0 00.16-.12.15.15 0 00-.15-.15.15.15 0 00-.15.14 3.91 3.91 0 00-.64-.49H5.21a.15.15 0 00.14-.15 1.14 1.14 0 01.36-.1.12.12 0 000 .08.16.16 0 00.16.15A.15.15 0 006 .7a.18.18 0 000-.1 1.61 1.61 0 01.37 0v.06a.16.16 0 00.16.15.14.14 0 00.06-.08 2.84 2.84 0 011 .59v.05a.15.15 0 00.16.15h.06c.14.15.29.3.43.48a.14.14 0 000 .07.15.15 0 00.15.15A10.84 10.84 0 019.43 4a.14.14 0 000 .09.15.15 0 00.15.15q.25.56.48 1.17a.14.14 0 00.06.12l.15.43h-.06a.16.16 0 00-.15.16.15.15 0 00.15.15.16.16 0 00.13-.07c.12.4.24.81.35 1.24s0 .05 0 .08.07.3.1.45a.16.16 0 00-.13.15.15.15 0 00.15.15c0 .14.06.29.08.44a.17.17 0 00-.12-.06.15.15 0 00-.15.15.16.16 0 00.15.16.14.14 0 00.14-.12l.06.29a17.33 17.33 0 01-.09 6.3.16.16 0 00-.11-.05.16.16 0 00-.15.16.15.15 0 00.15.15h.05v.16l-.09.26a.14.14 0 00-.08.12v.07a8 8 0 01-.49 1.13.16.16 0 00-.15.16v.07a3.33 3.33 0 01-.39.5.13.13 0 00-.11-.05.15.15 0 00-.15.15.14.14 0 000 .11 1.83 1.83 0 01-.92.46zm16.92-3.88a2.47 2.47 0 00-1.1-.64 2.29 2.29 0 00-.56-1.12 2.78 2.78 0 00-2.12-.78c-2.26 0-5.41 1.6-8.21 4.18a17.54 17.54 0 00-4.2 5.56c-.84 1.92-.83 3.47 0 4.37a2.38 2.38 0 001.1.64 2.29 2.29 0 00.56 1.12A2.77 2.77 0 0013 29c2.27 0 5.42-1.6 8.22-4.18 4.02-3.73 5.85-8.09 4.13-9.92zM10.2 26.45zm.44-2.17a7 7 0 00-.35 1.23.16.16 0 00-.27.11.16.16 0 00.16.15.11.11 0 00.07 0v.41a.16.16 0 00-.16.15.19.19 0 000 .08 1.45 1.45 0 01-.42-.3c-.58-.61-.63-1.7-.18-3a.13.13 0 00.11 0 .16.16 0 00.15-.16.15.15 0 00-.15-.15c.05-.15.11-.29.17-.44s.22-.46.34-.7a.14.14 0 00.13.09.15.15 0 00.15-.15.16.16 0 00-.15-.16 11.81 11.81 0 01.64-1.05.15.15 0 00.14-.15c.12-.17.24-.35.37-.52a.21.21 0 00.11 0 .16.16 0 00.16-.15.14.14 0 00-.08-.12l.4-.51A.15.15 0 0012 19a.16.16 0 00.16-.16.15.15 0 00-.13-.14q.21-.25.45-.51a.14.14 0 00.14.13.15.15 0 00.16-.15.15.15 0 00-.14-.15l.5-.52a.15.15 0 00.15.15.16.16 0 00.16-.15.15.15 0 00-.15-.15c.15-.14.28-.28.43-.41l.06-.05A.13.13 0 0014 17a.16.16 0 00.15-.16.15.15 0 00-.07-.12l.48-.42h.06a.15.15 0 00.15-.15A19.42 19.42 0 0116.35 15a.13.13 0 00.09 0 .15.15 0 00.15-.16c.33-.21.65-.4 1-.58a.15.15 0 00.13.09.16.16 0 00.16-.15v-.08c.34-.18.69-.34 1-.48a.18.18 0 00.09 0 .15.15 0 00.15-.14l.39-.13a.13.13 0 00-.07.12.15.15 0 00.15.15.16.16 0 00.16-.15.15.15 0 00-.15-.15 6.41 6.41 0 012-.39 2.27 2.27 0 011.55.49v.05a.15.15 0 00.15.15 1.75 1.75 0 01.29.52h-.19a.15.15 0 00-.28 0h-.34a.14.14 0 00-.14-.12.15.15 0 00-.16.15l-.34.05a.14.14 0 000-.06A.15.15 0 0022 14a.15.15 0 00-.16.15.16.16 0 00.05.11 9.47 9.47 0 00-1.62.52.15.15 0 00-.14-.11.15.15 0 00-.15.15.15.15 0 000 .07c-.33.15-.67.31-1 .49a.21.21 0 00-.11 0 .16.16 0 00-.15.16c-.32.18-.65.38-1 .59a.14.14 0 00-.13-.09.15.15 0 00-.16.15.14.14 0 00.05.1q-.81.54-1.62 1.2a.15.15 0 00-.13-.11.16.16 0 00-.16.16.13.13 0 00.09.12l-.49.42h-.06a.15.15 0 00-.16.15v.05l-.46.44a.15.15 0 00-.13.12c-.2.19-.38.39-.57.58-.19.21-.38.41-.56.62a.18.18 0 00-.08.09l-.47.58h-.06a.15.15 0 00-.15.16.11.11 0 000 .08c-.13.17-.25.35-.37.52a.15.15 0 00-.13-.09.16.16 0 00-.16.16.15.15 0 00.14.14c-.25.37-.48.73-.68 1.08a.16.16 0 00-.08.12c-.12.21-.23.43-.33.63a.14.14 0 00-.14-.12.15.15 0 00-.16.15.16.16 0 00.16.15.09.09 0 00.07 0l-.2.48v.07zm.17 2.34c-.14-2 1.66-5.16 4.62-7.88 2.65-2.45 5.72-4 7.8-4a3.79 3.79 0 01.49 0c.14 2-1.66 5.17-4.62 7.88-2.66 2.45-5.72 4-7.8 4a3.6 3.6 0 01-.49 0zm14.32-8.56a.15.15 0 00-.15.15.14.14 0 00.1.13 8.55 8.55 0 01-.47 1.11.13.13 0 00-.1 0 .14.14 0 00-.15.15.14.14 0 00.12.14 11.65 11.65 0 01-.62 1.06.16.16 0 00-.13.15l-.37.53a.15.15 0 00-.11 0 .16.16 0 00-.16.15.15.15 0 00.09.13l-.41.52a.15.15 0 00-.14-.13.16.16 0 00-.16.15.16.16 0 00.16.16c-.15.19-.32.38-.49.57a.16.16 0 00-.15-.16.16.16 0 00-.16.16.16.16 0 00.16.15.09.09 0 00.06 0 7.27 7.27 0 01-.54.57.15.15 0 00-.15-.15.16.16 0 00-.16.15.15.15 0 00.16.15l-.52.5a.13.13 0 00-.14-.12.15.15 0 00-.15.15.15.15 0 00.11.14c-.16.14-.31.29-.48.42a.15.15 0 00-.1 0A.16.16 0 0020 25l-.6.49c-.33.25-.66.5-1 .72a.17.17 0 00-.14-.1.15.15 0 00-.15.15.17.17 0 00.05.12c-.34.22-.68.42-1 .61a.08.08 0 000-.05.16.16 0 00-.15-.16.16.16 0 00-.16.16.15.15 0 00.13.14 11.63 11.63 0 01-1.06.53.15.15 0 00-.15-.15.16.16 0 00-.16.15.11.11 0 00.06.11 9.32 9.32 0 01-1.63.53.13.13 0 00-.14-.12.15.15 0 00-.15.15h-.35a.15.15 0 000-.07.16.16 0 00-.16-.15.15.15 0 00-.15.15.13.13 0 000 .09H12.65a.13.13 0 000-.09.16.16 0 00-.16-.15.15.15 0 00-.15.15.13.13 0 000 .08l-.35-.07a.16.16 0 00-.16-.15.12.12 0 00-.12.08 1.76 1.76 0 01-.64-.41 1.68 1.68 0 01-.35-.61 2.22 2.22 0 00.37 0 6.18 6.18 0 001.3-.15h.06a.15.15 0 00.12-.07l.41-.1a.15.15 0 00.15.15.16.16 0 00.16-.15.16.16 0 00-.05-.11 11.83 11.83 0 001.11-.42.17.17 0 00.13-.08A16.24 16.24 0 0017 25.07h.08a.15.15 0 00.15-.15c.33-.22.65-.46 1-.72a.25.25 0 000 .07.15.15 0 00.15.16.16.16 0 00.16-.16.16.16 0 00-.16-.15l.54-.44a.14.14 0 00.12.06.16.16 0 00.16-.15.12.12 0 000-.1l.48-.43a.16.16 0 00.16-.15l.54-.52a.13.13 0 00.06-.07c.21-.2.4-.41.59-.62.19-.21.38-.42.55-.63a.14.14 0 00.1-.11c.15-.19.3-.37.44-.56a.16.16 0 00.15-.16.15.15 0 000-.07l.37-.53a.14.14 0 00.13.08.15.15 0 00.15-.15.15.15 0 00-.13-.15c.24-.36.45-.71.64-1.06a.15.15 0 00.11-.14v-.05a11.29 11.29 0 00.38-1.17.15.15 0 00.12-.14.12.12 0 000-.1 5.45 5.45 0 00.33-1.85 1.65 1.65 0 01.57.39 1.71 1.71 0 01.11.14.09.09 0 000 .07.15.15 0 00.15.15 3.24 3.24 0 010 2.41zm-2.48-4.41a.15.15 0 00.15-.15.16.16 0 00-.15-.16.16.16 0 00-.16.16.16.16 0 00.16.15zm-.62 0a.15.15 0 00.15-.15.16.16 0 00-.15-.16.16.16 0 00-.16.16.16.16 0 00.13.15zm-.62 0a.15.15 0 00.15-.15.16.16 0 00-.15-.16.16.16 0 00-.16.16.16.16 0 00.16.15zm-.63 0a.16.16 0 00.16-.15.16.16 0 00-.16-.16.16.16 0 00-.15.16.15.15 0 00.15.15zm-.62 0a.16.16 0 00.16-.15.16.16 0 00-.16-.16.16.16 0 00-.15.16.15.15 0 00.15.15zm1.25.67a.15.15 0 00.15-.15.15.15 0 00-.15-.15.15.15 0 00-.16.15.16.16 0 00.16.15zm-.63 0a.16.16 0 00.16-.15.15.15 0 00-.16-.15.15.15 0 00-.15.15.15.15 0 00.15.15zm-.62 0a.16.16 0 00.16-.15.15.15 0 00-.16-.15.15.15 0 00-.15.15.15.15 0 00.15.15zm-.62 0a.16.16 0 00.16-.15.15.15 0 00-.16-.15.15.15 0 00-.15.15.15.15 0 00.15.15zm-.62 0a.16.16 0 00.16-.15.15.15 0 00-.16-.15.15.15 0 00-.15.15.15.15 0 00.15.15zm-.62 0a.16.16 0 00.16-.15.16.16 0 00-.32 0 .16.16 0 00.16.15zm1.24.68a.16.16 0 00.16-.16.16.16 0 00-.16-.15.15.15 0 00-.15.15.16.16 0 00.15.16zm-.62 0a.16.16 0 00.16-.16.16.16 0 00-.16-.15.15.15 0 00-.15.15.16.16 0 00.15.16zm-.62 0a.16.16 0 00.16-.16.16.16 0 00-.32 0 .16.16 0 00.16.16zm-.62 0a.15.15 0 00.15-.16.15.15 0 00-.15-.15.16.16 0 00-.16.15.16.16 0 00.16.16zm-.62 0a.16.16 0 00.15-.16.15.15 0 00-.15-.15.16.16 0 00-.16.15.16.16 0 00.16.16zm7.45.67a.15.15 0 00.15-.15.15.15 0 00-.15-.16.16.16 0 00-.16.16.16.16 0 00.16.15zm-6.21-.31a.16.16 0 00-.16.16.16.16 0 00.32 0 .16.16 0 00-.16-.16zm-.62.31a.15.15 0 00.15-.15.15.15 0 00-.15-.16.16.16 0 00-.16.16.16.16 0 00.16.15zm-.62-.31a.16.16 0 00-.16.16.16.16 0 00.16.15.15.15 0 00.15-.15.16.16 0 00-.15-.16zm-.62.31a.15.15 0 00.15-.15.16.16 0 00-.15-.16.16.16 0 00-.16.16.16.16 0 00.16.15zm-.62 0a.15.15 0 00.15-.15.16.16 0 00-.15-.16.16.16 0 00-.16.16.16.16 0 00.16.15zm9.31.67a.16.16 0 00.16-.15.16.16 0 00-.32 0 .16.16 0 00.16.15zm-.62-.3a.15.15 0 00-.16.15.16.16 0 00.32 0 .15.15 0 00-.16-.19zm-7.45.3a.15.15 0 00.15-.15.15.15 0 00-.15-.15.15.15 0 00-.16.15.16.16 0 00.16.15zm-.62 0a.15.15 0 00.15-.15.15.15 0 00-.15-.15.15.15 0 00-.16.15.16.16 0 00.16.15zm-.62 0a.15.15 0 00.15-.15.15.15 0 00-.15-.15.15.15 0 00-.16.15.16.16 0 00.16.15zm-.62 0a.15.15 0 00.15-.15.15.15 0 00-.15-.19.15.15 0 00-.16.15.16.16 0 00.16.19zm9.93.37a.16.16 0 00-.16.15.16.16 0 00.32 0 .16.16 0 00-.16-.15zm-.62 0a.16.16 0 00-.16.15.16.16 0 00.32 0 .16.16 0 00-.16-.15zm-8.07.29a.16.16 0 00.15-.16.15.15 0 00-.15-.15.16.16 0 00-.16.15.16.16 0 00.16.16zm-.62 0a.16.16 0 00.15-.16.15.15 0 00-.15-.15.16.16 0 00-.16.15.16.16 0 00.16.16zm-.62 0a.16.16 0 00.15-.16.15.15 0 00-.15-.15.16.16 0 00-.16.15.16.16 0 00.16.16zm-.63 0a.16.16 0 00.16-.16.16.16 0 00-.16-.15.15.15 0 00-.15.15.16.16 0 00.15.16zm-.62.67a.16.16 0 00.16-.15.16.16 0 00-.16-.16.16.16 0 00-.15.16.15.15 0 00.2.17zm11.18-.31a.15.15 0 00-.15.16.15.15 0 00.15.15.16.16 0 00.16-.15.16.16 0 00-.16-.14zm-.62.31a.15.15 0 00.15-.15.15.15 0 00-.15-.16.16.16 0 00-.16.16.16.16 0 00.16.17zm-.62 0a.15.15 0 00.15-.15.16.16 0 00-.15-.16.16.16 0 00-.16.16.16.16 0 00.16.17zm-8.69-.31a.16.16 0 00-.16.16.16.16 0 00.16.15.15.15 0 00.15-.15.16.16 0 00-.15-.14zm-.63 0a.16.16 0 00-.15.16.15.15 0 00.15.15.16.16 0 00.16-.15.16.16 0 00-.16-.14zm-1.24 1a.15.15 0 100-.3.15.15 0 000 .3zm.62 0a.15.15 0 100-.3.15.15 0 000 .3zm10.56 0a.15.15 0 000-.3.15.15 0 100 .3zm-.62 0a.15.15 0 000-.3.15.15 0 100 .3zm-9.32-.3a.15.15 0 000 .3.15.15 0 100-.3zm-1.24 1a.16.16 0 00.16-.16.16.16 0 00-.16-.15.15.15 0 00-.15.15.16.16 0 00.15.1zM14 19a.16.16 0 00.16-.16.16.16 0 00-.16-.15.15.15 0 00-.15.15.16.16 0 00.15.16zm10.56-.31a.16.16 0 00-.16.15.16.16 0 00.32 0 .16.16 0 00-.21-.11zm-.62 0a.16.16 0 00-.16.15.16.16 0 00.16.16.16.16 0 00.15-.16.15.15 0 00-.2-.11zm-.62 0a.16.16 0 00-.16.15.16.16 0 00.16.16.16.16 0 00.15-.16.15.15 0 00-.2-.11zm-9.94 1a.16.16 0 00.16-.15.16.16 0 00-.16-.16.16.16 0 00-.15.16.15.15 0 00.1.17zm10.56-.31a.16.16 0 00-.16.16.16.16 0 00.16.15.15.15 0 00.15-.15.16.16 0 00-.2-.14zm-.62 0a.16.16 0 00-.16.16.16.16 0 00.16.15.15.15 0 00.15-.15.16.16 0 00-.2-.14zm.62.68a.16.16 0 00-.16.15.15.15 0 00.16.15.15.15 0 00.15-.15.15.15 0 00-.2-.13zm-.62 0a.16.16 0 00-.16.15.15.15 0 00.16.15.15.15 0 00.15-.15.15.15 0 00-.2-.13zm-.62.3a.15.15 0 00.15-.15.15.15 0 00-.15-.15.16.16 0 00-.16.15.15.15 0 00.11.17zm.62.37a.16.16 0 00-.16.16.16.16 0 00.16.15.15.15 0 00.15-.15.16.16 0 00-.2-.14zm-.62 0a.16.16 0 00-.16.16.16.16 0 00.16.15.15.15 0 00.15-.15.16.16 0 00-.2-.14zm-.62 0a.16.16 0 00-.16.16.16.16 0 00.16.15.15.15 0 00.15-.15.16.16 0 00-.23-.14zm.62.67a.16.16 0 00-.16.16.16.16 0 00.16.15.15.15 0 00.15-.15.16.16 0 00-.2-.14zm-.62 0a.16.16 0 00-.16.16.16.16 0 00.16.15.15.15 0 00.15-.15.16.16 0 00-.23-.14zm-.62 0a.16.16 0 00-.16.16.16.16 0 00.16.15.15.15 0 00.15-.15.16.16 0 00-.2-.14zm.62.68a.16.16 0 00-.16.15.16.16 0 00.16.16.16.16 0 00.15-.16.15.15 0 00-.23-.13zm-.62.31a.16.16 0 00.15-.16.15.15 0 00-.15-.15.16.16 0 00-.16.15.16.16 0 00.11.18zm-.63-.31a.15.15 0 00-.15.15.16.16 0 00.15.16.16.16 0 00.16-.16.16.16 0 00-.21-.13zm.63.67a.16.16 0 00-.16.16.16.16 0 00.16.15.15.15 0 00.15-.15.16.16 0 00-.2-.14zm-.63 0a.15.15 0 00-.15.15.16.16 0 00.15.16.16.16 0 00.16-.16.16.16 0 00-.21-.13zm-.62 0a.16.16 0 00-.15.16.15.15 0 00.15.15.16.16 0 00.16-.15.16.16 0 00-.21-.14zm.62.68a.15.15 0 00-.15.15.15.15 0 00.15.15.16.16 0 00.16-.15.15.15 0 00-.21-.13zm-.62.3a.16.16 0 00.16-.15.15.15 0 00-.16-.15.15.15 0 00-.15.15.15.15 0 00.1.17zm-.62 0a.16.16 0 00.16-.15.15.15 0 00-.16-.15.15.15 0 00-.15.15.15.15 0 00.1.17zm.62.37a.15.15 0 00-.15.15.16.16 0 00.15.16.16.16 0 00.16-.16.16.16 0 00-.21-.13zm-.62 0a.15.15 0 00-.15.15.16.16 0 00.15.16.16.16 0 00.16-.16.16.16 0 00-.21-.13zm-.62 0a.15.15 0 00-.15.15.16.16 0 00.15.16.16.16 0 00.16-.16.16.16 0 00-.21-.13zm.62.67a.16.16 0 00-.15.16.15.15 0 00.15.15.16.16 0 00.11-.08.16.16 0 00-.16-.21zm-.62 0a.16.16 0 00-.15.16.15.15 0 00.15.15.16.16 0 00.16-.15.16.16 0 00-.21-.14zm-.62 0a.16.16 0 00-.16.16.16.16 0 00.32 0 .16.16 0 00-.21-.14zm-.62 0a.16.16 0 00-.16.16.16.16 0 00.16.15.15.15 0 00.15-.15.16.16 0 00-.2-.14zm1.24.68a.15.15 0 00-.15.15.15.15 0 00.15.15.16.16 0 00.16-.15.15.15 0 00-.21-.13zm-.62 0a.15.15 0 00-.16.15.16.16 0 00.32 0 .15.15 0 00-.21-.13zm-.62 0a.15.15 0 00-.16.15.16.16 0 00.16.15.15.15 0 000-.3zm-.62 0a.15.15 0 00-.16.15.16.16 0 00.16.15.15.15 0 00.15-.15.15.15 0 00-.2-.13zm-.62 0a.15.15 0 00-.16.15.16.16 0 00.16.15.15.15 0 00.15-.15.15.15 0 00-.2-.13zm1.24.67a.16.16 0 00-.16.15.16.16 0 00.16.16.15.15 0 00.15-.16.15.15 0 00-.2-.13zm-.62 0a.16.16 0 00-.16.15.16.16 0 00.16.16.16.16 0 00.15-.16.15.15 0 00-.2-.13zm-.62 0a.16.16 0 00-.16.15.16.16 0 00.16.16.16.16 0 00.15-.16.15.15 0 00-.2-.13zm-.62 0a.16.16 0 00-.16.15.16.16 0 00.16.16.16.16 0 00.15-.16.15.15 0 00-.2-.13zm-.62.31a.16.16 0 00.15-.16.15.15 0 00-.15-.15.16.16 0 00-.16.15.16.16 0 00.11.18zm-1.25.69a.16.16 0 00.16-.15.16.16 0 00-.16-.16.16.16 0 00-.15.16.15.15 0 00.15.15zm2.49-.31a.16.16 0 00-.16.16.16.16 0 00.16.15.15.15 0 00.15-.15.16.16 0 00-.2-.16zm-.62 0a.16.16 0 00-.16.16.16.16 0 00.16.15A.15.15 0 0016 27a.16.16 0 00-.18-.19zm-.62.31a.15.15 0 00.15-.15.16.16 0 00-.15-.16.16.16 0 00-.25.19.16.16 0 00.2.12zm-.63 0a.16.16 0 00.16-.15.16.16 0 00-.16-.16.16.16 0 00-.15.16.15.15 0 00.1.15zm-1.24.37a.15.15 0 00-.15.15.15.15 0 00.15.15.16.16 0 00.16-.15.15.15 0 00-.21-.15zm.62 0a.15.15 0 00-.15.15.15.15 0 00.15.15.16.16 0 00.16-.15.15.15 0 00-.16-.15zm1.25 0a.15.15 0 00-.16.15.16.16 0 00.16.15.15.15 0 00.15-.15.15.15 0 00-.2-.15zm-.63 0a.15.15 0 00-.15.15.15.15 0 00.15.15.16.16 0 00.16-.15.15.15 0 00-.21-.15zM7.69 1.89a.16.16 0 00-.15.16.15.15 0 00.15.15.16.16 0 00.16-.15.16.16 0 00-.16-.16zm-.62 0a.16.16 0 00-.15.16.15.15 0 00.15.15.16.16 0 00.16-.15.16.16 0 00-.16-.16zm-4.35.31a.16.16 0 00.16-.15.16.16 0 00-.16-.16.16.16 0 00-.15.16.15.15 0 00.15.15zm-.62-.31a.16.16 0 00-.1.16.15.15 0 00.15.15.16.16 0 00.16-.15.16.16 0 00-.21-.16zm6.21.68a.15.15 0 00-.15.15.15.15 0 00.15.15.16.16 0 00.16-.15.15.15 0 00-.16-.15zm-.62 0a.15.15 0 00-.15.15.15.15 0 00.15.15.16.16 0 00.16-.15.15.15 0 00-.16-.15zm-.62 0a.15.15 0 00-.15.15.15.15 0 00.15.15.16.16 0 00.16-.15.15.15 0 00-.16-.15zm-4.35.3a.16.16 0 00.16-.15.15.15 0 00-.16-.15.15.15 0 00-.15.15.15.15 0 00.15.15zm-.62-.3a.15.15 0 00-.1.15.15.15 0 00.15.15.16.16 0 00.16-.15.15.15 0 00-.21-.15zm6.83.67a.15.15 0 00-.15.15.16.16 0 00.15.16.16.16 0 00.16-.16.16.16 0 00-.16-.15zm-.62 0a.15.15 0 00-.15.15.16.16 0 00.15.16.16.16 0 00.16-.16.16.16 0 00-.16-.15zm-.62 0a.15.15 0 00-.15.15.16.16 0 00.15.16.16.16 0 00.16-.16.16.16 0 00-.16-.15zm-5.59 0a.15.15 0 00-.1.15.16.16 0 00.15.16.16.16 0 00.16-.16.16.16 0 00-.21-.15zm-.62 0a.15.15 0 00-.15.15.16.16 0 00.15.16.16.16 0 00.16-.16.16.16 0 00-.16-.15zm7.45.67a.16.16 0 00-.15.16.15.15 0 00.15.15.16.16 0 00.16-.15.16.16 0 00-.16-.16zm-.62 0a.16.16 0 00-.15.16.15.15 0 00.15.15.16.16 0 00.16-.15.16.16 0 00-.16-.16zm-6.21 0a.16.16 0 00-.1.16.15.15 0 00.15.15.16.16 0 00.16-.15.16.16 0 00-.21-.16zm-.62 0a.16.16 0 00-.15.16.15.15 0 00.15.15.16.16 0 00.16-.15.16.16 0 00-.16-.16zm8.07 1a.16.16 0 00.16-.15.15.15 0 00-.16-.15.15.15 0 00-.15.15.15.15 0 00.15.13zm-.62-.3a.15.15 0 00-.15.15.15.15 0 00.15.15.16.16 0 00.16-.15.15.15 0 00-.16-.17zm-.62 0a.15.15 0 00-.15.15.15.15 0 00.15.15.16.16 0 00.16-.15.15.15 0 00-.16-.17zm-6.21 0a.15.15 0 00-.1.13.15.15 0 00.15.15.16.16 0 00.16-.15.15.15 0 00-.21-.15zm-.62 0a.15.15 0 00-.15.15.15.15 0 00.15.15.16.16 0 00.16-.15.15.15 0 00-.16-.17zm8.07 1a.16.16 0 00.16-.16.16.16 0 00-.16-.15.15.15 0 00-.15.15.16.16 0 00.15.12zm-.62-.31a.15.15 0 00-.15.15.16.16 0 00.15.16.16.16 0 00.16-.16.16.16 0 00-.16-.19zm-.62 0a.15.15 0 00-.15.15.16.16 0 00.15.16.16.16 0 00.16-.16.16.16 0 00-.16-.19zm-6.21 0a.15.15 0 00-.1.11.16.16 0 00.15.16.16.16 0 00.16-.16.16.16 0 00-.21-.15zm-.62 0a.15.15 0 00-.15.15.16.16 0 00.15.16.16.16 0 00.16-.16.16.16 0 00-.16-.19zm8.07 1a.16.16 0 00.16-.15.16.16 0 00-.16-.16.16.16 0 00-.15.16.15.15 0 00.15.09zm-.62-.31a.16.16 0 00-.15.16.15.15 0 00.15.15.16.16 0 00.16-.15.16.16 0 00-.16-.22zm-6.83 0a.16.16 0 00-.1.1.15.15 0 00.15.15.16.16 0 00.16-.15.16.16 0 00-.21-.16zm-.62 0a.16.16 0 00-.15.16.15.15 0 00.15.15.16.16 0 00.16-.15.16.16 0 00-.16-.22zm-.62 0a.16.16 0 00-.16.16.16.16 0 00.32 0 .16.16 0 00-.16-.22zm9.32 1a.15.15 0 00.15-.15.15.15 0 00-.15-.15.16.16 0 00-.16.15.15.15 0 00.16.07zm-.63 0a.15.15 0 00.16-.15.16.16 0 00-.16-.15.15.15 0 00-.15.15.15.15 0 00.15.07zm-.62-.3a.15.15 0 00-.15.15.15.15 0 00.15.15.15.15 0 00.16-.15.16.16 0 00-.16-.23zm-6.83 0a.15.15 0 00-.1.07.15.15 0 00.15.15.15.15 0 00.16-.15.16.16 0 00-.21-.15zm-.62 0a.15.15 0 00-.15.15.15.15 0 00.15.15.15.15 0 00.16-.15.16.16 0 00-.16-.23zm-.62 0a.16.16 0 00-.16.15.15.15 0 00.16.15.15.15 0 00.14-.23.16.16 0 00-.14-.15zm9.32 1a.16.16 0 00.15-.16.15.15 0 00-.15-.15.16.16 0 00-.16.15.16.16 0 00.16.06zm-.63 0a.16.16 0 00.16-.16.16.16 0 00-.16-.15.15.15 0 00-.15.15.16.16 0 00.15.06zM2.1 7.28a.15.15 0 00-.1.15.16.16 0 00.15.16.16.16 0 00.16-.16.16.16 0 00-.21-.15zm-.62 0a.15.15 0 00-.15.15.16.16 0 00.15.16.16.16 0 00.16-.16.16.16 0 00-.16-.15zm-.62 0a.16.16 0 00-.16.15.16.16 0 00.32 0 .16.16 0 00-.16-.15zm9.32 1a.15.15 0 00.15-.15.16.16 0 00-.15-.13.16.16 0 00-.16.16.16.16 0 00.16.1zm-.63 0a.16.16 0 00.16-.15.16.16 0 00-.16-.13.16.16 0 00-.15.16.15.15 0 00.15.1zM2.1 8a.16.16 0 00-.1.11.15.15 0 00.15.15.16.16 0 00.16-.15A.16.16 0 002.1 8zm-.62 0a.16.16 0 00-.15.16.15.15 0 00.15.15.16.16 0 00.16-.15.16.16 0 00-.16-.16zM.86 8a.16.16 0 00-.16.16.16.16 0 00.32 0A.16.16 0 00.86 8zm9.32 1a.15.15 0 00.15-.15.15.15 0 00-.15-.15.16.16 0 00-.16.15.15.15 0 00.16.08zm-.63 0a.15.15 0 00.16-.15.16.16 0 00-.16-.15.15.15 0 00-.15.15.15.15 0 00.15.08zM2.1 8.63a.15.15 0 00-.1.15.15.15 0 00.15.15.15.15 0 00.16-.15.16.16 0 00-.21-.15zm-.62 0a.15.15 0 00-.15.15.15.15 0 00.15.15.15.15 0 00.16-.15.16.16 0 00-.16-.15zm-.62 0a.16.16 0 00-.16.15.15.15 0 00.16.15.15.15 0 00.14-.15.16.16 0 00-.14-.15zm9.94 1a.16.16 0 00.2-.18.15.15 0 00-.15-.15.16.16 0 00-.16.15.16.16 0 00.11.16zm-.62 0a.16.16 0 00.15-.16.15.15 0 00-.15-.15.16.16 0 00-.16.15.16.16 0 00.16.14zm-.63 0a.16.16 0 00.16-.16.16.16 0 00-.16-.15.15.15 0 00-.15.15.16.16 0 00.15.14zM2.1 9.3a.15.15 0 00-.1.15.16.16 0 00.15.16.16.16 0 00.16-.16.16.16 0 00-.21-.15zm-.62 0a.15.15 0 00-.15.15.16.16 0 00.15.16.16.16 0 00.16-.16.16.16 0 00-.16-.15zm9.32 1a.15.15 0 00.15-.15.16.16 0 00-.15-.15.16.16 0 00-.16.16.16.16 0 00.16.12zm-.62 0a.15.15 0 00.15-.15.16.16 0 00-.15-.16.16.16 0 00-.16.16.16.16 0 00.16.13zm-.63 0a.16.16 0 00.16-.15.16.16 0 00-.16-.15.16.16 0 00-.15.16.15.15 0 00.15.12zM2.1 10a.16.16 0 00-.15.16.15.15 0 00.15.15.16.16 0 00.16-.15.16.16 0 00-.16-.16zm-.62 0a.16.16 0 00-.15.16.15.15 0 00.15.15.16.16 0 00.16-.15.16.16 0 00-.16-.16zm9.32 1a.16.16 0 00.2-.2.15.15 0 00-.15-.15.16.16 0 00-.16.15.16.16 0 00.11.2zm-.62 0a.16.16 0 00.15-.16.15.15 0 00-.15-.15.16.16 0 00-.16.15.16.16 0 00.16.16zm-.63 0a.16.16 0 00.16-.16.16.16 0 00-.16-.15.15.15 0 00-.15.15.16.16 0 00.15.16zm-7.45-.35a.15.15 0 00-.1.15.16.16 0 00.1.2.16.16 0 00.16-.16.16.16 0 00-.16-.19zm-.62 0a.15.15 0 00-.15.15.16.16 0 00.15.16.16.16 0 00.16-.16.16.16 0 00-.16-.15zm9.32 1a.16.16 0 00.15-.16.15.15 0 00-.15-.15.16.16 0 00-.16.15.16.16 0 00.16.14zm-.62 0a.15.15 0 00.15-.15.16.16 0 00-.15-.16.16.16 0 00-.16.16.16.16 0 00.16.13zm-.63-.31a.15.15 0 00-.15.15.16.16 0 00.15.16.16.16 0 00.16-.16.16.16 0 00-.16-.17zm-7.45 0a.15.15 0 00-.15.15.16.16 0 00.15.16.16.16 0 00.16-.16.16.16 0 00-.16-.17zm-.62 0a.15.15 0 00-.15.15.16.16 0 00.15.16.16.16 0 00.16-.16.16.16 0 00-.16-.17zM7.07 1.22a.15.15 0 00-.15.15.16.16 0 00.15.16.16.16 0 00.16-.16.16.16 0 00-.16-.15zm-.62 0a.15.15 0 00-.15.15.15.15 0 00.15.16.16.16 0 00.16-.16.16.16 0 00-.16-.15zm-3.1.31a.16.16 0 00.15-.16.15.15 0 00-.15-.15.16.16 0 00-.16.15.16.16 0 00.16.16zM10.8 12.3a.15.15 0 00.15-.15.15.15 0 00-.15-.15.15.15 0 00-.16.15.16.16 0 00.16.15zm-.62 0a.15.15 0 00.15-.15.15.15 0 00-.15-.15.15.15 0 00-.16.15.16.16 0 00.16.15zM2.72 12a.15.15 0 00-.15.15.15.15 0 00.15.15.16.16 0 00.16-.15.15.15 0 00-.16-.15zm-.62 0a.15.15 0 00-.15.15.15.15 0 00.15.15.16.16 0 00.16-.15.15.15 0 00-.16-.15zm-.62 0a.15.15 0 00-.15.15.15.15 0 00.15.15.16.16 0 00.16-.15.15.15 0 00-.16-.15zm9.32 1.34a.16.16 0 00-.16.16.16.16 0 00.16.15.15.15 0 00.2-.15.16.16 0 00-.2-.16zm-.62.31a.15.15 0 00.15-.15.16.16 0 00-.15-.16.16.16 0 00-.16.16.16.16 0 00.16.15zm-7.46 0a.16.16 0 00.16-.15.16.16 0 00-.16-.16.16.16 0 00-.15.16.15.15 0 00.15.15zm-.62 0a.16.16 0 00.16-.15.16.16 0 00-.16-.16.16.16 0 00-.1.16.15.15 0 00.1.15zm8.7.67a.15.15 0 00.15-.15.15.15 0 00-.15-.17.15.15 0 00-.16.15.16.16 0 00.16.17zm-.62 0a.15.15 0 00.15-.15.15.15 0 00-.15-.15.15.15 0 00-.16.15.16.16 0 00.16.15zm-.63 0a.16.16 0 00.16-.15.15.15 0 00-.16-.17.15.15 0 00-.15.15.15.15 0 00.15.17zM3.35 14a.15.15 0 00-.16.15.16.16 0 00.16.15.15.15 0 00.15-.15.15.15 0 00-.15-.15zm-.63 0a.15.15 0 00-.15.15.15.15 0 00.15.15.16.16 0 00.16-.15.15.15 0 00-.16-.15zm-.62 0a.15.15 0 00-.15.15.15.15 0 00.15.15.16.16 0 00.16-.15.15.15 0 00-.16-.15zm8.7 1a.16.16 0 00.15-.16.15.15 0 00-.15-.15.16.16 0 00-.16.15.16.16 0 00.16.16zm-.62 0a.16.16 0 00.15-.16.15.15 0 00-.15-.15.16.16 0 00-.16.15.16.16 0 00.16.16zm-.63 0a.16.16 0 00.16-.16.16.16 0 00-.16-.15.15.15 0 00-.15.15.16.16 0 00.15.16zm-6.2-.31a.16.16 0 00-.16.15.16.16 0 00.16.16.16.16 0 00.15-.16.15.15 0 00-.15-.15zm-.63 0a.15.15 0 00-.15.15.16.16 0 00.15.16.16.16 0 00.16-.16.16.16 0 00-.16-.15zm7.46 1a.15.15 0 00.15-.15.16.16 0 00-.15-.16.16.16 0 00-.16.16.16.16 0 00.16.13zm-.63-.31a.16.16 0 00-.15.16.15.15 0 00.15.15.16.16 0 00.16-.15.16.16 0 00-.16-.18zM4 15.67a.15.15 0 00.15-.15.16.16 0 00-.15-.16.16.16 0 00-.16.16.16.16 0 00.16.15zm-.62 0a.15.15 0 00.15-.15.16.16 0 00-.15-.16.16.16 0 00-.16.16.16.16 0 00.13.15zm-.63-.31a.16.16 0 00-.15.16.15.15 0 00.15.15.16.16 0 00.16-.15.16.16 0 00-.19-.16zm7.46 1a.15.15 0 00.15-.15.15.15 0 00-.15-.15.15.15 0 00-.16.15.16.16 0 00.13.13zm-.63 0a.16.16 0 00.16-.15.15.15 0 00-.19-.21.15.15 0 00-.15.15.15.15 0 00.15.19zM4 16a.15.15 0 00-.16.15.16.16 0 00.16.15.15.15 0 00.15-.15A.15.15 0 004 16zm-.62 0a.15.15 0 00-.16.15.16.16 0 00.16.15.15.15 0 00.15-.15.15.15 0 00-.18-.15zm6.83 1a.16.16 0 00.15-.16.15.15 0 00-.15-.15.16.16 0 00-.16.15.16.16 0 00.13.16zm-.63 0a.16.16 0 00.16-.16.16.16 0 00-.16-.15.15.15 0 00-.15.15.16.16 0 00.12.16zm-5-.31a.16.16 0 00-.16.15.16.16 0 00.16.16.16.16 0 00.15-.16.15.15 0 00-.14-.13zm-.62 0a.16.16 0 00-.16.15.16.16 0 00.2.16.16.16 0 00.15-.16.15.15 0 00-.15-.13zm-.62 0a.16.16 0 00-.16.15.16.16 0 00.16.16.16.16 0 00.15-.16.15.15 0 00-.14-.13zm6.2.67a.16.16 0 00-.15.16.15.15 0 00.15.15.16.16 0 00.16-.15.16.16 0 00-.15-.14zm-.62 0a.16.16 0 00-.15.16.15.15 0 00.15.15.16.16 0 00.16-.15.16.16 0 00-.15-.14zm-4.34 0a.16.16 0 00-.16.16.16.16 0 00.16.15.15.15 0 00.15-.15.16.16 0 00-.14-.14zm-.62 0a.16.16 0 00-.16.16.16.16 0 00.16.15.15.15 0 00.15-.15.16.16 0 00-.11-.14zm5 .68a.15.15 0 000 .3.15.15 0 100-.3zm-3.72 0a.15.15 0 100 .3.15.15 0 000-.3zm-.62 0a.15.15 0 100 .3.15.15 0 000-.3zm1.86 1a.16.16 0 00.16-.16.16.16 0 00-.16-.15.15.15 0 00-.15.15.15.15 0 00.12.12zm-.62-.31a.16.16 0 00-.16.15.16.16 0 10.32 0 .16.16 0 00-.19-.15zm6.83.31a.16.16 0 00.16-.16.16.16 0 00-.32 0 .16.16 0 00.13.12zm-.62.67a.16.16 0 00.16-.15.16.16 0 00-.23-.16.15.15 0 00-.15.16.15.15 0 00.15.15zm.62 0a.16.16 0 00.16-.15.16.16 0 00-.32 0 .16.16 0 00.13.15zm-.62.37a.15.15 0 00-.15.15.15.15 0 00.15.15.15.15 0 00.16-.15.16.16 0 00-.23-.15zm-.62.3a.15.15 0 00.15-.15.15.15 0 00-.15-.15.16.16 0 00-.16.15.15.15 0 00.13.15zm1.24-.3a.15.15 0 00-.15.15.14.14 0 00.15.15.15.15 0 00.16-.15.16.16 0 00-.19-.15zm-.62 1a.16.16 0 00.16-.15.16.16 0 00-.16-.16.15.15 0 00-.15.16.15.15 0 00.08.13zm-.62 0a.15.15 0 00.15-.15.16.16 0 00-.15-.16.16.16 0 00-.16.16.16.16 0 00.13.13zm-.62 0a.15.15 0 00.15-.15.16.16 0 00-.15-.16.16.16 0 00-.16.16.16.16 0 00.13.13zm.62.67a.15.15 0 00.15-.15.16.16 0 00-.15-.16.16.16 0 00-.16.16.16.16 0 00.13.13zm-.62 0a.15.15 0 00.15-.15.16.16 0 00-.15-.16.16.16 0 00-.16.16.16.16 0 00.13.13zm.62.37a.16.16 0 00-.16.15.16.16 0 00.16.16.16.16 0 00.15-.16.15.15 0 00-.18-.17zm-.62 0a.16.16 0 00-.16.15.16.16 0 00.16.16.16.16 0 00.15-.16.15.15 0 00-.18-.17zm-.62 0a.16.16 0 00-.16.15.16.16 0 00.16.16.16.16 0 00.15-.16.15.15 0 00-.18-.17zm.62 1a.15.15 0 00.15-.15.16.16 0 00-.15-.16.16.16 0 00-.16.16.16.16 0 00.13.11zm-.62-.31a.16.16 0 00-.16.15.16.16 0 00.16.16.16.16 0 00.15-.16.15.15 0 00-.18-.19zM10.8 13a.16.16 0 00.15-.16.15.15 0 00-.15-.15.16.16 0 00-.16.15.16.16 0 00.16.16zm-.62 0a.16.16 0 00.15-.16.15.15 0 00-.15-.15.16.16 0 00-.16.15.16.16 0 00.16.16zm-7.46-.31a.15.15 0 00-.15.15.16.16 0 00.15.16.16.16 0 00.16-.16.16.16 0 00-.16-.17zm-.62 0a.15.15 0 00-.15.15.16.16 0 00.15.16.16.16 0 00.16-.16.16.16 0 00-.16-.17zm8.08 10.78a.15.15 0 00-.16.15.16.16 0 00.16.15.15.15 0 00.15-.15.15.15 0 00-.15-.17zm-.63.3a.16.16 0 00.16-.15.15.15 0 00-.16-.15.15.15 0 00-.15.15.15.15 0 00.15.13zm.63.37a.16.16 0 00-.16.15.16.16 0 00.16.16.16.16 0 00.15-.16.15.15 0 00-.15-.17zm-.63 0a.15.15 0 00-.15.15.16.16 0 00.15.16.16.16 0 00.16-.16.16.16 0 00-.16-.17zm.63.67A.16.16 0 0010 25a.16.16 0 00.16.15.15.15 0 00.15-.15.16.16 0 00-.13-.21zm-.63 0a.16.16 0 00-.15.19.15.15 0 00.15.15.16.16 0 00.16-.15.16.16 0 00-.16-.21zm0 .68a.15.15 0 00-.16.15.16.16 0 00.16.15.15.15 0 00.15-.15.15.15 0 00-.14-.17zm2.48 2a.14.14 0 00-.15.15.15.15 0 00.15.15.16.16 0 00.16-.15.15.15 0 00-.19-.15zm-.62 0a.15.15 0 00-.16.15.16.16 0 00.16.15.15.15 0 00.15-.15.15.15 0 00-.14-.15zm1.24 0a.15.15 0 00-.16.15.16.16 0 00.32 0 .15.15 0 00-.15-.15z" data-name="Camada 1"/>
  </g>
</svg>
