<svg xmlns="http://www.w3.org/2000/svg" viewBox="0 0 20 15">
  <g data-name="Camada 2">
    <path d="M16.1 2.85l.86-1L15.81 0h-3.93l-1.16 1.8.87 1.05a6.64 6.64 0 00-1.59 1 6.05 6.05 0 00-8.64.94A6.41 6.41 0 000 8.71 6.2 6.2 0 006.13 15 6.1 6.1 0 0010 13.61a6.05 6.05 0 008.64-.95 6.37 6.37 0 00-2.54-9.81zm-3.45-1.37H15l.12.22-.63.76h-1.33l-.65-.76zM9 12.55a4.75 4.75 0 01-2.82 1 4.75 4.75 0 01-4.7-4.8 4.75 4.75 0 014.7-4.8A4.64 4.64 0 019 4.87a6.21 6.21 0 00-1.3 3.84A6.29 6.29 0 009 12.55zm1-1.08a4.93 4.93 0 01-.87-2.76A5 5 0 0110 5.93a5 5 0 01.87 2.78 4.93 4.93 0 01-.87 2.76zm3.83 2a4.75 4.75 0 01-2.82-1 6.29 6.29 0 001.3-3.84A6.21 6.21 0 0011 4.87a4.67 4.67 0 016.61 1 4.88 4.88 0 01.93 2.85 4.77 4.77 0 01-4.71 4.79z" data-name="Camada 1"/>
  </g>
</svg>
