<svg xmlns="http://www.w3.org/2000/svg" viewBox="0 0 12 15">
  <g data-name="Camada 2">
    <path d="M7.61 2.2l1-.9a1.34 1.34 0 00.16-.23.78.78 0 00.11-.32.71.71 0 00-.06-.28A1 1 0 008.6.15.56.56 0 008.22 0H3.78a.61.61 0 00-.39.15.71.71 0 00-.23.37 1.49 1.49 0 000 .21.83.83 0 00.21.56l1 .9A6.42 6.42 0 000 8.47a6.84 6.84 0 001.75 4.62A5.77 5.77 0 006 15a5.77 5.77 0 004.25-1.91A6.84 6.84 0 0012 8.47 6.42 6.42 0 007.61 2.2zM6 13.54a4.86 4.86 0 01-4.66-5.07A4.86 4.86 0 016 3.39a4.86 4.86 0 014.66 5.08A4.86 4.86 0 016 13.54z" data-name="Camada 1"/>
  </g>
</svg>
