<svg xmlns="http://www.w3.org/2000/svg" viewBox="0 0 17 20">
  <g data-name="Camada 2">
    <g data-name="Camada 1">
      <path d="M3.5 16.84a.51.51 0 01-.5-.53.5.5 0 10-1 0 1.54 1.54 0 001.5 1.58.53.53 0 000-1.05zM15.45 10.29a22.15 22.15 0 00-1.06-2l-.09-.15a1.6 1.6 0 00.7-1.3 1.57 1.57 0 00-1-1.49V3.07a1.57 1.57 0 001-1.49A1.54 1.54 0 0013.5 0h-1a.52.52 0 00-.5.53.51.51 0 00.5.52h1a.51.51 0 01.5.53.51.51 0 01-.5.52.52.52 0 00-.5.53v2.72a1.61 1.61 0 00-.29 2.83l-.1.15a19.83 19.83 0 00-1 2 14.29 14.29 0 00-1.56 6A3.6 3.6 0 0013.5 20a3.59 3.59 0 003.5-3.69 14.27 14.27 0 00-1.55-6.02zm-1.95-4a.53.53 0 010 1.06.53.53 0 010-1.06zm0 12.63a2.56 2.56 0 01-2.5-2.61 13.22 13.22 0 011.45-5.55c.32-.67.66-1.3 1-1.86a.35.35 0 00.05-.08l.05.08c.34.56.69 1.19 1 1.86A13.35 13.35 0 0116 16.31a2.56 2.56 0 01-2.5 2.63z"/>
      <path d="M13.5 16.84a.52.52 0 01-.5-.53.51.51 0 00-.5-.52.51.51 0 00-.5.52 1.54 1.54 0 001.5 1.58.53.53 0 000-1.05zM4.39 8.33l-.09-.15A1.62 1.62 0 004 5.35V3.07a1.58 1.58 0 001-1.49A1.54 1.54 0 003.5 0h-1a.51.51 0 00-.5.53.51.51 0 00.5.52h1a.51.51 0 01.5.53.51.51 0 01-.5.52.51.51 0 00-.5.53v2.72a1.61 1.61 0 00-.29 2.83l-.1.15a22.15 22.15 0 00-1.06 2 14.27 14.27 0 00-1.55 6A3.6 3.6 0 003.5 20 3.6 3.6 0 007 16.31a14.27 14.27 0 00-1.55-6 22.15 22.15 0 00-1.06-1.98zm-.89-2a.53.53 0 11-.5.53.51.51 0 01.5-.55zm0 12.63A2.56 2.56 0 011 16.31a13.22 13.22 0 011.45-5.55c.32-.67.66-1.3 1-1.86v-.08.08c.34.56.68 1.19 1 1.86A13.22 13.22 0 016 16.31a2.56 2.56 0 01-2.5 2.63z"/>
    </g>
  </g>
</svg>
