<svg xmlns="http://www.w3.org/2000/svg" viewBox="0 0 19 20">
  <g data-name="Camada 2">
    <path d="M19 4.26a1.93 1.93 0 00-1.54-1.92 8.74 8.74 0 00-.71-2 .5.5 0 00-.69-.23.55.55 0 00-.22.72 7.86 7.86 0 01.61 1.68 2 2 0 000 3.59c0 .1-.05.21-.08.31a1 1 0 00-.24 0 1.84 1.84 0 00-.47.06 1.89 1.89 0 00-1.13.91 2.05 2.05 0 00.13 2.15l-.22.22a1.86 1.86 0 00-.64-.33 1.84 1.84 0 00-.47-.06 1.78 1.78 0 00-.92.26 2 2 0 00-.91 1.93l-.3.08a1.81 1.81 0 00-3.4 0l-.3-.08a2 2 0 00-.91-1.93 1.75 1.75 0 00-1.39-.2 1.86 1.86 0 00-.64.33l-.22-.22a2.05 2.05 0 00.13-2.15 1.9 1.9 0 00-1.12-.98 2 2 0 00-.48-.06.86.86 0 00-.23 0c0-.11-.06-.21-.08-.31a2 2 0 001.13-1.77 2 2 0 00-1.13-1.8 7.83 7.83 0 01.6-1.68.55.55 0 00-.22-.72.49.49 0 00-.69.23 8.74 8.74 0 00-.71 2.05A1.92 1.92 0 000 4.26a1.91 1.91 0 001.53 1.91c.05.21.1.42.16.63a2 2 0 00-.41 2.46 1.8 1.8 0 001.12.9 1.53 1.53 0 00.47.07 1.73 1.73 0 00.64-.12l.43.45a2 2 0 00.81 2.36 1.69 1.69 0 00.92.26 1.89 1.89 0 00.47-.06 1.86 1.86 0 001-.65 5.72 5.72 0 00.59.17 1.92 1.92 0 001.39 1.57v.06L7.9 16.75a.55.55 0 000 .47L9 19.7a.51.51 0 00.46.3.52.52 0 00.46-.3l1.14-2.48a.55.55 0 000-.47L10 14.27v-.06a1.92 1.92 0 001.39-1.57l.59-.17a1.84 1.84 0 00.95.64 1.49 1.49 0 00.47.07 1.81 1.81 0 00.92-.26 2 2 0 00.8-2.36c.15-.15.29-.3.43-.46a1.63 1.63 0 00.64.13 1.59 1.59 0 00.48-.07 1.88 1.88 0 001.12-.9 2 2 0 00-.41-2.47 6.23 6.23 0 00.15-.62A1.91 1.91 0 0019 4.26zm-18 0a.86.86 0 01.82-.88.86.86 0 01.83.88.85.85 0 01-.83.87.85.85 0 01-.82-.87zM3.28 9a.76.76 0 01-.62.09.84.84 0 01-.51-.41.9.9 0 01.31-1.19.76.76 0 01.62-.09.83.83 0 01.5.4.91.91 0 01-.3 1.2zm3.1 2.63a.82.82 0 01-.5.41.8.8 0 01-.62-.04.91.91 0 01-.3-1.2.83.83 0 01.5-.4.76.76 0 01.21 0 .78.78 0 01.41.12.89.89 0 01.3 1.15zm3.7 5.37l-.58 1.24L8.92 17l.58-1.25zm-.58-3.81a.84.84 0 01-.82-.87.85.85 0 01.82-.88.84.84 0 01.82.87.85.85 0 01-.82.88zM13.74 12a.76.76 0 01-.62.09.8.8 0 01-.5-.4.9.9 0 01.3-1.2.78.78 0 01.41-.12.76.76 0 01.21 0 .84.84 0 01.5.41.89.89 0 01-.3 1.22zm3.11-3.27a.84.84 0 01-.51.41.76.76 0 01-.62-.14.91.91 0 01-.3-1.2.83.83 0 01.5-.4.76.76 0 01.21 0 .78.78 0 01.41.12.9.9 0 01.31 1.2zm.31-3.59a.85.85 0 01-.83-.87.83.83 0 111.65 0 .85.85 0 01-.82.86z" data-name="Camada 1"/>
  </g>
</svg>
