<svg xmlns="http://www.w3.org/2000/svg" viewBox="0 0 16 15">
  <g data-name="Camada 2">
    <g data-name="Camada 1">
      <path d="M3.68 3.17L3 3.82a.22.22 0 00-.06.18v1.07a.2.2 0 00.2.21.2.2 0 00.21-.21v-1L4 3.46a.19.19 0 000-.29.19.19 0 00-.32 0zM16 2.86V2.8L13.8.88a.07.07 0 00-.06 0h-.1L11 1.92h-.07c-.07 0 0 0 0 .06L10.33 5a.07.07 0 000 .06l2.14 1.91h.14l2.79-.92h.07v-.06L16 3a.07.07 0 000-.14zm-2.2-1.44l1.62 1.44-.8.35-1-.81zm-.41-.06l-.16 1-1.23.41-.64-.58zm-2.24 1.16l.62.57-.21 1.29-.76.33zm1.38 4.05l-1.62-1.44.8-.35 1 .81zM12 4.44l.21-1.27 1.19-.46 1 .84-.21 1.27-1.19.46zm1 2.17l.16-1 1.19-.46.64.59zm2.24-1.14l-.62-.57.21-1.29.76-.34z"/>
      <path d="M13.53 3.27a.23.23 0 00-.28-.12l-.68.29a.23.23 0 00-.12.17l-.11.67a.24.24 0 00.17.25.2.2 0 00.2-.17l.11-.56.57-.25a.21.21 0 00.14-.28zM14.44 8.72v-.06c0-.06 0 0-.06 0h-.05l-3.38-.81h-.15l-2.65 2.56a.07.07 0 000 .06v.09L8.91 14v.06c0 .06.05 0 .07 0l3.39.81h.1l2.55-2.59a.07.07 0 000-.06v-.11zm-.62.19l-.9.92-1.56-.42-.25-1.15zm-.57 2.9L12.1 13l-1.56-.42-.41-1.58 1.15-1.2 1.56.42zm-2.51-3.42L11 9.51l-1.18 1.15-1.09-.23zm-2.15 2.44l1.12.25.42 1.58-.93.94zm.94 3l.9-.92 1.56.42.25 1.15zm3.08.52l-.23-1.1 1.15-1.17 1.09.23zm1-2.69l-.41-1.58.92-.94.64 2.75z"/>
      <path d="M10.72 11.18a.22.22 0 00.14.06.22.22 0 00.15-.06l.51-.52.76.17a.21.21 0 00.25-.17.22.22 0 00-.15-.23l-.88-.21a.16.16 0 00-.18.06l-.6.61a.21.21 0 000 .29zM9 6.45V2.67L6.41 0H2.63h-.06L0 2.61v3.87l2.57 2.59h3.71a.08.08 0 00.07 0l2.58-2.56S9 6.47 9 6.45zM6.35.56l2.07 2.11-1.83.67-1-1zm0 3.11v1.59L5.22 6.38H3.66L2.55 5.26V3.67l1.11-1.13h1.56zM5.94.42l-.76 1.71H3.7L3 .42zM2.63.56l.7 1.71-1.05 1.07-1.73-.67zM.39 3.05l1.75.66v1.48L.39 6zm2.24 5.5l-2.1-2.1 1.75-.84 1 1zm.37.17l.7-1.92h1.46L6 8.72zm3.35-.15l-.8-1.92 1-1 1.87.86zm2.24-2.52l-1.85-.86V3.71l1.85-.66z"/>
    </g>
  </g>
</svg>
