<svg xmlns="http://www.w3.org/2000/svg" viewBox="0 0 18 15">
  <g data-name="Camada 2">
    <path d="M18 3.86a1.52 1.52 0 00-.88-1.4 1.35 1.35 0 00.65-1.14 1.32 1.32 0 10-2.63 0 1.36 1.36 0 00.66 1.14 1.55 1.55 0 00-.88 1.4A1.54 1.54 0 0015.45 5a1.56 1.56 0 00-1.17 1.49 1.46 1.46 0 00.23.79 1.75 1.75 0 00-1.64 1.75 1.39 1.39 0 00.07.46 2.51 2.51 0 00-.6-.1A2 2 0 0010.39 11a2.22 2.22 0 00-2.78 0 2 2 0 00-1.95-1.6 1.58 1.58 0 00-.6.1 1.47 1.47 0 00.07-.46 1.75 1.75 0 00-1.64-1.73 1.46 1.46 0 00.23-.79A1.53 1.53 0 002.55 5a1.55 1.55 0 00-.35-2.54 1.36 1.36 0 00.66-1.14A1.31 1.31 0 001.54 0 1.3 1.3 0 00.23 1.32a1.37 1.37 0 00.65 1.14 1.55 1.55 0 00.28 2.9 1.52 1.52 0 00-.53 1.16A1.54 1.54 0 002 8.05a1.74 1.74 0 001.42 2.76 2.1 2.1 0 00.43-.05 1.85 1.85 0 00-.13.66 2 2 0 002 2 2 2 0 001.12-.35 2.24 2.24 0 004.45 0 2 2 0 001.11.35 2 2 0 002-2 1.85 1.85 0 00-.13-.66 2 2 0 00.43.05 1.75 1.75 0 001.75-1.75 1.79 1.79 0 00-.33-1 1.56 1.56 0 001.34-1.53 1.52 1.52 0 00-.53-1.16A1.57 1.57 0 0018 3.86zM1.54.76a.56.56 0 010 1.12.56.56 0 010-1.12zm-.78 3.1a.79.79 0 01.78-.79.79.79 0 010 1.58.79.79 0 01-.78-.79zm1.39 3.45a.79.79 0 01-.78-.79.78.78 0 011.56 0 .79.79 0 01-.78.79zm1.24 2.74a1 1 0 01-1-1 1 1 0 011-1 1 1 0 011 1 1 1 0 01-1 1zm2.27 2.59a1.22 1.22 0 01-1.21-1.22 1.22 1.22 0 112.43 0 1.22 1.22 0 01-1.22 1.22zM9 14.26a1.47 1.47 0 111.47-1.47A1.47 1.47 0 019 14.26zM16.46.76a.57.57 0 01.56.56.56.56 0 11-1.12 0 .57.57 0 01.56-.56zm-4.12 11.88a1.22 1.22 0 111.21-1.22 1.22 1.22 0 01-1.21 1.22zm2.27-2.59a1 1 0 01-1-1 1 1 0 011-1 1 1 0 110 2zm1.22-2.74a.8.8 0 01-.83-.79.79.79 0 01.79-.78.78.78 0 01.78.78.79.79 0 01-.74.79zm.63-2.66a.79.79 0 11.78-.79.79.79 0 01-.78.79z" data-name="Camada 1"/>
  </g>
</svg>
