<svg xmlns="http://www.w3.org/2000/svg" viewBox="0 0 10.02 20.02">
  <g data-name="Camada 2">
    <path d="M5.24 3.21a2 2 0 011.51.72 2.67 2.67 0 01.63 1.75 2.65 2.65 0 01-.63 1.74 2.24 2.24 0 01-.5.43 1.26 1.26 0 01.13.26 1.69 1.69 0 01.13.63 1.53 1.53 0 01-.2.78 1.2 1.2 0 01-.25.34 6 6 0 011.08 1.47 14.49 14.49 0 011.48 4 4.48 4.48 0 01.07.8 4.14 4.14 0 01-.78 2.45A3.36 3.36 0 016 19.93a3 3 0 01-.73.09 3.53 3.53 0 01-.72-.08 3.46 3.46 0 01-2-1.34 4.16 4.16 0 01-.78-2.45 4.29 4.29 0 01.07-.79 14 14 0 011.47-4 6.24 6.24 0 011.08-1.48 1.31 1.31 0 01-.27-.38 1.59 1.59 0 01-.19-.76A1.63 1.63 0 014 8.15a1.51 1.51 0 01.16-.31 2.37 2.37 0 01-.48-.42 2.65 2.65 0 01-.63-1.74 2.67 2.67 0 01.63-1.75 2 2 0 011.52-.72zm-2.78.12L2.79 3l.31.38-.33.35zM0 .35L.32 0l.31.37-.32.36zm1.23 1.49l.33-.35.3.37-.32.35zm6 1.16l.32.36-.31.37-.32-.35zm2.46-3l.31.35-.29.38-.32-.36zM8.46 1.49l.33.35-.31.37-.33-.35zM7.31 15.77a.16.16 0 01.16-.14.16.16 0 01.12.18 3.65 3.65 0 01-.21.82 3.73 3.73 0 01-.37.75l-.09.13-.09.12a.13.13 0 01-.2 0 .17.17 0 010-.22l.08-.12a.62.62 0 00.09-.12 4.22 4.22 0 00.34-.67 3.2 3.2 0 00.17-.73zM6 18a.13.13 0 01.19 0 .18.18 0 010 .23l-.32.23-.35.19a.14.14 0 01-.19-.09.18.18 0 01.08-.21l.32-.17L6 18zm-.34-8.43a1 1 0 00.28-.32 1.16 1.16 0 00.12-.51A1.15 1.15 0 006 8.33a1 1 0 00-.17-.28 1.84 1.84 0 01-.57.09 2 2 0 01-.6-.09 1 1 0 00-.19.31 1.12 1.12 0 00-.07.38 1 1 0 00.12.5.88.88 0 00.29.34 1 1 0 01.44-.13.9.9 0 01.43.12zm1.1 2c-.53-1-1.1-1.66-1.53-1.65s-1 .72-1.55 1.68a13.88 13.88 0 00-1.41 3.82 4 4 0 00-.06.69 3.62 3.62 0 00.68 2.12 3 3 0 001.71 1.2 2.59 2.59 0 00.63.08 2.74 2.74 0 00.64-.08 2.92 2.92 0 001.7-1.17 3.62 3.62 0 00.67-2.12 4 4 0 00-.06-.69 13.61 13.61 0 00-1.42-3.84zM6.43 4.3A1.54 1.54 0 004 4.3a2.15 2.15 0 000 2.76 1.54 1.54 0 002.39 0 2.15 2.15 0 000-2.76z" data-name="Camada 1"/>
  </g>
</svg>
