<svg xmlns="http://www.w3.org/2000/svg" viewBox="0 0 18 18">
  <g data-name="Camada 2">
    <path d="M18 9c0-1.38-.41-2.83-1.17-3.24.25-.83-.49-2.15-1.47-3.12S13.07.92 12.24 1.17C11.83.41 10.38 0 9 0S6.17.41 5.76 1.17c-.83-.25-2.15.49-3.12 1.47S.92 4.93 1.17 5.76C.41 6.17 0 7.62 0 9s.41 2.83 1.17 3.24c-.25.83.49 2.15 1.47 3.12a4.62 4.62 0 002.77 1.52 1.34 1.34 0 00.35-.05C6.17 17.59 7.62 18 9 18s2.84-.41 3.25-1.17a1.29 1.29 0 00.35.05 4.65 4.65 0 002.77-1.52c1-1 1.72-2.28 1.47-3.12C17.59 11.83 18 10.38 18 9zm-.68 0c0 1.63-.55 2.67-.93 2.67h-.14A3.45 3.45 0 0115.46 9c0-1.45.43-2.43.79-2.63h.14c.38-.04.93 1 .93 2.63zm-5.68 6.36A5.63 5.63 0 009 14.77a5.63 5.63 0 00-2.64.59 5.52 5.52 0 00-1.44-2.28 5.52 5.52 0 00-2.28-1.44A5.63 5.63 0 003.23 9a5.63 5.63 0 00-.59-2.64 5.52 5.52 0 002.28-1.44 5.52 5.52 0 001.44-2.28A5.63 5.63 0 009 3.23a5.63 5.63 0 002.64-.59 5.52 5.52 0 001.44 2.28 5.52 5.52 0 002.28 1.44A5.63 5.63 0 0014.77 9a5.63 5.63 0 00.59 2.64 5.52 5.52 0 00-2.28 1.44 5.52 5.52 0 00-1.44 2.28zm1-13.56a4 4 0 012.27 1.32c1.09 1.15 1.47 2.28 1.2 2.54h-.08c-.39.12-1.4-.27-2.42-1.3s-1.42-2-1.3-2.42v-.13a.38.38 0 01.3-.01zM9 .68c1.63 0 2.67.55 2.67.93a.13.13 0 010 .06.24.24 0 000 .08A3.45 3.45 0 019 2.54a3.45 3.45 0 01-2.64-.79v-.08a.13.13 0 010-.06C6.33 1.23 7.37.68 9 .68zM3.12 3.12A4 4 0 015.39 1.8a.38.38 0 01.28.09v.08c.12.4-.27 1.4-1.29 2.42S2.41 5.85 2 5.73h-.08c-.3-.33.08-1.46 1.2-2.61zM.68 9c0-1.63.55-2.67.93-2.67h.14A3.42 3.42 0 012.54 9a3.45 3.45 0 01-.79 2.64h-.14C1.23 11.67.68 10.63.68 9zm2.44 5.88C2 13.73 1.62 12.6 1.89 12.33H2.12a4 4 0 012.27 1.32A3.44 3.44 0 015.73 16v.13c-.33.25-1.46-.13-2.61-1.25zM9 17.32c-1.63 0-2.67-.55-2.67-.93a.13.13 0 010-.06.24.24 0 000-.08A3.45 3.45 0 019 15.46a3.45 3.45 0 012.64.79v.08a.13.13 0 010 .06c.03.38-1.01.93-2.64.93zm5.88-2.44c-1.15 1.15-2.28 1.5-2.55 1.23v-.08c-.12-.4.27-1.4 1.29-2.43a4 4 0 012.28-1.32H16.13c.25.32-.13 1.45-1.25 2.6z" data-name="Camada 1"/>
  </g>
</svg>
