<!-- SVG Sprite -->
<svg id="svg-sprite" class="svg-sprites">
    <!-- Gradients -->
    <defs>
        <!-- Horizontais -->
        <linearGradient id="color1_h" x1="0%" y1="0%" x2="100%" y2="0%"><stop offset="0%" stop-color="@bg(1)" /><stop offset="100%" stop-color="@bg(1:hover)" /></linearGradient>
        <linearGradient id="color2_h" x1="0%" y1="0%" x2="100%" y2="0%"><stop offset="0%" stop-color="@bg(2)" /><stop offset="100%" stop-color="@bg(2:hover)" /></linearGradient>
        <linearGradient id="color3_h" x1="0%" y1="0%" x2="100%" y2="0%"><stop offset="0%" stop-color="@bg(3)" /><stop offset="100%" stop-color="@bg(3:hover)" /></linearGradient>
        <linearGradient id="button_h" x1="0%" y1="0%" x2="100%" y2="0%"><stop offset="0%" stop-color="@button(bg)" /><stop offset="100%" stop-color="@button(bg:hover)" /></linearGradient>
        <linearGradient id="timer__gradient" x1="0%" y1="0%" x2="100%" y2="0%"><stop offset="0%" stop-color="@bg(1)" /><stop offset="100%" stop-color="@bg(2)" /></linearGradient>
        <!-- Verticais -->
        <linearGradient id="color1_v" x1="0%" y1="0%" x2="0%" y2="100%"><stop offset="0%" stop-color="@bg(1)" /><stop offset="100%" stop-color="@bg(1:hover)" /></linearGradient>
        <linearGradient id="color2_v" x1="0%" y1="0%" x2="0%" y2="100%"><stop offset="0%" stop-color="@bg(2)" /><stop offset="100%" stop-color="@bg(2:hover)" /></linearGradient>
        <linearGradient id="color3_v" x1="0%" y1="0%" x2="0%" y2="100%"><stop offset="0%" stop-color="@bg(3)" /><stop offset="100%" stop-color="@bg(3:hover)" /></linearGradient>
        <linearGradient id="button_v" x1="0%" y1="0%" x2="0%" y2="100%"><stop offset="0%" stop-color="@button(bg)" /><stop offset="100%" stop-color="@button(bg:hover)" /></linearGradient>
    </defs>
    <!--
	Ícones Obrigatórios
	* É possível alterá-los, porém não altere o ID
	-->
    <symbol id="i-play" 		viewBox="0 0 16 16"><path d="M2.9,1C1.3,0.2,0,0.9,0,2.4v11.2c0,1.5,1.3,2.1,2.9,1.4l11.9-5.6c1.6-0.8,1.6-2,0-2.7L2.9,1z"/></symbol>
    <symbol id="i-list" 		viewBox="0 0 16 16"><path d="M14.4,3.2H1.6C0.7,3.2,0,2.5,0,1.6v0C0,0.7,0.7,0,1.6,0l12.8,0C15.3,0,16,0.7,16,1.6v0 C16,2.5,15.3,3.2,14.4,3.2z M16,14.4L16,14.4c0-0.9-0.7-1.6-1.6-1.6H1.6c-0.9,0-1.6,0.7-1.6,1.6v0C0,15.3,0.7,16,1.6,16h12.8 C15.3,16,16,15.3,16,14.4z M16,8L16,8c0-0.9-0.7-1.6-1.6-1.6H1.6C0.7,6.4,0,7.1,0,8v0c0,0.9,0.7,1.6,1.6,1.6h12.8 C15.3,9.6,16,8.9,16,8z"/></symbol>
    <symbol id="i-grid" 		viewBox="0 0 16 16"><path d="M3.2,1.6c0,0.9-0.7,1.6-1.6,1.6S0,2.5,0,1.6S0.7,0,1.6,0S3.2,0.7,3.2,1.6z M8,0 C7.1,0,6.4,0.7,6.4,1.6S7.1,3.2,8,3.2s1.6-0.7,1.6-1.6S8.9,0,8,0z M14.4,0c-0.9,0-1.6,0.7-1.6,1.6s0.7,1.6,1.6,1.6S16,2.5,16,1.6 S15.3,0,14.4,0z M1.6,6.4C0.7,6.4,0,7.1,0,8s0.7,1.6,1.6,1.6S3.2,8.9,3.2,8S2.5,6.4,1.6,6.4z M8,6.4C7.1,6.4,6.4,7.1,6.4,8 S7.1,9.6,8,9.6S9.6,8.9,9.6,8S8.9,6.4,8,6.4z M14.4,6.4c-0.9,0-1.6,0.7-1.6,1.6s0.7,1.6,1.6,1.6S16,8.9,16,8S15.3,6.4,14.4,6.4z M1.6,12.8c-0.9,0-1.6,0.7-1.6,1.6S0.7,16,1.6,16s1.6-0.7,1.6-1.6S2.5,12.8,1.6,12.8z M8,12.8c-0.9,0-1.6,0.7-1.6,1.6S7.1,16,8,16 s1.6-0.7,1.6-1.6S8.9,12.8,8,12.8z M14.4,12.8c-0.9,0-1.6,0.7-1.6,1.6s0.7,1.6,1.6,1.6s1.6-0.7,1.6-1.6S15.3,12.8,14.4,12.8z"/></symbol>
    <symbol id="i-success"      viewBox="0 0 16 16"><path d="M8,0C3.6,0,0,3.6,0,8c0,4.4,3.6,8,8,8c4.4,0,8-3.6,8-8S12.4,0,8,0z M7.4,12.7l-1-0.7l0,0L2.9,9.5l0.7-1 L7.1,11l4.7-6.5l1,0.7L7.4,12.7z"/></symbol>
    <symbol id="img-truck" 		viewBox="0 0 16 16"><path d="M1.1,12L8,16l6.9-4V4L8,0L1.1,4V12z M7.5,14.6l-2.3-1.3V7l2.3,1.3V14.6z M14,11.5l-5.5,3.2V8.3 L14,5.1V11.5z M13.5,4.3L8,7.5L5.7,6.1l5.3-3.4L13.5,4.3z M8,1.1l2,1.2L4.8,5.6L2.5,4.3L8,1.1z M2,5.1l2.3,1.3v6.4L2,11.5 C2,11.5,2,5.1,2,5.1z M13.2,8.5L10.5,10v2.4l2.7-1.5V8.5z"/></symbol>
    <symbol id="img-cupon" 		viewBox="0 0 16 16"><path d="M16,0.6C16,0.3,15.8,0,15.4,0H7.5C7.4,0,7.2,0.1,7.1,0.2L0.7,6.5C0.3,6.9,0,7.5,0,8.1 c0,0.6,0.2,1.2,0.7,1.6l5.6,5.6c0.4,0.4,1,0.7,1.6,0.7s1.2-0.2,1.6-0.7l6.4-6.5C16,8.8,16,8.6,16,8.4V0.6z M7.2,14.4L1.6,8.8 C1.4,8.6,1.3,8.4,1.3,8.1c0-0.3,0.1-0.5,0.3-0.7l0.3-0.3l7,7l-0.3,0.3C8.2,14.8,7.5,14.8,7.2,14.4z M9.7,13.3l-7-7l5-5h7v6.9 L9.7,13.3z M13.2,4.4c0-1-0.8-1.8-1.7-1.8S9.7,3.4,9.7,4.4s0.8,1.8,1.7,1.8S13.2,5.4,13.2,4.4z M11.4,4.9c-0.3,0-0.6-0.2-0.6-0.6 s0.2-0.6,0.6-0.6c0.3,0,0.6,0.2,0.6,0.6S11.7,4.9,11.4,4.9z"/></symbol>
    <symbol id="img-os-new" 	viewBox="0 0 16 16"><path d="M13.5,15.9c0,0.1-0.1,0.1-0.1,0.1c-0.1,0-0.1,0-0.2,0c0,0-0.1,0-0.1,0l-0.7-0.7l-0.7,0.7 c-0.1,0.1-0.2,0.1-0.3,0l-0.7-0.7l-0.7,0.7c-0.1,0.1-0.2,0.1-0.3,0l-0.7-0.7l-0.7,0.7c-0.1,0.1-0.2,0.1-0.3,0l-0.7-0.7l-0.7,0.7 c-0.1,0.1-0.2,0.1-0.3,0l-0.7-0.7l-0.7,0.7c-0.1,0.1-0.2,0.1-0.3,0l-0.7-0.7l-0.7,0.7c0,0,0,0-0.1,0c-0.1,0-0.1,0-0.2,0 c-0.1,0-0.1-0.1-0.1-0.1c0,0,0-0.1,0-0.1V2.2c0,0,0,0,0,0c0,0,0,0,0,0c0-0.4,0.3-0.7,0.7-0.7c0,0,0,0,0,0h2.3V2H3.2c0,0,0,0,0,0 C3.1,2,3,2.1,3,2.2c0,0,0,0,0,0c0,0,0,0,0,0v13l0.5-0.5c0,0,0.1-0.1,0.2-0.1s0.1,0,0.2,0.1l0.7,0.7l0.7-0.7c0,0,0.1-0.1,0.2-0.1 c0.1,0,0.1,0,0.2,0.1l0.7,0.7L7,14.8c0,0,0.1-0.1,0.2-0.1c0.1,0,0.1,0,0.2,0.1L8,15.5l0.7-0.7c0,0,0.1-0.1,0.2-0.1 c0.1,0,0.1,0,0.2,0.1l0.7,0.7l0.7-0.7c0,0,0.1-0.1,0.2-0.1c0.1,0,0.1,0,0.2,0.1l0.7,0.7l0.7-0.7c0,0,0.1-0.1,0.2-0.1 c0.1,0,0.1,0,0.2,0.1l0.5,0.5v-13C13,2.1,12.9,2,12.8,2h-2.3V1.6h2.3c0.4,0,0.7,0.3,0.7,0.7L13.5,15.9 C13.5,15.8,13.5,15.8,13.5,15.9z M10.2,10.1c-0.2,0-0.4-0.3-0.4-0.7c0-0.4,0.2-0.7,0.4-0.7s0.4,0.3,0.4,0.7 C10.6,9.8,10.4,10.1,10.2,10.1z M6.9,11c0,0.6,0.5,1.1,1.1,1.1c0.6,0,1.1-0.5,1.1-1.1c0-0.1,0.1-0.2,0.2-0.2c0.1,0,0.2,0.1,0.2,0.2 c0,0.8-0.7,1.5-1.5,1.5S6.5,11.8,6.5,11c0-0.1,0.1-0.2,0.2-0.2C6.8,10.7,6.9,10.8,6.9,11z M6.3,1.5l0.3-0.3l1.1,1.1L10,0l0.3,0.3 L7.8,3.1L6.3,1.5z M5.8,10.1c-0.2,0-0.4-0.3-0.4-0.7c0-0.4,0.2-0.7,0.4-0.7s0.4,0.3,0.4,0.7C6.3,9.8,6.1,10.1,5.8,10.1z"/></symbol>
    <symbol id="img-os-ok" 		viewBox="0 0 16 16"><path d="M15.7,15.5H0.3c-0.2,0-0.3-0.1-0.3-0.3v-10c0,0,0,0,0,0v0c0,0,0,0,0,0c0,0,0,0,0-0.1l1.8-4.5c0,0,0,0,0,0 c0-0.1,0.1-0.2,0.2-0.2c0,0,0,0,0,0c0,0,0,0,0,0h11.8c0,0,0,0,0,0c0,0,0,0,0,0c0.1,0,0.2,0.1,0.2,0.2c0,0,0,0,0,0L16,5.1 c0,0,0,0,0,0.1c0,0,0,0,0,0v0c0,0,0,0,0,0v10C16,15.4,15.9,15.5,15.7,15.5z M2.3,1L0.7,4.9h5.6L6.8,1C6.8,1,2.3,1,2.3,1z M7.7,1H7.4 L7,4.9h0.7V1z M8.6,1H8.3v3.9H9L8.6,1z M9.1,5.5H6.9v0.7l1-0.3c0,0,0,0,0,0c0,0,0,0,0.1,0c0,0,0,0,0.1,0c0,0,0,0,0,0l1,0.3L9.1,5.5 L9.1,5.5z M13.7,1H9.2l0.4,3.9h5.6L13.7,1z M15.4,5.5H9.7v1.1c0,0,0,0,0,0c0,0,0,0,0,0c0,0,0,0,0,0c0,0.1-0.1,0.1-0.1,0.1 c0,0,0,0,0,0c0,0-0.1,0-0.2,0c0,0-0.1,0-0.1,0L8,6.5L6.7,6.9c0,0-0.1,0-0.1,0c-0.1,0-0.1,0-0.2,0c0,0,0,0,0,0c0,0-0.1-0.1-0.1-0.1 c0,0,0,0,0,0c0,0,0,0,0,0c0,0,0,0,0,0V5.5H0.6V15h14.8h0V5.5z M11,10.2c-0.3,0-0.6-0.4-0.6-0.9s0.3-0.9,0.6-0.9 c0.3,0,0.6,0.4,0.6,0.9S11.3,10.2,11,10.2z M8,13.5c-1.1,0-2.1-0.9-2.1-2.1c0-0.2,0.1-0.3,0.3-0.3c0.2,0,0.3,0.1,0.3,0.3 c0,0.8,0.7,1.5,1.5,1.5s1.5-0.7,1.5-1.5c0-0.2,0.1-0.3,0.3-0.3s0.3,0.1,0.3,0.3C10.1,12.6,9.1,13.5,8,13.5z M5,10.2 c-0.3,0-0.6-0.4-0.6-0.9S4.7,8.5,5,8.5c0.3,0,0.6,0.4,0.6,0.9S5.4,10.2,5,10.2z"/></symbol>
    <symbol id="img-os-sent" 	viewBox="0 0 16 16"><path d="M8,16C6.2,16,2.4,8.3,2.4,5.6C2.4,2.5,4.9,0,8,0s5.6,2.5,5.6,5.6C13.6,8.3,9.8,16,8,16z M8,0.5 c-2.8,0-5.1,2.3-5.1,5.1c0,2.9,3.8,9.9,5.1,9.9c1.2,0,5.1-7,5.1-9.9C13.1,2.8,10.8,0.5,8,0.5z M10.4,6.1c-0.3,0-0.5-0.3-0.5-0.7 c0-0.4,0.2-0.7,0.5-0.7s0.5,0.3,0.5,0.7C10.9,5.7,10.7,6.1,10.4,6.1z M8,8.7C7.1,8.7,6.3,8,6.3,7c0-0.1,0.1-0.2,0.2-0.2 c0.1,0,0.2,0.1,0.2,0.2c0,0.7,0.5,1.2,1.2,1.2S9.2,7.7,9.2,7c0-0.1,0.1-0.2,0.2-0.2S9.7,6.9,9.7,7C9.7,8,8.9,8.7,8,8.7z M5.6,6.1 c-0.3,0-0.5-0.3-0.5-0.7c0-0.4,0.2-0.7,0.5-0.7s0.5,0.3,0.5,0.7C6.1,5.7,5.8,6.1,5.6,6.1z"/></symbol>
    <symbol id="img-os-hold" 	viewBox="0 0 16 16"><path d="M13.1,15.9c0,0-0.1,0.1-0.1,0.1c0,0-0.1,0-0.2,0c0,0,0,0-0.1,0l-0.7-0.7l-0.7,0.7c-0.1,0.1-0.2,0.1-0.3,0 l-0.7-0.7l-0.7,0.7c-0.1,0.1-0.2,0.1-0.3,0l-0.7-0.7l-0.7,0.7c-0.1,0.1-0.2,0.1-0.3,0l-0.7-0.7l-0.7,0.7c-0.1,0.1-0.2,0.1-0.3,0 l-0.7-0.7l-0.7,0.7c-0.1,0.1-0.2,0.1-0.3,0l-0.7-0.7l-0.7,0.7c0,0,0,0-0.1,0c-0.1,0-0.1,0-0.2,0c0,0-0.1-0.1-0.1-0.1 c0,0,0-0.1,0-0.1V3.2c0,0,0,0,0,0c0,0,0,0,0,0c0-0.3,0.3-0.6,0.6-0.6c0,0,0,0,0,0h2.1V3H3.5c0,0,0,0,0,0C3.4,3,3.3,3.1,3.3,3.2 c0,0,0,0,0,0c0,0,0,0,0,0v12.1l0.5-0.5c0,0,0.1-0.1,0.1-0.1s0.1,0,0.1,0.1l0.7,0.7l0.7-0.7c0,0,0.1-0.1,0.1-0.1c0.1,0,0.1,0,0.1,0.1 l0.7,0.7L7,14.8c0,0,0.1-0.1,0.1-0.1c0.1,0,0.1,0,0.1,0.1L8,15.5l0.7-0.7c0,0,0.1-0.1,0.1-0.1c0.1,0,0.1,0,0.1,0.1l0.7,0.7l0.7-0.7 c0,0,0.1-0.1,0.1-0.1c0.1,0,0.1,0,0.1,0.1l0.7,0.7l0.7-0.7c0,0,0.1-0.1,0.1-0.1c0.1,0,0.1,0,0.1,0.1l0.5,0.5V3.2 c0-0.1-0.1-0.2-0.2-0.2h-2.1V2.6h2.1c0.3,0,0.6,0.3,0.6,0.6L13.1,15.9C13.1,15.8,13.1,15.9,13.1,15.9z M9.8,1.3l0.9-1H9.9V0h1.3v0.2 l-0.9,1h0.9v0.3H9.8L9.8,1.3L9.8,1.3z M10.9,9.8c0.1,0,0.2,0.1,0.2,0.2s-0.1,0.2-0.2,0.2H9.8c-0.1,0-0.2-0.1-0.2-0.2 c0-0.1,0.1-0.2,0.2-0.2H10.9z M9.8,12.1c0,0.1-0.1,0.2-0.2,0.2H6.4c-0.1,0-0.2-0.1-0.2-0.2c0-0.1,0.1-0.2,0.2-0.2h3.2 C9.7,11.9,9.8,12,9.8,12.1z M7,3.4l1.5-1.8H7V1.1h2.2v0.4L7.7,3.4h1.5v0.5H7V3.4z M6.2,10.2H5.1c-0.1,0-0.2-0.1-0.2-0.2 c0-0.1,0.1-0.2,0.2-0.2h1.1c0.1,0,0.2,0.1,0.2,0.2C6.4,10.1,6.3,10.2,6.2,10.2z"/></symbol>
    <symbol id="img-os-cancel"	viewBox="0 0 16 16"><path d="M14,15.9c0,0.1-0.1,0.1-0.1,0.1c-0.1,0-0.1,0-0.2,0c0,0-0.1,0-0.1-0.1l-0.8-0.8l-0.8,0.8 c-0.1,0.1-0.2,0.1-0.3,0l-0.8-0.8l-0.8,0.8C10,16,9.9,16,9.8,15.9L9,15.1l-0.8,0.8c-0.1,0.1-0.2,0.1-0.3,0L7,15.1l-0.8,0.8 C6.1,16,6,16,5.9,15.9l-0.8-0.8l-0.8,0.8C4.2,16,4,16,3.9,15.9l-0.8-0.8l-0.8,0.8c0,0,0,0-0.1,0.1c-0.1,0-0.1,0-0.2,0 C2,16,2,15.9,2,15.9c0,0,0-0.1,0-0.1v-15c0,0,0,0,0,0c0,0,0,0,0,0C1.9,0.3,2.3,0,2.7,0c0,0,0,0,0,0h10.7c0.4,0,0.7,0.3,0.7,0.7 L14,15.9C14.1,15.8,14.1,15.8,14,15.9z M13.6,0.7c0-0.1-0.1-0.2-0.2-0.2H2.7c0,0,0,0,0,0c-0.1,0-0.2,0.1-0.2,0.2c0,0,0,0,0,0 c0,0,0,0,0,0v14.4L3,14.6c0,0,0.1-0.1,0.2-0.1c0.1,0,0.1,0,0.2,0.1l0.8,0.8l0.8-0.8c0,0,0.1-0.1,0.2-0.1c0.1,0,0.1,0,0.2,0.1 l0.8,0.8l0.8-0.8c0,0,0.1-0.1,0.2-0.1c0.1,0,0.1,0,0.2,0.1L8,15.4l0.8-0.8c0,0,0.1-0.1,0.2-0.1c0.1,0,0.1,0,0.2,0.1l0.8,0.8l0.8-0.8 c0,0,0.1-0.1,0.2-0.1c0.1,0,0.1,0,0.2,0.1l0.8,0.8l0.8-0.8c0,0,0.1-0.1,0.2-0.1c0.1,0,0.1,0,0.2,0.1l0.6,0.6L13.6,0.7L13.6,0.7z M7.6,9.3h0.8v0.9H7.6V9.3z M7.6,5.8h0.8v2.8H7.6V5.8z"/></symbol>
    <symbol id="img-bill" 		viewBox="0 0 16 16"><path d="M12.9,5.4H9.2V0.5C9.2,0.2,9,0,8.7,0h-7C1.4,0,1.2,0.2,1.2,0.5v13.5c0,0,0,0,0,0c0,1.1,0.9,1.9,1.9,1.9h7 c1.1,0,1.9-0.9,1.9-1.9v-2.9h2.3c0.3,0,0.5-0.2,0.5-0.5V7.3C14.8,6.2,13.9,5.4,12.9,5.4z M3.1,14.9c-0.5,0-0.9-0.4-0.9-0.9 c0,0,0,0,0,0v-13h5.9v13c0,0.3,0.1,0.6,0.2,0.9H3.1z M11,7.3C11,7.3,11,7.3,11,7.3l0,6.8c0,0.5-0.4,0.9-0.9,0.9 c-0.5,0-0.9-0.4-0.9-0.9V6.4h2C11,6.7,11,7,11,7.3z M13.8,10.2H12V7.3c0,0,0,0,0,0c0-0.5,0.4-0.9,0.9-0.9c0.5,0,0.9,0.4,0.9,0.9 V10.2z M6.5,3.1H3.9c-0.3,0-0.5,0.2-0.5,0.5c0,0.3,0.2,0.5,0.5,0.5h2.5C6.8,4.1,7,3.9,7,3.6C7,3.3,6.8,3.1,6.5,3.1z M6.5,7H3.9 C3.6,7,3.4,7.2,3.4,7.5c0,0.3,0.2,0.5,0.5,0.5h2.5C6.8,8.1,7,7.8,7,7.5C7,7.2,6.8,7,6.5,7z M6.5,10.9H3.9c-0.3,0-0.5,0.2-0.5,0.5 c0,0.3,0.2,0.5,0.5,0.5h2.5C6.8,12,7,11.8,7,11.5C7,11.2,6.8,10.9,6.5,10.9z"/></symbol>
    <symbol id="img-track" 		viewBox="0 0 16 16"><path d="M6.6,5.4C6.8,5.3,6.9,5,6.8,4.7C6.7,4.5,6.4,4.4,6.1,4.5C4.4,5.4,3.7,7.4,4.1,9c0.5,1.9,2.2,3,3.8,3 c0.8,0,1.6-0.2,2.2-0.6c1.4-0.9,2.2-2.6,1.7-4.5c-0.1-0.3-0.4-0.4-0.6-0.3c-0.3,0.1-0.4,0.4-0.3,0.6c0.2,0.5,0.1,1.1,0,1.7 c-0.4,1.4-1.8,2.3-3.2,2.1c-1.1-0.1-2.2-1-2.5-2.1C4.7,7.3,5.6,5.9,6.6,5.4z M13.8,2.5c-0.1-0.2-0.2-0.3-0.3-0.4C12,0.8,10,0,7.9,0 c0,0-0.1,0-0.1,0C7.6,0.1,7.5,0.3,7.5,0.5c0,2.5,0,5,0,7.4c0,0.2,0.1,0.4,0.3,0.5c0.2,0.1,0.4,0,0.6-0.1l5.3-5.3 C13.8,2.9,13.8,2.7,13.8,2.5z M14.8,3.8c-0.1-0.2-0.5-0.3-0.7-0.1c-0.2,0.1-0.3,0.5-0.1,0.7C14.7,5.5,15,7,15,8.4 c-0.2,2.8-2.1,5.4-4.9,6.3c-3,0.9-6.8-0.3-8.4-3.7C1,9.6,0.9,8.1,1.1,6.7c0.6-2.9,2.8-4.9,5.2-5.4c0.1,0,0.2-0.1,0.3-0.2 c0.2-0.2,0.2-0.5,0-0.7C6.6,0.2,6.3,0.1,6.1,0.2C4.2,0.7,1.9,2,0.6,4.8c-1,2.2-1.4,6.8,2.6,9.7c1.2,0.9,2.6,1.4,4.1,1.5 c2.8,0.2,5.7-1.1,7.4-3.7C16,10.3,16.8,6.9,14.8,3.8z"/></symbol>
    <symbol id="img-facebook" 	viewBox="0 0 16 16"><path d="M9.4,16V8.7H12l0.4-2.8H9.4V4c0-0.8,0.2-1.4,1.5-1.4h1.6V0.1c-0.3,0-1.3-0.1-2.4-0.1 c-2.4,0-4,1.3-4,3.7v2.1H3.5v2.8h2.7V16H9.4L9.4,16z"/></symbol>
    <symbol id="img-twitter" 	viewBox="0 0 20 16"><path d="M9.9,5c0,0-5,0-8.5-4.2c0,0-1.9,2.9,1.3,5.4c0,0-1,0-1.9-0.5c0,0-0.2,3,3.2,4c0,0-1,0.3-1.8,0 c0,0,0.5,2.5,3.8,2.8c0,0-2.6,2.1-6.1,1.7c0,0,2.8,1.9,6,1.8C18.1,15.6,18,4,18,4s1.6-1.3,2-2.1c0,0-1.6,0.6-2.3,0.6 c0,0,1.3-0.9,1.8-2.2c0,0-1.8,0.9-2.6,0.9c0,0-1-1.3-3-1.3C11.9,0,9.3,1.6,9.9,5z"/></symbol>
    <symbol id="img-googleplus" viewBox="0 0 25 16"><path d="M21.2,9.9v4.4h-2.9V9.9h-3.9V7.1h3.8V2.9h2.9v4.2H25v2.8L21.2,9.9L21.2,9.9z M6.7,16C6.2,16,0.1,16.1,0,8.6V7.6 C0,6.8-0.1,0,6.4,0c3.7,0,5.7,1.8,6.1,5.2H9.5C9.2,3.4,8.2,2.6,6.6,2.6c-4.1,0-3.3,5.9-3.3,5.9c0,1.6,0.3,2.9,0.9,3.7 c1.2,1.7,4.2,1.5,5.3,0.5V10H6.6V7.6h6.1v6.2C11.5,15.2,9.2,16,6.7,16z"/></symbol>
    <symbol id="img-linkedin" 	viewBox="0 0 16 16"><path d="M14.9,16H1.1C0.5,16,0,15.5,0,14.9V1.1C0,0.5,0.5,0,1.1,0h13.8C15.5,0,16,0.5,16,1.1v13.8 C16,15.5,15.5,16,14.9,16z M2.3,13.7h2.4V6H2.3V13.7z M3.6,2.2c-0.7,0-1.3,0.6-1.3,1.3s0.6,1.3,1.3,1.3c0.7,0,1.3-0.6,1.3-1.3 S4.3,2.2,3.6,2.2z M13.7,10.2c0-3.7-1-4.3-2.8-4.3c-1.4,0-2.1,0.7-2.3,0.9V6H6.3v7.7h2.3V9.9c0-1.4,0.6-2,1.5-2 c0.8,0,1.2,0.7,1.2,2.3v3.5h2.4L13.7,10.2L13.7,10.2z"/></symbol>
    <symbol id="img-pinterest" 	viewBox="0 0 16 16"><path d="M8,16c-0.9,0-1.7-0.1-2.4-0.4c0.2-0.2,0.8-1.1,1-1.8c0.2-0.8,0.6-2.2,0.6-2.2s0.4,0.9,1.8,0.9 s4.1-1.4,4.1-5c0-1.7-1.4-4.5-5-4.5S3,5.5,3,7.8c0,2.3,1.7,3.1,1.7,3.1L5,9.8c0,0-0.7-0.6-0.7-2S5.3,4.4,8,4.4s3.3,2.1,3.3,3.3 s-0.6,3.6-2.6,3.6c-0.9,0-1.2-0.6-1.2-1.2s0.7-2.4,0.7-3S7.9,6,7.3,6S5.8,6.7,5.8,8c0,0.8,0.3,1.2,0.3,1.2s-1,4.1-1,4.9 c0,0.5,0,1.1,0.1,1.4C2.1,14.3,0,11.4,0,8c0-4.4,3.6-8,8-8s8,3.6,8,8S12.4,16,8,16z"/></symbol>
    <symbol id="img-whatsapp" 	viewBox="0 0 16 16"><path d="M8.1,15.6c-1.4,0-2.7-0.4-3.8-1L0,16l1.4-4.2c-0.7-1.2-1.1-2.6-1.1-4C0.3,3.5,3.8,0,8.1,0 C12.5,0,16,3.5,16,7.8C16,12.1,12.5,15.6,8.1,15.6z M8.1,1.2c-3.6,0-6.6,2.9-6.6,6.6c0,1.4,0.5,2.8,1.3,3.8L2,14.1l2.5-0.8 c1,0.7,2.3,1.1,3.6,1.1c3.6,0,6.6-2.9,6.6-6.6C14.7,4.2,11.8,1.2,8.1,1.2z M10.3,11.4c-2.3-0.1-5.9-2.9-6-5.4 C4.2,4.3,5.6,4.2,5.9,4.2c0.4,0,0.4,0.6,1,1.7c0.2,0.4-0.8,1.1-0.5,1.4c0.1,0.2,0.5,0.8,1.1,1.3c0.9,0.9,1.7,1,1.9,0.9 c0.4-0.1,0.5-0.8,1-0.9c0.2,0,1.8,0.7,1.8,0.9C12.2,10.9,11,11.5,10.3,11.4z"/></symbol>
    <symbol id="img-tumblr" 	viewBox="0 0 16 16"><path d="M3.4,4.4c0,0,3.1-1.2,3.1-4.4H9v4h2.9v2.8H9c0,0,0,4,0,4.9c0,2.1,2.8,1.2,2.8,1.2l0.8,2.2 c0,0-1.3,0.9-2.9,0.9c-1.6,0-4.4-1-4.4-4.4s0-4.8,0-4.8H3.4L3.4,4.4L3.4,4.4z"/></symbol>

    <!--
	Ícones opcionais
	* Caso exclua um destes sprites, lembre-se de apagar a chamada nas inserções
	-->
    <symbol id="i-menu"     viewBox="0 0 16 16"><path d="M14.4,3.2H1.6C0.7,3.2,0,2.5,0,1.6v0C0,0.7,0.7,0,1.6,0l12.8,0C15.3,0,16,0.7,16,1.6v0 C16,2.5,15.3,3.2,14.4,3.2z M16,14.4L16,14.4c0-0.9-0.7-1.6-1.6-1.6H1.6c-0.9,0-1.6,0.7-1.6,1.6v0C0,15.3,0.7,16,1.6,16h12.8 C15.3,16,16,15.3,16,14.4z M16,8L16,8c0-0.9-0.7-1.6-1.6-1.6H1.6C0.7,6.4,0,7.1,0,8v0c0,0.9,0.7,1.6,1.6,1.6h12.8 C15.3,9.6,16,8.9,16,8z"/></symbol>
    <symbol id="i-search"   viewBox="0 0 16 16"><path d="M6.9,13.9c1.7,0,3.3-0.6,4.5-1.6l3.6,3.6c0.2,0.2,0.6,0.2,0.9,0c0.2-0.2,0.2-0.6,0-0.9l-3.6-3.6 c1-1.2,1.6-2.8,1.6-4.5c0-3.8-3.1-6.9-6.9-6.9S0,3.1,0,6.9S3.1,13.9,6.9,13.9z M6.9,1.2c3.2,0,5.7,2.6,5.7,5.7c0,1.6-0.6,3-1.7,4.1 c0,0,0,0,0,0c0,0,0,0,0,0c-1,1-2.5,1.7-4.1,1.7c-3.2,0-5.7-2.6-5.7-5.7S3.8,1.2,6.9,1.2z"/></symbol>
    <symbol id="i-cart"     viewBox="0 0 16 16"><path d="M15.2,15.5l-0.9-11c0-0.2-0.2-0.4-0.4-0.4h-2V3.9C11.9,1.8,10.2,0,8,0S4.1,1.8,4.1,3.9v0.2h-2 c-0.2,0-0.4,0.2-0.4,0.4L0.8,15.6c0,0.1,0,0.2,0.1,0.3C1,16,1.1,16,1.2,16h13.7c0,0,0,0,0,0C15,16,15.2,15.8,15.2,15.5 C15.2,15.6,15.2,15.5,15.2,15.5z M4.9,3.9c0-1.7,1.4-3.1,3.1-3.1s3.1,1.4,3.1,3.1v0.2H4.9V3.9z M1.6,15.2L2.5,4.9h1.6v0.6 C3.8,5.7,3.7,5.9,3.7,6.2C3.7,6.7,4,7,4.5,7s0.8-0.4,0.8-0.8c0-0.3-0.2-0.6-0.4-0.7V4.9h6.3v0.6c-0.2,0.1-0.4,0.4-0.4,0.7 c0,0.4,0.4,0.8,0.8,0.8s0.8-0.4,0.8-0.8c0-0.3-0.2-0.6-0.4-0.7V4.9h1.6l0.9,10.3H1.6L1.6,15.2z"/></symbol>
    <symbol id="i-wish"     viewBox="0 0 16 16"><path d="M2,9.2C0.6,7.6,0,5.9,0,4.4C0,1.7,1.5,0,3.8,0C6,0,6.7,1.1,8,2.8C9.3,1.1,10,0,12.2,0 C14.5,0,16,1.7,16,4.4c0,1.5-0.6,3.2-2,4.8L8,16L2,9.2z"/></symbol>
    <symbol id="i-user"     viewBox="0 0 16 16">
        <path class="female" d="M8,0C6.2,0,3.7,1.2,3.7,3.9v1.5C3.1,5.4,2.7,6,2.7,6.6s0.5,1.1,1.1,1.2c-0.1,2.4-0.8,5.6-2.4,6 C1.6,15,2.6,16,3.4,16h9.3c0.5,0,1.8-0.6,2.3-2.2c-1.7-0.3-2.7-3.7-2.7-6c0.6-0.1,1.1-0.6,1.1-1.2s-0.5-1.1-1.1-1.2V3.9 C12.3,1.9,11.4,0,8,0z M8.7,13.3c0,0.6-1.5,0.5-1.5,0v-0.9c0.1,0.1,1.3,0.1,1.5,0V13.3z M12.6,6.6c0,0.3-0.2,0.6-0.6,0.6 c-0.1,0-0.5,0-0.5,0v1.4c0,1.8-1.4,3.2-3.2,3.2H7.6c-1.8,0-3.2-1.4-3.2-3.2V7.1l-0.5,0c-0.3,0-0.6-0.2-0.6-0.6S3.6,6,3.9,6l0.5,0 V4.3c2.9,0.6,3.7-1,4.7-1c1,0,1.6,1.8,1.6,1.8c0.8-0.4,0.8-0.8,0.8-1V6c0,0,0.5,0,0.5,0C12.4,6,12.6,6.3,12.6,6.6z M8,8.2 c0.3,0,0.5-0.2,0.5-0.4c0-0.2-0.2-0.4-0.5-0.4c-0.3,0-0.5,0.2-0.5,0.4C7.5,8,7.7,8.2,8,8.2z M10,6C9.7,6,9.4,6.3,9.4,6.6 S9.7,7.1,10,7.1c0.3,0,0.5-0.2,0.5-0.5S10.3,6,10,6z M6.6,6.6C6.6,6.3,6.3,6,6,6S5.5,6.3,5.5,6.6S5.7,7.1,6,7.1S6.6,6.9,6.6,6.6z M10.1,8.8c-0.2-0.1-0.4,0-0.4,0.2C9.3,9.6,8.7,10,8,10c-0.7,0-1.3-0.4-1.6-1C6.3,8.8,6.1,8.7,5.9,8.8C5.7,8.8,5.7,9,5.7,9.2 C6.2,10.1,7,10.7,8,10.7c1,0,1.8-0.6,2.3-1.4C10.3,9,10.3,8.8,10.1,8.8z"/>
        <path class="male" d="M8,0C6.2,0,3.7,1.2,3.7,3.9v1.5C3.1,5.4,2.7,6,2.7,6.6s0.5,1.1,1.1,1.2v0.7c0,1.8,1.2,3.3,2.9,3.8 v0.3c-2.8,0-3.8,3.4-3.8,3.4h10.5c0,0-1.2-3.4-3.8-3.4v-0.3c1.6-0.5,2.9-2,2.9-3.8V7.8c0.6-0.1,1.1-0.6,1.1-1.2s-0.5-1.1-1.1-1.2 V5.1c2-0.4,2.2-1.4,2.2-1.8C12.8,3.6,11.4,0,8,0z M8.7,13.3c0,0.6-1.5,0.5-1.5,0v-0.9c0.1,0.1,1.3,0.1,1.5,0V13.3z M12.6,6.6 c0,0.3-0.2,0.6-0.6,0.6c-0.1,0-0.5,0-0.5,0v1.4c0,1.8-1.4,3.2-3.2,3.2H7.6c-1.8,0-3.2-1.4-3.2-3.2V7.1l-0.5,0 c-0.3,0-0.6-0.2-0.6-0.6S3.6,6,3.9,6l0.5,0l0.8-2.2C6,4.3,7.8,5.5,11.6,5.2V6c0,0,0.5,0,0.5,0C12.4,6,12.6,6.3,12.6,6.6z M8,8.2 c0.3,0,0.5-0.2,0.5-0.4c0-0.2-0.2-0.4-0.5-0.4c-0.3,0-0.5,0.2-0.5,0.4C7.5,8,7.7,8.2,8,8.2z M10,6C9.7,6,9.4,6.3,9.4,6.6 S9.7,7.1,10,7.1c0.3,0,0.5-0.2,0.5-0.5S10.3,6,10,6z M6.6,6.6C6.6,6.3,6.3,6,6,6S5.5,6.3,5.5,6.6S5.7,7.1,6,7.1S6.6,6.9,6.6,6.6z M10.1,8.8c-0.2-0.1-0.4,0-0.4,0.2C9.3,9.6,8.7,10,8,10c-0.7,0-1.3-0.4-1.6-1C6.3,8.8,6.1,8.7,5.9,8.8C5.7,8.8,5.7,9,5.7,9.2 C6.2,10.1,7,10.7,8,10.7c1,0,1.8-0.6,2.3-1.4C10.3,9,10.3,8.8,10.1,8.8z"/>
    </symbol>

    <!-- Tema Maranatha -->
    <symbol viewBox="0 0 26.01 29" id="z-box" xmlns="http://www.w3.org/2000/svg"><g data-name="Camada 2"><path d="M26 3.93V1.45A1.45 1.45 0 0024.56 0H1.46A1.44 1.44 0 000 1.45v2.42a.13.13 0 000 .06V4l2.4 8.54-2.35 6.14a.29.29 0 000 .09.22.22 0 000 .08v8.83a1.42 1.42 0 00.27 1.07A.92.92 0 001 29h23.56A1.45 1.45 0 0026 27.55v-8.78a.29.29 0 000-.09l-2.35-6.14L26 4zm-3.34 8.51v.05a.38.38 0 000 .1v.1a.09.09 0 000 .05l2.15 5.63H1.2l2-5.32h4.65A6.74 6.74 0 006.43 16h-1.6a.49.49 0 000 1h6.26a.49.49 0 000-1H9.44a3.85 3.85 0 017.14 0h-1.64a.49.49 0 100 1h6.25a.49.49 0 000-1h-1.6a6.74 6.74 0 00-1.42-2.9h3a.49.49 0 000-1h-4a6.57 6.57 0 00-3.09-1.35l2.16-2.17a.48.48 0 000-.68l-1.93-1.96A.48.48 0 0014 5.8h-1.95a.48.48 0 00-.34.14L9.78 7.88a.48.48 0 000 .68l2.16 2.17a6.57 6.57 0 00-3.09 1.35H3.27L1.13 4.35h23.76zM13 7.73h-1.72l1-1h1.52l1.45 1.45L13 10.43 11.28 8.7H13a.49.49 0 000-1zm0 3.87a5.78 5.78 0 015.6 4.4h-1a4.81 4.81 0 00-9.18 0h-1A5.78 5.78 0 0113 11.6zM1 1.45A.47.47 0 011.46 1h23.1a.47.47 0 01.48.48v1.9H1zm24 26.1a.48.48 0 01-.48.49H1v-8.7h24z" data-name="Camada 1"/></g></symbol>
    <symbol viewBox="0 0 16 20" id="z-cart" xmlns="http://www.w3.org/2000/svg"><g data-name="Camada 2"><path d="M15.06 6.07a.7.7 0 00-.7-.66H12V4a4 4 0 00-8 0v1.41H1.65a.72.72 0 00-.71.66L0 19.24v.06a.71.71 0 00.71.7h14.64a.71.71 0 00.65-.76zM5.41 4a2.59 2.59 0 015.18 0v1.41H5.41zM1.47 18.59l.84-11.77H4v2.83a.7.7 0 00.71.7.7.7 0 00.7-.7V6.82h5.18v2.83a.7.7 0 00.71.7.7.7 0 00.7-.7V6.82h1.7l.84 11.77z" data-name="Camada 1"/></g></symbol>
    <symbol viewBox="0 0 25 29" id="z-certified" xmlns="http://www.w3.org/2000/svg"><g data-name="Camada 2"><path d="M21.39 14.57a.7.7 0 00.17-.44.68.68 0 00-.22-.49.71.71 0 00-.46-.17h-.12a.67.67 0 00-.37.22l-3.45 3.75L15.47 16a.66.66 0 00-.47-.19.7.7 0 00-.49.2.65.65 0 00-.19.46.67.67 0 00.2.47l2 1.9a.7.7 0 00.47.19.69.69 0 00.48-.2l3.92-4.29zm-3.45 8.3A7 7 0 0025 16a6.78 6.78 0 00-3.56-5.92V.66a.67.67 0 00-.67-.66H.55A.66.66 0 000 .65v23.24a.66.66 0 00.68.65h11.13a.65.65 0 00.67-.65.65.65 0 00-.66-.66H1.35V1.32h18.74v8.22a7.27 7.27 0 00-2.15-.33 7.14 7.14 0 00-5 2 6.66 6.66 0 00.87 10.35v6.79a.67.67 0 00.68.65.7.7 0 00.37-.11l3.08-2 3.06 2a.73.73 0 00.38.11.68.68 0 00.56-.29.77.77 0 00.12-.36v-4.22a.67.67 0 00-.67-.66.67.67 0 00-.68.65v3l-2.4-1.56a.62.62 0 00-.37-.11.64.64 0 00-.37.11l-2.4 1.56V22.3a7.07 7.07 0 002.77.57zm-4-2.93a5.42 5.42 0 010-7.81 5.87 5.87 0 018.08 0 5.4 5.4 0 010 7.81 5.85 5.85 0 01-8.08 0zM7.13 14a.67.67 0 00.68-.65.67.67 0 00-.67-.66H3.72a.67.67 0 00-.62.66v.06a.67.67 0 00.67.6h3.36zm-4-6.83a.68.68 0 00.68.63h13.83a.66.66 0 00.67-.65.66.66 0 00-.66-.66H3.76a.66.66 0 00-.64.66zm7.34 3.73a.66.66 0 00.67-.65.66.66 0 00-.66-.66H3.72a.67.67 0 00-.62.66v.06a.67.67 0 00.67.6h6.68zM3.8 4.65h8.44a.67.67 0 00.68-.65.67.67 0 00-.67-.66H3.81a.67.67 0 00-.68.66.67.67 0 00.67.65z" data-name="Camada 1"/></g></symbol>
    <symbol viewBox="0 0 11.99 7.99" id="z-check" xmlns="http://www.w3.org/2000/svg"><g data-name="Camada 2"><path d="M11.83.33a.77.77 0 01-.18 1.12A56.43 56.43 0 005 7.71a.83.83 0 01-.6.28.86.86 0 01-.59-.23L.26 4.53a.77.77 0 010-1.14.87.87 0 011.19 0L4.35 6A50.76 50.76 0 0110.64.16a.87.87 0 011.19.17z" data-name="Camada 1"/></g></symbol>
    <symbol viewBox="0 0 18.01 30" id="z-custom" xmlns="http://www.w3.org/2000/svg"><g data-name="Camada 2"><path d="M15.72 18.8c-.17-1.43-2.67-1.49-2.9-1.49L11.13 17l-.55-2.17A5.87 5.87 0 0013 13.54l.15-.05H18l-.79-.63a5.74 5.74 0 01-1.54-2.47h.06a.91.91 0 00.91-.91v-2.7A.91.91 0 0016 5.9 6.8 6.8 0 009 0a6.79 6.79 0 00-7 5.9.91.91 0 00-.66.88v2.74a.91.91 0 00.91.91A5.74 5.74 0 01.79 12.9l-.79.63h4.88l.16.05a5.9 5.9 0 002.37 1.32L6.88 17l-1.64.28c-.28 0-2.78.06-3 1.51l-.5 7.23L1.71 30H16.3l-.07-4zm-2.08-6a6 6 0 001.19-2.55h.06a8.32 8.32 0 001.28 2.52zM3.78 7.1a5.28 5.28 0 014.88-4.82.33.33 0 000 .1 5.13 5.13 0 01-1.57 3.15A5 5 0 013.78 7.1zm5.58-4.82a5.28 5.28 0 014.87 4.82 5 5 0 01-3.31-1.57 5.14 5.14 0 01-1.56-3.15zM16 9.52a.21.21 0 01-.21.21h-.29c-.13-.41-.23-.8-.31-1.14V6.78a.22.22 0 01.22-.22h.38a.21.21 0 01.21.22zM9 .7a6.11 6.11 0 016.27 5.17.87.87 0 00-.53.22 5.92 5.92 0 00-11.51 0 .82.82 0 00-.5-.2A6.11 6.11 0 019 .7zm-6.72 9a.22.22 0 01-.22-.22v-2.7a.22.22 0 01.22-.22h.38a.22.22 0 01.22.22v1.71c-.09.36-.19.79-.33 1.24H2.3zm.82.58h.06a5.88 5.88 0 001.2 2.56H1.83a8.42 8.42 0 001.29-2.52zm.63-1.27v-1.2A5.7 5.7 0 007.59 6 6.37 6.37 0 009 3.91 6.5 6.5 0 0010.42 6a5.7 5.7 0 003.84 1.78v1.65c-.25 1.43-1.15 2.81-3.68 3v-.34H9.1v.7h.9v.37a5.78 5.78 0 003.1-.77 5.2 5.2 0 01-4.1 2 5.3 5.3 0 01-5.25-5.34zm3.7 8.6L8.11 15a6.54 6.54 0 00.89.07 6.56 6.56 0 00.9-.07l.66 2.64 1.12.18-.42.26-2.26.03H6.75l-.42-.26zM3 18.88c.08-.64 1.54-.86 2.3-.87l1.26.79h4.92l1.27-.8c.71 0 2.19.23 2.27.86l.5 7.19v.08h-1.85v-1.4H13v4.57H5v-4.56h-.7v1.4H2.48v-.06zm-.51 8h1.85v2.42H2.42zm11.2 2.45v-2.48h1.87v2.45z" data-name="Camada 1"/></g></symbol>
    <symbol viewBox="0 0 36.01 36" id="z-factory" xmlns="http://www.w3.org/2000/svg"><g data-name="Camada 2"><path d="M35.83 4.38a.56.56 0 00-.42-.18h-4.2V0H30v4.2h-1.2V1.8h-1.2v2.4h-1.2V1.8h-1.2v2.4h-4.8a.58.58 0 00-.42.18.6.6 0 00-.18.42v1.8h-.6a1.81 1.81 0 00-1.8 1.8V17l-3.6 2.29V12a.61.61 0 00-.31-.53.62.62 0 00-.62 0L7.8 14.88V4.2h.6a.6.6 0 00.43-.2.59.59 0 00.17-.4v-3a.59.59 0 00-.17-.42A.6.6 0 008.4 0h-6a.56.56 0 00-.4.18.56.56 0 00-.2.42v3A.56.56 0 002 4a.56.56 0 00.42.18H3v13.9L.27 19.9l-.06.1a.42.42 0 00-.09.14.78.78 0 000 .21H0v15a.56.56 0 00.18.42.56.56 0 00.42.23h34.81a.56.56 0 00.42-.18.6.6 0 00.17-.42V4.8a.6.6 0 00-.17-.42zM18.6 8.4a.6.6 0 01.6-.6h.6v7.69l-1.2.76zM3 1.2h4.8V3H3zm3.6 3v11.48l-2.4 1.6V4.2zm6 8.92v6.68h-10zm0 21.68H9v-6.6h3.6zm4.8 0h-3.6v-6.6h3.6zm8.41 0H18.6v-7.2a.59.59 0 00-.17-.42A.58.58 0 0018 27H8.4a.56.56 0 00-.42.18.6.6 0 00-.18.42v7.2H1.2V21h24.61zm0-15H15.26l10.55-6.71zm9 15H27V12a.6.6 0 00-.32-.53.63.63 0 00-.61 0L21 14.73V5.4h13.81zM3 26.4h21a.58.58 0 00.43-.18.59.59 0 00.17-.42v-3a.59.59 0 00-.17-.42.58.58 0 00-.43-.18H3a.56.56 0 00-.42.18.56.56 0 00-.18.42v3a.56.56 0 00.18.42.56.56 0 00.42.18zm18.6-3h1.8v1.8h-1.8zm-3 0h1.8v1.8h-1.8zm-3 0h1.8v1.8h-1.8zm-3 0h1.8v1.8h-1.8zm-3 0h1.8v1.8H9.6zm-3 0h1.8v1.8H6.6zm-3 0h1.8v1.8H3.6zm28.81-12h-3a.58.58 0 00-.43.18.59.59 0 00-.17.42v3a.59.59 0 00.17.42.58.58 0 00.43.18h3a.58.58 0 00.42-.18A.6.6 0 0033 15v-3a.6.6 0 00-.18-.42.58.58 0 00-.41-.18zm-.6 3H30v-1.8h1.8zm.6 2.4h-3a.58.58 0 00-.41.2.59.59 0 00-.17.42v3a.59.59 0 00.17.42.58.58 0 00.43.18h3a.58.58 0 00.42-.18.6.6 0 00.15-.44v-3a.6.6 0 00-.18-.42.58.58 0 00-.41-.18zm-.6 3H30V18h1.8zm.6 2.4h-3a.58.58 0 00-.43.18.59.59 0 00-.17.42v3a.59.59 0 00.17.42.58.58 0 00.43.18h3a.58.58 0 00.42-.18.6.6 0 00.17-.42v-3a.6.6 0 00-.18-.42.58.58 0 00-.41-.18zm-.6 3H30v-1.8h1.8zm.6 2.4h-3a.58.58 0 00-.43.18.59.59 0 00-.17.42v3a.59.59 0 00.17.42.58.58 0 00.43.18h3a.58.58 0 00.42-.18.6.6 0 00.17-.42v-3a.6.6 0 00-.18-.42.58.58 0 00-.41-.18zm-.6 3H30v-1.8h1.8zm-9-20.4h10.8A.58.58 0 0034 10a.6.6 0 00.18-.42V7.2a.6.6 0 00-.18-.42.58.58 0 00-.42-.18H22.8a.58.58 0 00-.42.18.6.6 0 00-.18.42v2.4a.6.6 0 00.18.42.58.58 0 00.42.18zm.6-2.4H33V9h-9.6zM12 30.6h-1.2v1.2H12zm3.6 0h-1.2v1.2h1.2z" data-name="Camada 1"/></g></symbol>
    <symbol viewBox="0 0 11 1.07" id="z-less" xmlns="http://www.w3.org/2000/svg"><g data-name="Camada 2"><path d="M0 .53A.53.53 0 01.53 0h9.93a.54.54 0 110 1.07H.53A.54.54 0 010 .53z" data-name="Camada 1"/></g></symbol>
    <symbol viewBox="0 0 38 52" id="z-map" xmlns="http://www.w3.org/2000/svg"><g data-name="Camada 2"><g data-name="Camada 1"><path d="M19 10.32a6.89 6.89 0 00-4.87 11.76 6.86 6.86 0 009.72 0A6.89 6.89 0 0019 10.32zm2.4 9.28a3.38 3.38 0 01-4.78 0 3.38 3.38 0 114.8 0z"/><path d="M32.44 5.57A19 19 0 000 19c0 8.79 4.88 15 10.2 21.8a88.16 88.16 0 017.27 10.29 1.77 1.77 0 003.05 0 88.48 88.48 0 017.28-10.27C33.12 34 38 27.81 38 19a18.94 18.94 0 00-5.56-13.43zm-7.39 33.1C23 41.27 20.91 44 19 46.9c-1.91-2.9-4-5.63-6-8.23C8 32.39 3.51 26.62 3.51 19a15.49 15.49 0 1131 0c-.02 7.62-4.51 13.39-9.46 19.67z"/></g></g></symbol>
    <symbol viewBox="0 0 25 25" id="z-menu" xmlns="http://www.w3.org/2000/svg"><g data-name="Camada 2"><path d="M17.38 7.32H7.62a.92.92 0 000 1.83h9.76a.92.92 0 000-1.83zm0 4.27H7.62a.91.91 0 000 1.82h9.76a.91.91 0 100-1.82zm0 4.26H7.62a.92.92 0 000 1.83h9.76a.92.92 0 000-1.83zM12.5 0A12.5 12.5 0 1025 12.5 12.5 12.5 0 0012.5 0zm0 23.17A10.67 10.67 0 1123.17 12.5 10.67 10.67 0 0112.5 23.17z" data-name="Camada 1"/></g></symbol>
    <symbol viewBox="0 0 11 11" id="z-more" xmlns="http://www.w3.org/2000/svg"><g data-name="Camada 2"><path d="M0 5.5A.54.54 0 01.53 5H5V.53a.54.54 0 011 0V5h4.43a.54.54 0 110 1.07H6v4.43a.54.54 0 11-1.07 0V6H.53A.53.53 0 010 5.5z" data-name="Camada 1"/></g></symbol>
    <symbol viewBox="0 0 28 28" id="z-recording" xmlns="http://www.w3.org/2000/svg"><g data-name="Camada 2"><path d="M22 9.52a19.21 19.21 0 01-2.47-2.21 9.72 9.72 0 001.31.09 7 7 0 00.83-.05A2.47 2.47 0 0024 8.71a4.1 4.1 0 004-4.29 4.07 4.07 0 00-1.31-3A6 6 0 0022.54 0h-.14c-5.22.06-6.92 3.75-6.92 5.55l-.4-.13A24.54 24.54 0 007.63 4a8.48 8.48 0 00-5.84 1.84A5.59 5.59 0 000 10c0 2.76 1.94 5.74 5.07 5.74a3.72 3.72 0 003.06-1.37.36.36 0 00-.1-.51.39.39 0 00-.52.09A3 3 0 015.06 15C3 15 .75 13.09.75 10A4.84 4.84 0 012.3 6.38a7.7 7.7 0 015.32-1.69 24 24 0 017.22 1.46l.69.21c.32 2.64 2.18 4.5 4 6.29s3.56 3.56 3.56 6A6.33 6.33 0 0122 22.4a12.9 12.9 0 00.17-2 8.16 8.16 0 00-3.85-6.64 6 6 0 00-5.83-.47 5.46 5.46 0 00-3 6.36c.6 2.58 3 5.61 8 5.61h.11a15.51 15.51 0 002.9-.31 16.54 16.54 0 01-1.06 2.45.36.36 0 00.14.5.31.31 0 00.18.05.37.37 0 00.33-.19 17.13 17.13 0 001.28-3 9.38 9.38 0 004-2.12 6.34 6.34 0 001.95-4.81c.08-3.94-2.81-6.26-5.32-8.31zm.25-3.1c0-.89.61-1.88 1.42-1.88.22 0 .22.33.22.37A1.5 1.5 0 0123.21 6a2.78 2.78 0 01-1 .49zm.26-5.68a5.29 5.29 0 013.66 1.16 3.38 3.38 0 011.08 2.52A3.36 3.36 0 0124 8a1.69 1.69 0 01-1.63-.76 3.64 3.64 0 001.3-.63 2.21 2.21 0 00.91-1.66 1 1 0 00-1-1.12 2 2 0 00-1.58.84 2.91 2.91 0 00-.59 1.75v.21a4.5 4.5 0 01-.66 0 10.5 10.5 0 01-1.91-.2 2.49 2.49 0 01-.35-1.23 4.55 4.55 0 011.24-3.46 4.13 4.13 0 012.62-1zM10.29 19.5a4.69 4.69 0 012.54-5.5 5.19 5.19 0 012.17-.5 5.62 5.62 0 013 .9 7.39 7.39 0 013.49 6 13.17 13.17 0 01-.38 3 5.66 5.66 0 01-3.48 1.13c-4.58.02-6.81-2.7-7.34-5.03z" data-name="Camada 1"/></g></symbol>
    <symbol viewBox="0 0 19 22" id="z-ring" xmlns="http://www.w3.org/2000/svg"><g data-name="Camada 2"><path d="M11.33 3.15l2.26-1.83a.69.69 0 00.22-.81.77.77 0 00-.66-.51h-7.3a.7.7 0 00-.66.51.84.84 0 00.22.81l2.26 1.83a9.5 9.5 0 103.66 0zM9.5 20.53a8.07 8.07 0 118-8.06 8 8 0 01-8 8.06z" data-name="Camada 1"/></g></symbol>
    <symbol viewBox="0 0 27 19" id="z-ruler" xmlns="http://www.w3.org/2000/svg"><g data-name="Camada 2"><path d="M26.43 11.29h-5.55V4.74a2 2 0 00-.06-.48C20.26 1.83 16 0 11 0h-1C4 .29 0 2.56 0 5.67v6.55a3 3 0 00.08.66C.92 16.54 6.45 19 13.84 19h12.59a.58.58 0 00.57-.58v-6.55a.58.58 0 00-.57-.58zm-12.59 0a24.94 24.94 0 01-6.66-.84V7.17a8.34 8.34 0 003.64 1.28 13.1 13.1 0 002 .15h.66a11.32 11.32 0 006.27-1.8v4.5zm-1-7.57h.48l.25.06a2.42 2.42 0 011.6.94v2.51a15.75 15.75 0 01-1.83.19h-.61a12.25 12.25 0 01-1.64-.1C8.93 7 7.37 6.2 7.19 5.39a.25.25 0 010-.09c0-.6 1.43-1.55 4-1.67h.4a9.43 9.43 0 011.11.07zM10 1.19h.93c3.85 0 8.28 1.36 8.74 3.37a.76.76 0 010 .21c0 .82-1.24 1.74-3.35 2.27V4.83a.65.65 0 000-.24c-.25-1.1-1.65-1.75-3.2-2a9 9 0 00-1.56-.13h-.46C8.13 2.61 6 3.77 6 5.3a.81.81 0 000 .16v4.62c-2.65-.93-4.45-2.35-4.84-4a1.72 1.72 0 010-.39C1.15 3.27 4.8 1.42 10 1.19zm15.85 16.65h-2.68v-2a.57.57 0 10-1.14 0v2h-2.44v-2a.58.58 0 10-1.15 0v2h-2.56v-2a.58.58 0 10-1.15 0v2h-.89c-.57 0-1.12 0-1.66-.05v-2a.58.58 0 00-.58-.58.57.57 0 00-.57.58v1.91a24.13 24.13 0 01-2.56-.39v-2a.58.58 0 10-1.15 0V17a15.93 15.93 0 01-2.56-.91V14a.57.57 0 00-.57-.58.58.58 0 00-.58.58v1.5a5 5 0 01-2.42-2.89 1.72 1.72 0 010-.39V8.41l.12.13a7.4 7.4 0 00.56.56c2.33 2.08 6.68 3.35 12 3.35h12z" data-name="Camada 1"/></g></symbol>
    <symbol viewBox="0 0 20 25.04" id="z-security" xmlns="http://www.w3.org/2000/svg"><g data-name="Camada 2"><path d="M18 3.93a9.22 9.22 0 01-5.9-2.8l-.49-.5a2.28 2.28 0 00-3.15 0l-.46.5a9.27 9.27 0 01-5.9 2.8A2.25 2.25 0 000 6.19v2.88a18.13 18.13 0 008.9 15.68 2.23 2.23 0 002.2 0A18.13 18.13 0 0020 9.07V6.19a2.26 2.26 0 00-2-2.26zM10.31 23.3a.62.62 0 01-.62 0 16.45 16.45 0 01-8.1-14.23V6.19a.63.63 0 01.56-.63 10.79 10.79 0 006.9-3.27l.49-.5a.59.59 0 01.46-.18.67.67 0 01.44.18l.49.5a10.86 10.86 0 006.89 3.27.63.63 0 01.57.63v2.88h.05a16.39 16.39 0 01-8.13 14.23zM13 9.2V7.8a2.61 2.61 0 00-2.57-2.63h-.79A2.6 2.6 0 007.08 7.8v1.4a2.58 2.58 0 00-1.8 2.48V15a2.55 2.55 0 002.51 2.58h4.42A2.55 2.55 0 0014.72 15v-3.32A2.59 2.59 0 0013 9.2zM8.67 7.8a1 1 0 011-1h.74a1 1 0 011 1v1.27H8.67zm4.46 7.2a.93.93 0 01-.92.95H7.79a.93.93 0 01-.92-.95v-3.32a.93.93 0 01.92-.95h4.42a.93.93 0 01.92.95zM11 12.6a1 1 0 00-.95-.95.93.93 0 00-.92.95 1 1 0 00.46.82l-.31 1.24a.36.36 0 000 .26.24.24 0 00.23.1h1a.31.31 0 00.23-.1.3.3 0 000-.26l-.3-1.24a1 1 0 00.56-.82z" data-name="Camada 1"/></g></symbol>
    <symbol viewBox="0 0 24.02 23" id="z-send" xmlns="http://www.w3.org/2000/svg"><g data-name="Camada 2"><path d="M7.34 11.5a.67.67 0 00.66-.68V1.35h4v4.06a.67.67 0 00.67.68h4a.67.67 0 00.67-.68V1.35h4v10.83a.67.67 0 001.34 0V.68A.67.67 0 0022 0H7.34a.67.67 0 00-.67.68v10.14a.67.67 0 00.67.68zm6-10.15H16v3.39h-2.65zm10.53 13.43a1.8 1.8 0 00-.46-.64 1.73 1.73 0 00-1.41-.42l-6 .87a2 2 0 00-1.57-2.37 1.75 1.75 0 00-.4 0H8a.73.73 0 00-.35.09l-2.31 1.38v-.84a.67.67 0 00-.67-.67h-4a.67.67 0 00-.67.67v9.47a.67.67 0 00.67.68h4a.67.67 0 00.67-.68v-.67h7.34a.66.66 0 00.27-.06l10-4.44a1.8 1.8 0 00.92-2.37zM4 21.65H1.33v-8.12H4zm18.42-5.74l-9.88 4.38h-7.2v-5l2.85-1.74H14a.67.67 0 01.67.68.66.66 0 01-.56.65H9.34a.68.68 0 000 1.36h5.14l7.7-1.12a.47.47 0 01.36.1.49.49 0 01.15.34.45.45 0 01-.27.35z" data-name="Camada 1"/></g></symbol>
    <symbol viewBox="0 0 23 28.94" id="z-stone" xmlns="http://www.w3.org/2000/svg"><g data-name="Camada 2"><path d="M21.24 28l-2.43-1.93a.51.51 0 00-.31-.07h-1.56a10.44 10.44 0 00-2.3-19.71 2.67 2.67 0 00-.64-.78l.61-1.32a.49.49 0 00-.24-.66l-.45-.21.62-1.32a.5.5 0 00-.25-.66L11.57.05a.5.5 0 00-.67.24l-.63 1.36-.45-.21a.5.5 0 00-.38 0 .45.45 0 00-.28.26L5.4 9.83a.49.49 0 00.24.66l.45.21-.63 1.36a.51.51 0 00.25.66L8.43 14a.54.54 0 00.21 0 .52.52 0 00.46-.29l.63-1.37.45.21a.54.54 0 00.21 0 .47.47 0 00.17 0 .48.48 0 00.28-.26L12 9.94a2.44 2.44 0 00.55.06 2.49 2.49 0 002-1.05A7.8 7.8 0 116.1 21h1.4a.49.49 0 00.5-.49v-2a.5.5 0 00-.5-.5h-7a.5.5 0 00-.5.5v2a.49.49 0 00.5.49H3a10.49 10.49 0 005 5H6.5a.51.51 0 00-.31.11l-2.5 2a.48.48 0 00-.16.55A.51.51 0 004 29h17a.5.5 0 00.5-.5.49.49 0 00-.26-.5zM11.6 1.16l1.82.84-.42.9-1.81-.83zm-3.2 11.7L6.58 12l.42-.9 1.81.9zm1.75-1.4l-3.06-1.4L7 10l-.45-.2 3.31-7.24 3.63 1.66-.4.87A2.6 2.6 0 0012.5 5a2.49 2.49 0 00-2.22 1.37 2.35 2.35 0 00-.17.44v.09a2.43 2.43 0 00-.07.55 2.38 2.38 0 00.1.65c0 .07.05.14.07.2a2.09 2.09 0 00.19.4l.1.3a3.48 3.48 0 00.26.3 1.54 1.54 0 00.19.17l.09.08zm3.7-3.31a1.51 1.51 0 01-2 .72A1.49 1.49 0 0112.5 6a1.43 1.43 0 01.64.15 1.46 1.46 0 01.73.74 1.33 1.33 0 01.13.61 1.37 1.37 0 01-.15.65zM1 20v-1h6v1H1zm3.14 1h.76A8.82 8.82 0 1015 8a2.84 2.84 0 000-.49v-.17A9.47 9.47 0 114.14 21zm1.29 7l1.25-1h11.65l1.25 1zM12.5 6.85a.63.63 0 10.63.63.63.63 0 00-.63-.63zm0 1a.38.38 0 01-.37-.37.37.37 0 11.37.37z" data-name="Camada 1"/></g></symbol>
    <symbol viewBox="0 0 16 20.68" id="z-user" xmlns="http://www.w3.org/2000/svg"><g data-name="Camada 2"><g data-name="Camada 1"><path d="M8 11.64A8.16 8.16 0 000 20a.71.71 0 00.7.72h14.6A.71.71 0 0016 20a8.16 8.16 0 00-8-8.36zm-6.54 7.59A6.65 6.65 0 018 13.08a6.65 6.65 0 016.54 6.15z"/><circle cx="8" cy="5" r="5"/></g></g></symbol>
    <symbol viewBox="0 0 25.99 29.01" id="z-wedding" xmlns="http://www.w3.org/2000/svg"><g data-name="Camada 2"><path d="M11.39 16a17.43 17.43 0 00.2-7v-.19a.08.08 0 000-.05.16.16 0 00-.05-.11c-.89-5.2-3.45-9-5.9-8.64a2.38 2.38 0 00-1.17.55A2.51 2.51 0 003.21.39C2 .58 1 1.79.45 3.8a17.44 17.44 0 00-.2 6.94c.8 5.14 3.23 9 5.64 9a1.84 1.84 0 00.33 0 2.26 2.26 0 001.14-.53 2.38 2.38 0 00.93.19h.34c1.24-.22 2.22-1.4 2.76-3.4zm-5.26 3.15a1.88 1.88 0 01-.9-.12.15.15 0 00.13-.15.15.15 0 00-.15-.15.16.16 0 00-.16.15.13.13 0 000 .09 3.28 3.28 0 01-1-.7.11.11 0 000-.06.15.15 0 00-.05-.15h-.06c-.14-.16-.29-.32-.43-.51a.16.16 0 00-.15-.16 10.68 10.68 0 01-.66-1.06.16.16 0 00.16-.15.15.15 0 00-.14-.18.14.14 0 00-.13.11A11.7 11.7 0 012 15h.06a.16.16 0 00.16-.16.16.16 0 00-.16-.15.15.15 0 00-.06.11c-.15-.38-.29-.77-.42-1.18a.14.14 0 00.09-.12.16.16 0 00-.16-.16c-.05-.16-.08-.34-.12-.5a.15.15 0 00.14.13.16.16 0 00.16-.16.16.16 0 00-.16-.15.15.15 0 00-.15.15c-.12-.43-.24-.86-.33-1.31a.1.1 0 000-.08c0-.15 0-.31-.08-.46A.16.16 0 001 10.8a.16.16 0 00-.16-.15v-.39H.9a.16.16 0 00.1-.13.15.15 0 00-.14-.13.17.17 0 00-.1 0c0-.18 0-.36-.05-.54a.15.15 0 00.15.14.16.16 0 00.14-.15.16.16 0 00-.14-.15.16.16 0 00-.15.14 17.4 17.4 0 010-4 .15.15 0 00.13.09.16.16 0 00.16-.12.16.16 0 00-.16-.15.18.18 0 00-.1 0c0-.14 0-.28.07-.42a.16.16 0 00.19-.1.14.14 0 00-.12-.14c0-.17.07-.32.11-.48S1 4 1 4a7.18 7.18 0 01.39-1.11h.06a.16.16 0 00.16-.15.15.15 0 00-.1-.13A3.4 3.4 0 012.6 1.29a.19.19 0 000 .08.16.16 0 00.15.16.16.16 0 00.16-.16.16.16 0 00-.16-.15H2.7A1.63 1.63 0 013.3 1h.24A1.76 1.76 0 014 1a4.86 4.86 0 00-.57.89.19.19 0 00-.08 0 .16.16 0 00-.15.16.15.15 0 00.1.13 8.7 8.7 0 00-.42 1.19.15.15 0 00-.15-.13.15.15 0 00-.15.15.16.16 0 00.15.16.17.17 0 00.12 0c0 .13-.07.27-.11.42a.16.16 0 00-.15.16.14.14 0 00.1.13l-.09.5a18.27 18.27 0 000 5.27.18.18 0 000 .1.15.15 0 00.07.12v.41a.15.15 0 00-.14.14.16.16 0 00.15.16c0 .15.05.3.08.45a.13.13 0 00-.12-.07.16.16 0 00-.15.16.15.15 0 00.15.15.16.16 0 00.15-.13c.13.64.29 1.26.47 1.85a.15.15 0 00-.15.15.15.15 0 00.15.15.24.24 0 00.09 0c.13.39.27.78.42 1.14v.08a.16.16 0 00.13.15 11.39 11.39 0 00.53 1.11.18.18 0 000 .09.15.15 0 00.16.15 11.14 11.14 0 00.69 1.08.12.12 0 00-.08 0 .16.16 0 00-.16.16.16.16 0 00.16.15.15.15 0 00.15-.15.14.14 0 000-.06 5.48 5.48 0 00.48.58.16.16 0 00-.15.15.15.15 0 00.16.15.15.15 0 00.16-.23 4.82 4.82 0 00.8.67 1.81 1.81 0 01-.67.26zm1.12-.67c-1.72-1-3.39-4.29-4-8.2s0-7.55 1.32-9c1.72 1 3.39 4.28 4 8.2a16.58 16.58 0 01-.18 6.69 5.36 5.36 0 01-1.14 2.31zm1.18.3a.17.17 0 00-.12-.05.15.15 0 00-.11.06 2 2 0 01-.35-.06c.11-.14.22-.3.33-.47a.14.14 0 00.13.1.16.16 0 00.16-.15.15.15 0 00-.16-.15 7 7 0 00.51-1.16.15.15 0 00.13.11.16.16 0 00.16-.16.16.16 0 00-.16-.15h-.08a4.17 4.17 0 00.13-.38.14.14 0 00.11-.13.16.16 0 00-.11-.11 14.33 14.33 0 00.4-2.58.16.16 0 00.15.15.16.16 0 00.16-.15.16.16 0 00-.16-.16.16.16 0 00-.15.15v-.6a.13.13 0 00.12.09.16.16 0 00.16-.16.16.16 0 00-.16-.15.13.13 0 00-.12.09v-.54a.13.13 0 00.12.08.15.15 0 100-.3.15.15 0 00-.13.09 21.13 21.13 0 00-.24-2.7c0-.2-.07-.39-.1-.58s0 0 0-.06L9 8.25a.16.16 0 00.12-.14.15.15 0 00-.19-.11c0-.18-.08-.35-.13-.52a.15.15 0 00.15.14.16.16 0 00.16-.15.16.16 0 00-.16-.16.15.15 0 00-.15.15c-.11-.43-.23-.84-.36-1.24a.12.12 0 00.05-.1.15.15 0 00-.15-.12 14.84 14.84 0 00-.7-1.75h.05a.16.16 0 00.16-.15.16.16 0 00-.16-.16c-.07 0-.11 0-.14.11-.1-.22-.21-.42-.33-.63a.15.15 0 00-.07-.12 9.93 9.93 0 00-.71-1.1.15.15 0 00.15-.15.16.16 0 00-.15-.16.15.15 0 00-.14.11 4.6 4.6 0 00-.46-.51.15.15 0 00.16-.12.15.15 0 00-.15-.15.15.15 0 00-.15.14 3.91 3.91 0 00-.64-.49h.15a.15.15 0 00.14-.15 1.14 1.14 0 01.36-.1.12.12 0 000 .08.16.16 0 00.16.15A.15.15 0 006 .7a.18.18 0 000-.1 1.61 1.61 0 01.37 0v.06a.16.16 0 00.16.15.14.14 0 00.06-.08 2.84 2.84 0 011 .59v.05a.15.15 0 00.16.15h.06c.14.15.29.3.43.48a.14.14 0 000 .07.15.15 0 00.15.15A10.84 10.84 0 019.43 4a.14.14 0 000 .09.15.15 0 00.15.15q.25.56.48 1.17a.14.14 0 00.06.12l.15.43h-.06a.16.16 0 00-.15.16.15.15 0 00.15.15.16.16 0 00.13-.07c.12.4.24.81.35 1.24s0 .05 0 .08.07.3.1.45a.16.16 0 00-.13.15.15.15 0 00.15.15c0 .14.06.29.08.44a.17.17 0 00-.12-.06.15.15 0 00-.15.15.16.16 0 00.15.16.14.14 0 00.14-.12l.06.29a17.33 17.33 0 01-.09 6.3.16.16 0 00-.11-.05.16.16 0 00-.15.16.15.15 0 00.15.15h.05v.16l-.09.26a.14.14 0 00-.08.12v.07a8 8 0 01-.49 1.13.16.16 0 00-.15.16v.07a3.33 3.33 0 01-.39.5.13.13 0 00-.11-.05.15.15 0 00-.15.15.14.14 0 000 .11 1.83 1.83 0 01-.92.46zm16.92-3.88a2.47 2.47 0 00-1.1-.64 2.29 2.29 0 00-.56-1.12 2.78 2.78 0 00-2.12-.78c-2.26 0-5.41 1.6-8.21 4.18a17.54 17.54 0 00-4.2 5.56c-.84 1.92-.83 3.47 0 4.37a2.38 2.38 0 001.1.64 2.29 2.29 0 00.56 1.12A2.77 2.77 0 0013 29c2.27 0 5.42-1.6 8.22-4.18 4.02-3.73 5.85-8.09 4.13-9.92zM10.2 26.45zm.44-2.17a7 7 0 00-.35 1.23.16.16 0 00-.27.11.16.16 0 00.16.15.11.11 0 00.07 0v.41a.16.16 0 00-.16.15.19.19 0 000 .08 1.45 1.45 0 01-.42-.3c-.58-.61-.63-1.7-.18-3a.13.13 0 00.11 0 .16.16 0 00.15-.16.15.15 0 00-.15-.15c.05-.15.11-.29.17-.44s.22-.46.34-.7a.14.14 0 00.13.09.15.15 0 00.15-.15.16.16 0 00-.15-.16 11.81 11.81 0 01.64-1.05.15.15 0 00.14-.15c.12-.17.24-.35.37-.52a.21.21 0 00.11 0 .16.16 0 00.16-.15.14.14 0 00-.08-.12l.4-.51A.15.15 0 0012 19a.16.16 0 00.16-.16.15.15 0 00-.13-.14q.21-.25.45-.51a.14.14 0 00.14.13.15.15 0 00.16-.15.15.15 0 00-.14-.15l.5-.52a.15.15 0 00.15.15.16.16 0 00.16-.15.15.15 0 00-.15-.15c.15-.14.28-.28.43-.41l.06-.05A.13.13 0 0014 17a.16.16 0 00.15-.16.15.15 0 00-.07-.12l.48-.42h.06a.15.15 0 00.15-.15A19.42 19.42 0 0116.35 15a.13.13 0 00.09 0 .15.15 0 00.15-.16c.33-.21.65-.4 1-.58a.15.15 0 00.13.09.16.16 0 00.16-.15v-.08c.34-.18.69-.34 1-.48a.18.18 0 00.09 0 .15.15 0 00.15-.14l.39-.13a.13.13 0 00-.07.12.15.15 0 00.15.15.16.16 0 00.16-.15.15.15 0 00-.15-.15 6.41 6.41 0 012-.39 2.27 2.27 0 011.55.49v.05a.15.15 0 00.15.15 1.75 1.75 0 01.29.52h-.19a.15.15 0 00-.28 0h-.34a.14.14 0 00-.14-.12.15.15 0 00-.16.15l-.34.05a.14.14 0 000-.06A.15.15 0 0022 14a.15.15 0 00-.16.15.16.16 0 00.05.11 9.47 9.47 0 00-1.62.52.15.15 0 00-.14-.11.15.15 0 00-.15.15.15.15 0 000 .07c-.33.15-.67.31-1 .49a.21.21 0 00-.11 0 .16.16 0 00-.15.16c-.32.18-.65.38-1 .59a.14.14 0 00-.13-.09.15.15 0 00-.16.15.14.14 0 00.05.1q-.81.54-1.62 1.2a.15.15 0 00-.13-.11.16.16 0 00-.16.16.13.13 0 00.09.12l-.49.42h-.06a.15.15 0 00-.16.15v.05l-.46.44a.15.15 0 00-.13.12c-.2.19-.38.39-.57.58-.19.21-.38.41-.56.62a.18.18 0 00-.08.09l-.47.58h-.06a.15.15 0 00-.15.16.11.11 0 000 .08c-.13.17-.25.35-.37.52a.15.15 0 00-.13-.09.16.16 0 00-.16.16.15.15 0 00.14.14c-.25.37-.48.73-.68 1.08a.16.16 0 00-.08.12c-.12.21-.23.43-.33.63a.14.14 0 00-.14-.12.15.15 0 00-.16.15.16.16 0 00.16.15.09.09 0 00.07 0l-.2.48v.07zm.17 2.34c-.14-2 1.66-5.16 4.62-7.88 2.65-2.45 5.72-4 7.8-4a3.79 3.79 0 01.49 0c.14 2-1.66 5.17-4.62 7.88-2.66 2.45-5.72 4-7.8 4a3.6 3.6 0 01-.49 0zm14.32-8.56a.15.15 0 00-.15.15.14.14 0 00.1.13 8.55 8.55 0 01-.47 1.11.13.13 0 00-.1 0 .14.14 0 00-.15.15.14.14 0 00.12.14 11.65 11.65 0 01-.62 1.06.16.16 0 00-.13.15l-.37.53a.15.15 0 00-.11 0 .16.16 0 00-.16.15.15.15 0 00.09.13l-.41.52a.15.15 0 00-.14-.13.16.16 0 00-.16.15.16.16 0 00.16.16c-.15.19-.32.38-.49.57a.16.16 0 00-.15-.16.16.16 0 00-.16.16.16.16 0 00.16.15.09.09 0 00.06 0 7.27 7.27 0 01-.54.57.15.15 0 00-.15-.15.16.16 0 00-.16.15.15.15 0 00.16.15l-.52.5a.13.13 0 00-.14-.12.15.15 0 00-.15.15.15.15 0 00.11.14c-.16.14-.31.29-.48.42a.15.15 0 00-.1 0A.16.16 0 0020 25l-.6.49c-.33.25-.66.5-1 .72a.17.17 0 00-.14-.1.15.15 0 00-.15.15.17.17 0 00.05.12c-.34.22-.68.42-1 .61a.08.08 0 000-.05.16.16 0 00-.15-.16.16.16 0 00-.16.16.15.15 0 00.13.14 11.63 11.63 0 01-1.06.53.15.15 0 00-.15-.15.16.16 0 00-.16.15.11.11 0 00.06.11 9.32 9.32 0 01-1.63.53.13.13 0 00-.14-.12.15.15 0 00-.15.15h-.35a.15.15 0 000-.07.16.16 0 00-.16-.15.15.15 0 00-.15.15.13.13 0 000 .09h-.44a.13.13 0 000-.09.16.16 0 00-.16-.15.15.15 0 00-.15.15.13.13 0 000 .08l-.35-.07a.16.16 0 00-.16-.15.12.12 0 00-.12.08 1.76 1.76 0 01-.64-.41 1.68 1.68 0 01-.35-.61 2.22 2.22 0 00.37 0 6.18 6.18 0 001.3-.15h.06a.15.15 0 00.12-.07l.41-.1a.15.15 0 00.15.15.16.16 0 00.16-.15.16.16 0 00-.05-.11 11.83 11.83 0 001.11-.42.17.17 0 00.13-.08A16.24 16.24 0 0017 25.07h.08a.15.15 0 00.15-.15c.33-.22.65-.46 1-.72a.25.25 0 000 .07.15.15 0 00.15.16.16.16 0 00.16-.16.16.16 0 00-.16-.15l.54-.44a.14.14 0 00.12.06.16.16 0 00.16-.15.12.12 0 000-.1l.48-.43a.16.16 0 00.16-.15l.54-.52a.13.13 0 00.06-.07c.21-.2.4-.41.59-.62.19-.21.38-.42.55-.63a.14.14 0 00.1-.11c.15-.19.3-.37.44-.56a.16.16 0 00.15-.16.15.15 0 000-.07l.37-.53a.14.14 0 00.13.08.15.15 0 00.15-.15.15.15 0 00-.13-.15c.24-.36.45-.71.64-1.06a.15.15 0 00.11-.14v-.05a11.29 11.29 0 00.38-1.17.15.15 0 00.12-.14.12.12 0 000-.1 5.45 5.45 0 00.33-1.85 1.65 1.65 0 01.57.39 1.71 1.71 0 01.11.14.09.09 0 000 .07.15.15 0 00.15.15 3.24 3.24 0 010 2.41zm-2.48-4.41a.15.15 0 00.15-.15.16.16 0 00-.15-.16.16.16 0 00-.16.16.16.16 0 00.16.15zm-.62 0a.15.15 0 00.15-.15.16.16 0 00-.15-.16.16.16 0 00-.16.16.16.16 0 00.13.15zm-.62 0a.15.15 0 00.15-.15.16.16 0 00-.15-.16.16.16 0 00-.16.16.16.16 0 00.16.15zm-.63 0a.16.16 0 00.16-.15.16.16 0 00-.16-.16.16.16 0 00-.15.16.15.15 0 00.15.15zm-.62 0a.16.16 0 00.16-.15.16.16 0 00-.16-.16.16.16 0 00-.15.16.15.15 0 00.15.15zm1.25.67a.15.15 0 00.15-.15.15.15 0 00-.15-.15.15.15 0 00-.16.15.16.16 0 00.16.15zm-.63 0a.16.16 0 00.16-.15.15.15 0 00-.16-.15.15.15 0 00-.15.15.15.15 0 00.15.15zm-.62 0a.16.16 0 00.16-.15.15.15 0 00-.16-.15.15.15 0 00-.15.15.15.15 0 00.15.15zm-.62 0a.16.16 0 00.16-.15.15.15 0 00-.16-.15.15.15 0 00-.15.15.15.15 0 00.15.15zm-.62 0a.16.16 0 00.16-.15.15.15 0 00-.16-.15.15.15 0 00-.15.15.15.15 0 00.15.15zm-.62 0a.16.16 0 00.16-.15.16.16 0 00-.32 0 .16.16 0 00.16.15zm1.24.68a.16.16 0 00.16-.16.16.16 0 00-.16-.15.15.15 0 00-.15.15.16.16 0 00.15.16zm-.62 0a.16.16 0 00.16-.16.16.16 0 00-.16-.15.15.15 0 00-.15.15.16.16 0 00.15.16zm-.62 0a.16.16 0 00.16-.16.16.16 0 00-.32 0 .16.16 0 00.16.16zm-.62 0a.15.15 0 00.15-.16.15.15 0 00-.15-.15.16.16 0 00-.16.15.16.16 0 00.16.16zm-.62 0a.16.16 0 00.15-.16.15.15 0 00-.15-.15.16.16 0 00-.16.15.16.16 0 00.16.16zm7.45.67a.15.15 0 00.15-.15.15.15 0 00-.15-.16.16.16 0 00-.16.16.16.16 0 00.16.15zm-6.21-.31a.16.16 0 00-.16.16.16.16 0 00.32 0 .16.16 0 00-.16-.16zm-.62.31a.15.15 0 00.15-.15.15.15 0 00-.15-.16.16.16 0 00-.16.16.16.16 0 00.16.15zm-.62-.31a.16.16 0 00-.16.16.16.16 0 00.16.15.15.15 0 00.15-.15.16.16 0 00-.15-.16zm-.62.31a.15.15 0 00.15-.15.16.16 0 00-.15-.16.16.16 0 00-.16.16.16.16 0 00.16.15zm-.62 0a.15.15 0 00.15-.15.16.16 0 00-.15-.16.16.16 0 00-.16.16.16.16 0 00.16.15zm9.31.67a.16.16 0 00.16-.15.16.16 0 00-.32 0 .16.16 0 00.16.15zm-.62-.3a.15.15 0 00-.16.15.16.16 0 00.32 0 .15.15 0 00-.16-.19zm-7.45.3a.15.15 0 00.15-.15.15.15 0 00-.15-.15.15.15 0 00-.16.15.16.16 0 00.16.15zm-.62 0a.15.15 0 00.15-.15.15.15 0 00-.15-.15.15.15 0 00-.16.15.16.16 0 00.16.15zm-.62 0a.15.15 0 00.15-.15.15.15 0 00-.15-.15.15.15 0 00-.16.15.16.16 0 00.16.15zm-.62 0a.15.15 0 00.15-.15.15.15 0 00-.15-.19.15.15 0 00-.16.15.16.16 0 00.16.19zm9.93.37a.16.16 0 00-.16.15.16.16 0 00.32 0 .16.16 0 00-.16-.15zm-.62 0a.16.16 0 00-.16.15.16.16 0 00.32 0 .16.16 0 00-.16-.15zm-8.07.29a.16.16 0 00.15-.16.15.15 0 00-.15-.15.16.16 0 00-.16.15.16.16 0 00.16.16zm-.62 0a.16.16 0 00.15-.16.15.15 0 00-.15-.15.16.16 0 00-.16.15.16.16 0 00.16.16zm-.62 0a.16.16 0 00.15-.16.15.15 0 00-.15-.15.16.16 0 00-.16.15.16.16 0 00.16.16zm-.63 0a.16.16 0 00.16-.16.16.16 0 00-.16-.15.15.15 0 00-.15.15.16.16 0 00.15.16zm-.62.67a.16.16 0 00.16-.15.16.16 0 00-.16-.16.16.16 0 00-.15.16.15.15 0 00.2.17zm11.18-.31a.15.15 0 00-.15.16.15.15 0 00.15.15.16.16 0 00.16-.15.16.16 0 00-.16-.14zm-.62.31a.15.15 0 00.15-.15.15.15 0 00-.15-.16.16.16 0 00-.16.16.16.16 0 00.16.17zm-.62 0a.15.15 0 00.15-.15.16.16 0 00-.15-.16.16.16 0 00-.16.16.16.16 0 00.16.17zm-8.69-.31a.16.16 0 00-.16.16.16.16 0 00.16.15.15.15 0 00.15-.15.16.16 0 00-.15-.14zm-.63 0a.16.16 0 00-.15.16.15.15 0 00.15.15.16.16 0 00.16-.15.16.16 0 00-.16-.14zm-1.24 1a.15.15 0 100-.3.15.15 0 000 .3zm.62 0a.15.15 0 100-.3.15.15 0 000 .3zm10.56 0a.15.15 0 000-.3.15.15 0 100 .3zm-.62 0a.15.15 0 000-.3.15.15 0 100 .3zm-9.32-.3a.15.15 0 000 .3.15.15 0 100-.3zm-1.24 1a.16.16 0 00.16-.16.16.16 0 00-.16-.15.15.15 0 00-.15.15.16.16 0 00.15.1zM14 19a.16.16 0 00.16-.16.16.16 0 00-.16-.15.15.15 0 00-.15.15.16.16 0 00.15.16zm10.56-.31a.16.16 0 00-.16.15.16.16 0 00.32 0 .16.16 0 00-.21-.11zm-.62 0a.16.16 0 00-.16.15.16.16 0 00.16.16.16.16 0 00.15-.16.15.15 0 00-.2-.11zm-.62 0a.16.16 0 00-.16.15.16.16 0 00.16.16.16.16 0 00.15-.16.15.15 0 00-.2-.11zm-9.94 1a.16.16 0 00.16-.15.16.16 0 00-.16-.16.16.16 0 00-.15.16.15.15 0 00.1.17zm10.56-.31a.16.16 0 00-.16.16.16.16 0 00.16.15.15.15 0 00.15-.15.16.16 0 00-.2-.14zm-.62 0a.16.16 0 00-.16.16.16.16 0 00.16.15.15.15 0 00.15-.15.16.16 0 00-.2-.14zm.62.68a.16.16 0 00-.16.15.15.15 0 00.16.15.15.15 0 00.15-.15.15.15 0 00-.2-.13zm-.62 0a.16.16 0 00-.16.15.15.15 0 00.16.15.15.15 0 00.15-.15.15.15 0 00-.2-.13zm-.62.3a.15.15 0 00.15-.15.15.15 0 00-.15-.15.16.16 0 00-.16.15.15.15 0 00.11.17zm.62.37a.16.16 0 00-.16.16.16.16 0 00.16.15.15.15 0 00.15-.15.16.16 0 00-.2-.14zm-.62 0a.16.16 0 00-.16.16.16.16 0 00.16.15.15.15 0 00.15-.15.16.16 0 00-.2-.14zm-.62 0a.16.16 0 00-.16.16.16.16 0 00.16.15.15.15 0 00.15-.15.16.16 0 00-.23-.14zm.62.67a.16.16 0 00-.16.16.16.16 0 00.16.15.15.15 0 00.15-.15.16.16 0 00-.2-.14zm-.62 0a.16.16 0 00-.16.16.16.16 0 00.16.15.15.15 0 00.15-.15.16.16 0 00-.23-.14zm-.62 0a.16.16 0 00-.16.16.16.16 0 00.16.15.15.15 0 00.15-.15.16.16 0 00-.2-.14zm.62.68a.16.16 0 00-.16.15.16.16 0 00.16.16.16.16 0 00.15-.16.15.15 0 00-.23-.13zm-.62.31a.16.16 0 00.15-.16.15.15 0 00-.15-.15.16.16 0 00-.16.15.16.16 0 00.11.18zm-.63-.31a.15.15 0 00-.15.15.16.16 0 00.15.16.16.16 0 00.16-.16.16.16 0 00-.21-.13zm.63.67a.16.16 0 00-.16.16.16.16 0 00.16.15.15.15 0 00.15-.15.16.16 0 00-.2-.14zm-.63 0a.15.15 0 00-.15.15.16.16 0 00.15.16.16.16 0 00.16-.16.16.16 0 00-.21-.13zm-.62 0a.16.16 0 00-.15.16.15.15 0 00.15.15.16.16 0 00.16-.15.16.16 0 00-.21-.14zm.62.68a.15.15 0 00-.15.15.15.15 0 00.15.15.16.16 0 00.16-.15.15.15 0 00-.21-.13zm-.62.3a.16.16 0 00.16-.15.15.15 0 00-.16-.15.15.15 0 00-.15.15.15.15 0 00.1.17zm-.62 0a.16.16 0 00.16-.15.15.15 0 00-.16-.15.15.15 0 00-.15.15.15.15 0 00.1.17zm.62.37a.15.15 0 00-.15.15.16.16 0 00.15.16.16.16 0 00.16-.16.16.16 0 00-.21-.13zm-.62 0a.15.15 0 00-.15.15.16.16 0 00.15.16.16.16 0 00.16-.16.16.16 0 00-.21-.13zm-.62 0a.15.15 0 00-.15.15.16.16 0 00.15.16.16.16 0 00.16-.16.16.16 0 00-.21-.13zm.62.67a.16.16 0 00-.15.16.15.15 0 00.15.15.16.16 0 00.11-.08.16.16 0 00-.16-.21zm-.62 0a.16.16 0 00-.15.16.15.15 0 00.15.15.16.16 0 00.16-.15.16.16 0 00-.21-.14zm-.62 0a.16.16 0 00-.16.16.16.16 0 00.32 0 .16.16 0 00-.21-.14zm-.62 0a.16.16 0 00-.16.16.16.16 0 00.16.15.15.15 0 00.15-.15.16.16 0 00-.2-.14zm1.24.68a.15.15 0 00-.15.15.15.15 0 00.15.15.16.16 0 00.16-.15.15.15 0 00-.21-.13zm-.62 0a.15.15 0 00-.16.15.16.16 0 00.32 0 .15.15 0 00-.21-.13zm-.62 0a.15.15 0 00-.16.15.16.16 0 00.16.15.15.15 0 000-.3zm-.62 0a.15.15 0 00-.16.15.16.16 0 00.16.15.15.15 0 00.15-.15.15.15 0 00-.2-.13zm-.62 0a.15.15 0 00-.16.15.16.16 0 00.16.15.15.15 0 00.15-.15.15.15 0 00-.2-.13zm1.24.67a.16.16 0 00-.16.15.16.16 0 00.16.16.15.15 0 00.15-.16.15.15 0 00-.2-.13zm-.62 0a.16.16 0 00-.16.15.16.16 0 00.16.16.16.16 0 00.15-.16.15.15 0 00-.2-.13zm-.62 0a.16.16 0 00-.16.15.16.16 0 00.16.16.16.16 0 00.15-.16.15.15 0 00-.2-.13zm-.62 0a.16.16 0 00-.16.15.16.16 0 00.16.16.16.16 0 00.15-.16.15.15 0 00-.2-.13zm-.62.31a.16.16 0 00.15-.16.15.15 0 00-.15-.15.16.16 0 00-.16.15.16.16 0 00.11.18zm-1.25.69a.16.16 0 00.16-.15.16.16 0 00-.16-.16.16.16 0 00-.15.16.15.15 0 00.15.15zm2.49-.31a.16.16 0 00-.16.16.16.16 0 00.16.15.15.15 0 00.15-.15.16.16 0 00-.2-.16zm-.62 0a.16.16 0 00-.16.16.16.16 0 00.16.15A.15.15 0 0016 27a.16.16 0 00-.18-.19zm-.62.31a.15.15 0 00.15-.15.16.16 0 00-.15-.16.16.16 0 00-.25.19.16.16 0 00.2.12zm-.63 0a.16.16 0 00.16-.15.16.16 0 00-.16-.16.16.16 0 00-.15.16.15.15 0 00.1.15zm-1.24.37a.15.15 0 00-.15.15.15.15 0 00.15.15.16.16 0 00.16-.15.15.15 0 00-.21-.15zm.62 0a.15.15 0 00-.15.15.15.15 0 00.15.15.16.16 0 00.16-.15.15.15 0 00-.16-.15zm1.25 0a.15.15 0 00-.16.15.16.16 0 00.16.15.15.15 0 00.15-.15.15.15 0 00-.2-.15zm-.63 0a.15.15 0 00-.15.15.15.15 0 00.15.15.16.16 0 00.16-.15.15.15 0 00-.21-.15zM7.69 1.89a.16.16 0 00-.15.16.15.15 0 00.15.15.16.16 0 00.16-.15.16.16 0 00-.16-.16zm-.62 0a.16.16 0 00-.15.16.15.15 0 00.15.15.16.16 0 00.16-.15.16.16 0 00-.16-.16zm-4.35.31a.16.16 0 00.16-.15.16.16 0 00-.16-.16.16.16 0 00-.15.16.15.15 0 00.15.15zm-.62-.31a.16.16 0 00-.1.16.15.15 0 00.15.15.16.16 0 00.16-.15.16.16 0 00-.21-.16zm6.21.68a.15.15 0 00-.15.15.15.15 0 00.15.15.16.16 0 00.16-.15.15.15 0 00-.16-.15zm-.62 0a.15.15 0 00-.15.15.15.15 0 00.15.15.16.16 0 00.16-.15.15.15 0 00-.16-.15zm-.62 0a.15.15 0 00-.15.15.15.15 0 00.15.15.16.16 0 00.16-.15.15.15 0 00-.16-.15zm-4.35.3a.16.16 0 00.16-.15.15.15 0 00-.16-.15.15.15 0 00-.15.15.15.15 0 00.15.15zm-.62-.3a.15.15 0 00-.1.15.15.15 0 00.15.15.16.16 0 00.16-.15.15.15 0 00-.21-.15zm6.83.67a.15.15 0 00-.15.15.16.16 0 00.15.16.16.16 0 00.16-.16.16.16 0 00-.16-.15zm-.62 0a.15.15 0 00-.15.15.16.16 0 00.15.16.16.16 0 00.16-.16.16.16 0 00-.16-.15zm-.62 0a.15.15 0 00-.15.15.16.16 0 00.15.16.16.16 0 00.16-.16.16.16 0 00-.16-.15zm-5.59 0a.15.15 0 00-.1.15.16.16 0 00.15.16.16.16 0 00.16-.16.16.16 0 00-.21-.15zm-.62 0a.15.15 0 00-.15.15.16.16 0 00.15.16.16.16 0 00.16-.16.16.16 0 00-.16-.15zm7.45.67a.16.16 0 00-.15.16.15.15 0 00.15.15.16.16 0 00.16-.15.16.16 0 00-.16-.16zm-.62 0a.16.16 0 00-.15.16.15.15 0 00.15.15.16.16 0 00.16-.15.16.16 0 00-.16-.16zm-6.21 0a.16.16 0 00-.1.16.15.15 0 00.15.15.16.16 0 00.16-.15.16.16 0 00-.21-.16zm-.62 0a.16.16 0 00-.15.16.15.15 0 00.15.15.16.16 0 00.16-.15.16.16 0 00-.16-.16zm8.07 1a.16.16 0 00.16-.15.15.15 0 00-.16-.15.15.15 0 00-.15.15.15.15 0 00.15.13zm-.62-.3a.15.15 0 00-.15.15.15.15 0 00.15.15.16.16 0 00.16-.15.15.15 0 00-.16-.17zm-.62 0a.15.15 0 00-.15.15.15.15 0 00.15.15.16.16 0 00.16-.15.15.15 0 00-.16-.17zm-6.21 0a.15.15 0 00-.1.13.15.15 0 00.15.15.16.16 0 00.16-.15.15.15 0 00-.21-.15zm-.62 0a.15.15 0 00-.15.15.15.15 0 00.15.15.16.16 0 00.16-.15.15.15 0 00-.16-.17zm8.07 1a.16.16 0 00.16-.16.16.16 0 00-.16-.15.15.15 0 00-.15.15.16.16 0 00.15.12zm-.62-.31a.15.15 0 00-.15.15.16.16 0 00.15.16.16.16 0 00.16-.16.16.16 0 00-.16-.19zm-.62 0a.15.15 0 00-.15.15.16.16 0 00.15.16.16.16 0 00.16-.16.16.16 0 00-.16-.19zm-6.21 0a.15.15 0 00-.1.11.16.16 0 00.15.16.16.16 0 00.16-.16.16.16 0 00-.21-.15zm-.62 0a.15.15 0 00-.15.15.16.16 0 00.15.16.16.16 0 00.16-.16.16.16 0 00-.16-.19zm8.07 1a.16.16 0 00.16-.15.16.16 0 00-.16-.16.16.16 0 00-.15.16.15.15 0 00.15.09zm-.62-.31a.16.16 0 00-.15.16.15.15 0 00.15.15.16.16 0 00.16-.15.16.16 0 00-.16-.22zm-6.83 0a.16.16 0 00-.1.1.15.15 0 00.15.15.16.16 0 00.16-.15.16.16 0 00-.21-.16zm-.62 0a.16.16 0 00-.15.16.15.15 0 00.15.15.16.16 0 00.16-.15.16.16 0 00-.16-.22zm-.62 0a.16.16 0 00-.16.16.16.16 0 00.32 0 .16.16 0 00-.16-.22zm9.32 1a.15.15 0 00.15-.15.15.15 0 00-.15-.15.16.16 0 00-.16.15.15.15 0 00.16.07zm-.63 0a.15.15 0 00.16-.15.16.16 0 00-.16-.15.15.15 0 00-.15.15.15.15 0 00.15.07zm-.62-.3a.15.15 0 00-.15.15.15.15 0 00.15.15.15.15 0 00.16-.15.16.16 0 00-.16-.23zm-6.83 0a.15.15 0 00-.1.07.15.15 0 00.15.15.15.15 0 00.16-.15.16.16 0 00-.21-.15zm-.62 0a.15.15 0 00-.15.15.15.15 0 00.15.15.15.15 0 00.16-.15.16.16 0 00-.16-.23zm-.62 0a.16.16 0 00-.16.15.15.15 0 00.16.15.15.15 0 00.14-.23.16.16 0 00-.14-.15zm9.32 1a.16.16 0 00.15-.16.15.15 0 00-.15-.15.16.16 0 00-.16.15.16.16 0 00.16.06zm-.63 0a.16.16 0 00.16-.16.16.16 0 00-.16-.15.15.15 0 00-.15.15.16.16 0 00.15.06zM2.1 7.28a.15.15 0 00-.1.15.16.16 0 00.15.16.16.16 0 00.16-.16.16.16 0 00-.21-.15zm-.62 0a.15.15 0 00-.15.15.16.16 0 00.15.16.16.16 0 00.16-.16.16.16 0 00-.16-.15zm-.62 0a.16.16 0 00-.16.15.16.16 0 00.32 0 .16.16 0 00-.16-.15zm9.32 1a.15.15 0 00.15-.15.16.16 0 00-.15-.13.16.16 0 00-.16.16.16.16 0 00.16.1zm-.63 0a.16.16 0 00.16-.15.16.16 0 00-.16-.13.16.16 0 00-.15.16.15.15 0 00.15.1zM2.1 8a.16.16 0 00-.1.11.15.15 0 00.15.15.16.16 0 00.16-.15A.16.16 0 002.1 8zm-.62 0a.16.16 0 00-.15.16.15.15 0 00.15.15.16.16 0 00.16-.15.16.16 0 00-.16-.16zM.86 8a.16.16 0 00-.16.16.16.16 0 00.32 0A.16.16 0 00.86 8zm9.32 1a.15.15 0 00.15-.15.15.15 0 00-.15-.15.16.16 0 00-.16.15.15.15 0 00.16.08zm-.63 0a.15.15 0 00.16-.15.16.16 0 00-.16-.15.15.15 0 00-.15.15.15.15 0 00.15.08zM2.1 8.63a.15.15 0 00-.1.15.15.15 0 00.15.15.15.15 0 00.16-.15.16.16 0 00-.21-.15zm-.62 0a.15.15 0 00-.15.15.15.15 0 00.15.15.15.15 0 00.16-.15.16.16 0 00-.16-.15zm-.62 0a.16.16 0 00-.16.15.15.15 0 00.16.15.15.15 0 00.14-.15.16.16 0 00-.14-.15zm9.94 1a.16.16 0 00.2-.18.15.15 0 00-.15-.15.16.16 0 00-.16.15.16.16 0 00.11.16zm-.62 0a.16.16 0 00.15-.16.15.15 0 00-.15-.15.16.16 0 00-.16.15.16.16 0 00.16.14zm-.63 0a.16.16 0 00.16-.16.16.16 0 00-.16-.15.15.15 0 00-.15.15.16.16 0 00.15.14zM2.1 9.3a.15.15 0 00-.1.15.16.16 0 00.15.16.16.16 0 00.16-.16.16.16 0 00-.21-.15zm-.62 0a.15.15 0 00-.15.15.16.16 0 00.15.16.16.16 0 00.16-.16.16.16 0 00-.16-.15zm9.32 1a.15.15 0 00.15-.15.16.16 0 00-.15-.15.16.16 0 00-.16.16.16.16 0 00.16.12zm-.62 0a.15.15 0 00.15-.15.16.16 0 00-.15-.16.16.16 0 00-.16.16.16.16 0 00.16.13zm-.63 0a.16.16 0 00.16-.15.16.16 0 00-.16-.15.16.16 0 00-.15.16.15.15 0 00.15.12zM2.1 10a.16.16 0 00-.15.16.15.15 0 00.15.15.16.16 0 00.16-.15.16.16 0 00-.16-.16zm-.62 0a.16.16 0 00-.15.16.15.15 0 00.15.15.16.16 0 00.16-.15.16.16 0 00-.16-.16zm9.32 1a.16.16 0 00.2-.2.15.15 0 00-.15-.15.16.16 0 00-.16.15.16.16 0 00.11.2zm-.62 0a.16.16 0 00.15-.16.15.15 0 00-.15-.15.16.16 0 00-.16.15.16.16 0 00.16.16zm-.63 0a.16.16 0 00.16-.16.16.16 0 00-.16-.15.15.15 0 00-.15.15.16.16 0 00.15.16zm-7.45-.35a.15.15 0 00-.1.15.16.16 0 00.1.2.16.16 0 00.16-.16.16.16 0 00-.16-.19zm-.62 0a.15.15 0 00-.15.15.16.16 0 00.15.16.16.16 0 00.16-.16.16.16 0 00-.16-.15zm9.32 1a.16.16 0 00.15-.16.15.15 0 00-.15-.15.16.16 0 00-.16.15.16.16 0 00.16.14zm-.62 0a.15.15 0 00.15-.15.16.16 0 00-.15-.16.16.16 0 00-.16.16.16.16 0 00.16.13zm-.63-.31a.15.15 0 00-.15.15.16.16 0 00.15.16.16.16 0 00.16-.16.16.16 0 00-.16-.17zm-7.45 0a.15.15 0 00-.15.15.16.16 0 00.15.16.16.16 0 00.16-.16.16.16 0 00-.16-.17zm-.62 0a.15.15 0 00-.15.15.16.16 0 00.15.16.16.16 0 00.16-.16.16.16 0 00-.16-.17zM7.07 1.22a.15.15 0 00-.15.15.16.16 0 00.15.16.16.16 0 00.16-.16.16.16 0 00-.16-.15zm-.62 0a.15.15 0 00-.15.15.15.15 0 00.15.16.16.16 0 00.16-.16.16.16 0 00-.16-.15zm-3.1.31a.16.16 0 00.15-.16.15.15 0 00-.15-.15.16.16 0 00-.16.15.16.16 0 00.16.16zM10.8 12.3a.15.15 0 00.15-.15.15.15 0 00-.15-.15.15.15 0 00-.16.15.16.16 0 00.16.15zm-.62 0a.15.15 0 00.15-.15.15.15 0 00-.15-.15.15.15 0 00-.16.15.16.16 0 00.16.15zM2.72 12a.15.15 0 00-.15.15.15.15 0 00.15.15.16.16 0 00.16-.15.15.15 0 00-.16-.15zm-.62 0a.15.15 0 00-.15.15.15.15 0 00.15.15.16.16 0 00.16-.15.15.15 0 00-.16-.15zm-.62 0a.15.15 0 00-.15.15.15.15 0 00.15.15.16.16 0 00.16-.15.15.15 0 00-.16-.15zm9.32 1.34a.16.16 0 00-.16.16.16.16 0 00.16.15.15.15 0 00.2-.15.16.16 0 00-.2-.16zm-.62.31a.15.15 0 00.15-.15.16.16 0 00-.15-.16.16.16 0 00-.16.16.16.16 0 00.16.15zm-7.46 0a.16.16 0 00.16-.15.16.16 0 00-.16-.16.16.16 0 00-.15.16.15.15 0 00.15.15zm-.62 0a.16.16 0 00.16-.15.16.16 0 00-.16-.16.16.16 0 00-.1.16.15.15 0 00.1.15zm8.7.67a.15.15 0 00.15-.15.15.15 0 00-.15-.17.15.15 0 00-.16.15.16.16 0 00.16.17zm-.62 0a.15.15 0 00.15-.15.15.15 0 00-.15-.15.15.15 0 00-.16.15.16.16 0 00.16.15zm-.63 0a.16.16 0 00.16-.15.15.15 0 00-.16-.17.15.15 0 00-.15.15.15.15 0 00.15.17zM3.35 14a.15.15 0 00-.16.15.16.16 0 00.16.15.15.15 0 00.15-.15.15.15 0 00-.15-.15zm-.63 0a.15.15 0 00-.15.15.15.15 0 00.15.15.16.16 0 00.16-.15.15.15 0 00-.16-.15zm-.62 0a.15.15 0 00-.15.15.15.15 0 00.15.15.16.16 0 00.16-.15.15.15 0 00-.16-.15zm8.7 1a.16.16 0 00.15-.16.15.15 0 00-.15-.15.16.16 0 00-.16.15.16.16 0 00.16.16zm-.62 0a.16.16 0 00.15-.16.15.15 0 00-.15-.15.16.16 0 00-.16.15.16.16 0 00.16.16zm-.63 0a.16.16 0 00.16-.16.16.16 0 00-.16-.15.15.15 0 00-.15.15.16.16 0 00.15.16zm-6.2-.31a.16.16 0 00-.16.15.16.16 0 00.16.16.16.16 0 00.15-.16.15.15 0 00-.15-.15zm-.63 0a.15.15 0 00-.15.15.16.16 0 00.15.16.16.16 0 00.16-.16.16.16 0 00-.16-.15zm7.46 1a.15.15 0 00.15-.15.16.16 0 00-.15-.16.16.16 0 00-.16.16.16.16 0 00.16.13zm-.63-.31a.16.16 0 00-.15.16.15.15 0 00.15.15.16.16 0 00.16-.15.16.16 0 00-.16-.18zM4 15.67a.15.15 0 00.15-.15.16.16 0 00-.15-.16.16.16 0 00-.16.16.16.16 0 00.16.15zm-.62 0a.15.15 0 00.15-.15.16.16 0 00-.15-.16.16.16 0 00-.16.16.16.16 0 00.13.15zm-.63-.31a.16.16 0 00-.15.16.15.15 0 00.15.15.16.16 0 00.16-.15.16.16 0 00-.19-.16zm7.46 1a.15.15 0 00.15-.15.15.15 0 00-.15-.15.15.15 0 00-.16.15.16.16 0 00.13.13zm-.63 0a.16.16 0 00.16-.15.15.15 0 00-.19-.21.15.15 0 00-.15.15.15.15 0 00.15.19zM4 16a.15.15 0 00-.16.15.16.16 0 00.16.15.15.15 0 00.15-.15A.15.15 0 004 16zm-.62 0a.15.15 0 00-.16.15.16.16 0 00.16.15.15.15 0 00.15-.15.15.15 0 00-.18-.15zm6.83 1a.16.16 0 00.15-.16.15.15 0 00-.15-.15.16.16 0 00-.16.15.16.16 0 00.13.16zm-.63 0a.16.16 0 00.16-.16.16.16 0 00-.16-.15.15.15 0 00-.15.15.16.16 0 00.12.16zm-5-.31a.16.16 0 00-.16.15.16.16 0 00.16.16.16.16 0 00.15-.16.15.15 0 00-.14-.13zm-.62 0a.16.16 0 00-.16.15.16.16 0 00.2.16.16.16 0 00.15-.16.15.15 0 00-.15-.13zm-.62 0a.16.16 0 00-.16.15.16.16 0 00.16.16.16.16 0 00.15-.16.15.15 0 00-.14-.13zm6.2.67a.16.16 0 00-.15.16.15.15 0 00.15.15.16.16 0 00.16-.15.16.16 0 00-.15-.14zm-.62 0a.16.16 0 00-.15.16.15.15 0 00.15.15.16.16 0 00.16-.15.16.16 0 00-.15-.14zm-4.34 0a.16.16 0 00-.16.16.16.16 0 00.16.15.15.15 0 00.15-.15.16.16 0 00-.14-.14zm-.62 0a.16.16 0 00-.16.16.16.16 0 00.16.15.15.15 0 00.15-.15.16.16 0 00-.11-.14zm5 .68a.15.15 0 000 .3.15.15 0 100-.3zm-3.72 0a.15.15 0 100 .3.15.15 0 000-.3zm-.62 0a.15.15 0 100 .3.15.15 0 000-.3zm1.86 1a.16.16 0 00.16-.16.16.16 0 00-.16-.15.15.15 0 00-.15.15.15.15 0 00.12.12zm-.62-.31a.16.16 0 00-.16.15.16.16 0 10.32 0 .16.16 0 00-.19-.15zm6.83.31a.16.16 0 00.16-.16.16.16 0 00-.32 0 .16.16 0 00.13.12zm-.62.67a.16.16 0 00.16-.15.16.16 0 00-.23-.16.15.15 0 00-.15.16.15.15 0 00.15.15zm.62 0a.16.16 0 00.16-.15.16.16 0 00-.32 0 .16.16 0 00.13.15zm-.62.37a.15.15 0 00-.15.15.15.15 0 00.15.15.15.15 0 00.16-.15.16.16 0 00-.23-.15zm-.62.3a.15.15 0 00.15-.15.15.15 0 00-.15-.15.16.16 0 00-.16.15.15.15 0 00.13.15zm1.24-.3a.15.15 0 00-.15.15.14.14 0 00.15.15.15.15 0 00.16-.15.16.16 0 00-.19-.15zm-.62 1a.16.16 0 00.16-.15.16.16 0 00-.16-.16.15.15 0 00-.15.16.15.15 0 00.08.13zm-.62 0a.15.15 0 00.15-.15.16.16 0 00-.15-.16.16.16 0 00-.16.16.16.16 0 00.13.13zm-.62 0a.15.15 0 00.15-.15.16.16 0 00-.15-.16.16.16 0 00-.16.16.16.16 0 00.13.13zm.62.67a.15.15 0 00.15-.15.16.16 0 00-.15-.16.16.16 0 00-.16.16.16.16 0 00.13.13zm-.62 0a.15.15 0 00.15-.15.16.16 0 00-.15-.16.16.16 0 00-.16.16.16.16 0 00.13.13zm.62.37a.16.16 0 00-.16.15.16.16 0 00.16.16.16.16 0 00.15-.16.15.15 0 00-.18-.17zm-.62 0a.16.16 0 00-.16.15.16.16 0 00.16.16.16.16 0 00.15-.16.15.15 0 00-.18-.17zm-.62 0a.16.16 0 00-.16.15.16.16 0 00.16.16.16.16 0 00.15-.16.15.15 0 00-.18-.17zm.62 1a.15.15 0 00.15-.15.16.16 0 00-.15-.16.16.16 0 00-.16.16.16.16 0 00.13.11zm-.62-.31a.16.16 0 00-.16.15.16.16 0 00.16.16.16.16 0 00.15-.16.15.15 0 00-.18-.19zM10.8 13a.16.16 0 00.15-.16.15.15 0 00-.15-.15.16.16 0 00-.16.15.16.16 0 00.16.16zm-.62 0a.16.16 0 00.15-.16.15.15 0 00-.15-.15.16.16 0 00-.16.15.16.16 0 00.16.16zm-7.46-.31a.15.15 0 00-.15.15.16.16 0 00.15.16.16.16 0 00.16-.16.16.16 0 00-.16-.17zm-.62 0a.15.15 0 00-.15.15.16.16 0 00.15.16.16.16 0 00.16-.16.16.16 0 00-.16-.17zm8.08 10.78a.15.15 0 00-.16.15.16.16 0 00.16.15.15.15 0 00.15-.15.15.15 0 00-.15-.17zm-.63.3a.16.16 0 00.16-.15.15.15 0 00-.16-.15.15.15 0 00-.15.15.15.15 0 00.15.13zm.63.37a.16.16 0 00-.16.15.16.16 0 00.16.16.16.16 0 00.15-.16.15.15 0 00-.15-.17zm-.63 0a.15.15 0 00-.15.15.16.16 0 00.15.16.16.16 0 00.16-.16.16.16 0 00-.16-.17zm.63.67A.16.16 0 0010 25a.16.16 0 00.16.15.15.15 0 00.15-.15.16.16 0 00-.13-.21zm-.63 0a.16.16 0 00-.15.19.15.15 0 00.15.15.16.16 0 00.16-.15.16.16 0 00-.16-.21zm0 .68a.15.15 0 00-.16.15.16.16 0 00.16.15.15.15 0 00.15-.15.15.15 0 00-.14-.17zm2.48 2a.14.14 0 00-.15.15.15.15 0 00.15.15.16.16 0 00.16-.15.15.15 0 00-.19-.15zm-.62 0a.15.15 0 00-.16.15.16.16 0 00.16.15.15.15 0 00.15-.15.15.15 0 00-.14-.15zm1.24 0a.15.15 0 00-.16.15.16.16 0 00.32 0 .15.15 0 00-.15-.15z" data-name="Camada 1"/></g></symbol>
</svg>