<svg class="svg-sprites" id="skin-sprite" xmlns="http://www.w3.org/2000/svg" xmlns:xlink="http://www.w3.org/1999/xlink">

    <symbol viewBox="0 0 16 20" id="z-cart" xmlns="http://www.w3.org/2000/svg"><g data-name="Camada 2"><path d="M15.06 6.07a.7.7 0 00-.7-.66H12V4a4 4 0 00-8 0v1.41H1.65a.72.72 0 00-.71.66L0 19.24v.06a.71.71 0 00.71.7h14.64a.71.71 0 00.65-.76zM5.41 4a2.59 2.59 0 015.18 0v1.41H5.41zM1.47 18.59l.84-11.77H4v2.83a.7.7 0 00.71.7.7.7 0 00.7-.7V6.82h5.18v2.83a.7.7 0 00.71.7.7.7 0 00.7-.7V6.82h1.7l.84 11.77z" data-name="Camada 1"/></g></symbol>

    <symbol viewBox="0 0 38 52" id="z-map" xmlns="http://www.w3.org/2000/svg"><g data-name="Camada 2"><g data-name="Camada 1"><path d="M19 10.32a6.89 6.89 0 00-4.87 11.76 6.86 6.86 0 009.72 0A6.89 6.89 0 0019 10.32zm2.4 9.28a3.38 3.38 0 01-4.78 0 3.38 3.38 0 114.8 0z"/><path d="M32.44 5.57A19 19 0 000 19c0 8.79 4.88 15 10.2 21.8a88.16 88.16 0 017.27 10.29 1.77 1.77 0 003.05 0 88.48 88.48 0 017.28-10.27C33.12 34 38 27.81 38 19a18.94 18.94 0 00-5.56-13.43zm-7.39 33.1C23 41.27 20.91 44 19 46.9c-1.91-2.9-4-5.63-6-8.23C8 32.39 3.51 26.62 3.51 19a15.49 15.49 0 1131 0c-.02 7.62-4.51 13.39-9.46 19.67z"/></g></g></symbol>

    <symbol viewBox="0 0 25 25" id="z-menu" xmlns="http://www.w3.org/2000/svg"><g data-name="Camada 2"><path d="M17.38 7.32H7.62a.92.92 0 000 1.83h9.76a.92.92 0 000-1.83zm0 4.27H7.62a.91.91 0 000 1.82h9.76a.91.91 0 100-1.82zm0 4.26H7.62a.92.92 0 000 1.83h9.76a.92.92 0 000-1.83zM12.5 0A12.5 12.5 0 1025 12.5 12.5 12.5 0 0012.5 0zm0 23.17A10.67 10.67 0 1123.17 12.5 10.67 10.67 0 0112.5 23.17z" data-name="Camada 1"/></g></symbol>

    <symbol viewBox="0 0 16 20.68" id="z-user" xmlns="http://www.w3.org/2000/svg"><g data-name="Camada 2"><g data-name="Camada 1"><path d="M8 11.64A8.16 8.16 0 000 20a.71.71 0 00.7.72h14.6A.71.71 0 0016 20a8.16 8.16 0 00-8-8.36zm-6.54 7.59A6.65 6.65 0 018 13.08a6.65 6.65 0 016.54 6.15z"/><circle cx="8" cy="5" r="5"/></g></g></symbol>
    
</svg>