<svg class="svg-sprites" id="skin-sprite" xmlns="http://www.w3.org/2000/svg" xmlns:xlink="http://www.w3.org/1999/xlink">
    <symbol viewBox="0 0 16 20" id="z-cart" xmlns="http://www.w3.org/2000/svg"><g data-name="Camada 2"><path d="M15.06 6.07a.7.7 0 00-.7-.66H12V4a4 4 0 00-8 0v1.41H1.65a.72.72 0 00-.71.66L0 19.24v.06a.71.71 0 00.71.7h14.64a.71.71 0 00.65-.76zM5.41 4a2.59 2.59 0 015.18 0v1.41H5.41zM1.47 18.59l.84-11.77H4v2.83a.7.7 0 00.71.7.7.7 0 00.7-.7V6.82h5.18v2.83a.7.7 0 00.71.7.7.7 0 00.7-.7V6.82h1.7l.84 11.77z" data-name="Camada 1"/></g></symbol>
    <symbol viewBox="0 0 25 25" id="z-menu" xmlns="http://www.w3.org/2000/svg"><g data-name="Camada 2"><path d="M17.38 7.32H7.62a.92.92 0 000 1.83h9.76a.92.92 0 000-1.83zm0 4.27H7.62a.91.91 0 000 1.82h9.76a.91.91 0 100-1.82zm0 4.26H7.62a.92.92 0 000 1.83h9.76a.92.92 0 000-1.83zM12.5 0A12.5 12.5 0 1025 12.5 12.5 12.5 0 0012.5 0zm0 23.17A10.67 10.67 0 1123.17 12.5 10.67 10.67 0 0112.5 23.17z" data-name="Camada 1"/></g></symbol>
    <symbol viewBox="0 0 16 20.68" id="z-user" xmlns="http://www.w3.org/2000/svg"><g data-name="Camada 2"><g data-name="Camada 1"><path d="M8 11.64A8.16 8.16 0 000 20a.71.71 0 00.7.72h14.6A.71.71 0 0016 20a8.16 8.16 0 00-8-8.36zm-6.54 7.59A6.65 6.65 0 018 13.08a6.65 6.65 0 016.54 6.15z"/><circle cx="8" cy="5" r="5"/></g></g></symbol>
</svg>