<svg id="svg-sprite" class="svg-sprites">
    <symbol viewBox="0 0 36.99 24" id="ruler-card" xmlns="http://www.w3.org/2000/svg"><g data-name="Camada 2"><path d="M34.11 0H2.88A2.83 2.83 0 000 2.78v18.44A2.83 2.83 0 002.88 24h31.23A2.83 2.83 0 0037 21.22V2.78A2.83 2.83 0 0034.11 0zm-14.2 14.65h4.79v1.79h-4.79zM9.24 12h-2a2.53 2.53 0 01-2.57-2.31h3.64a1.69 1.69 0 00.93.49h2.64a1.72 1.72 0 00.93-.49h3.64A2.53 2.53 0 0113.89 12H9.24zm.23 2.61v1.79H4.68v-1.75zm-.91-6v-2.2a.78.78 0 01.8-.77h2.34a.78.78 0 01.79.77v2.25a.78.78 0 01-.79.77H9.36a.78.78 0 01-.8-.77zm3.73 6h4.8v1.79h-4.8zm4.16-5.82h-3.2a2.28 2.28 0 000-.26V6.52a1.55 1.55 0 000-.31h3.21zM7.23 3h6.66a2.53 2.53 0 012.56 2.35h-3.7a1.73 1.73 0 00-.87-.42H9.24a1.73 1.73 0 00-.87.42h-3.7A2.53 2.53 0 017.23 3zM4.67 6.21h3.21a1.55 1.55 0 000 .31v2.05a2.28 2.28 0 000 .26H4.67zM32.28 21H4.67v-1.8h27.61zm0-4.57h-4.75v-1.78h4.79z" data-name="Camada 1"/></g></symbol>
    <symbol viewBox="0 0 21.01 30.01" id="ruler-certified" xmlns="http://www.w3.org/2000/svg"><g data-name="Camada 2"><path d="M13.39 22.23a2.09 2.09 0 01-.59.09 2.49 2.49 0 01-1.65-.64 1 1 0 00-1.29 0 2.52 2.52 0 01-2.24.6 2.35 2.35 0 01-1.33-.83L5.14 30l5.37-4.39 5.36 4.3-1.15-8.51a2.14 2.14 0 01-1.33.83zM21 9.24a1 1 0 00-.5-.73h-.05a2.37 2.37 0 01-1.14-3.11.86.86 0 00-.09-.87.9.9 0 00-.78-.41h-.14a2.44 2.44 0 01-2.43-2.2 1 1 0 00-.51-.74 1 1 0 00-.87 0v.09a2.39 2.39 0 01-3.16-.81V.41a.92.92 0 00-.82-.41.91.91 0 00-.78.41l-.05.05a2.39 2.39 0 01-3.16.77.94.94 0 00-1.37.73V2a2.44 2.44 0 01-2.48 2.16h-.14a.91.91 0 00-.78.41.86.86 0 00-.09.87A2.42 2.42 0 01.51 8.55a1 1 0 00-.5.74.93.93 0 00.32.82 2.46 2.46 0 01.41 3.29.86.86 0 00-.1.87 1 1 0 00.69.55 2.49 2.49 0 011.93 2.7.82.82 0 00.32.82.8.8 0 00.82.19 3.26 3.26 0 01.6 0 2.41 2.41 0 012.3 1.64.84.84 0 00.64.6.87.87 0 00.87-.23 2.48 2.48 0 013.35 0 .87.87 0 00.87.23.85.85 0 00.64-.6 2.42 2.42 0 013-1.55.86.86 0 00.82-.19.92.92 0 00.32-.82 2.38 2.38 0 011.93-2.7 1 1 0 00.69-.6.89.89 0 00-.09-.87h-.05a2.48 2.48 0 01.41-3.3.93.93 0 00.3-.9z" data-name="Camada 1"/></g></symbol>
    <symbol viewBox="0 0 30.01 30.01" id="ruler-change" xmlns="http://www.w3.org/2000/svg"><g data-name="Camada 2"><path d="M14.81 8.42v3.26l7.86-5.87L14.88 0v4C4.34 3.19 1.72 13 1.72 13l4.66 1.72c1.98-5.21 5.88-6.23 8.43-6.3zm11.62 14.74c5.68-8.61-1.91-15.5-1.91-15.5l-3.77 3.12c3.77 4.21 2.81 8 1.66 10.21l-2.94-1.53L21 29l9-3.89zm-18.9-2.3l2.88-1.59-9.07-3.76L0 25l3.51-1.9c4.49 9.19 14.62 6.57 14.62 6.57l-.76-4.79c-5.69.9-8.5-1.88-9.84-4.02z" data-name="Camada 1"/></g></symbol>
    <symbol viewBox="0 0 21.01 32" id="ruler-factory" xmlns="http://www.w3.org/2000/svg"><g data-name="Camada 2"><path d="M15.71 12.7V0L10.5 3.62 5.3 0v12.7a10.28 10.28 0 00-5.3 9A10.43 10.43 0 0010.5 32 10.44 10.44 0 0021 21.66a10.3 10.3 0 00-5.29-8.96zM10.5 30.19a8.53 8.53 0 110-17 8.53 8.53 0 110 17.05zm-2-6.58L6.23 21l-1.39 1.18 3.52 4 8-7.09-1.24-1.34z" data-name="Camada 1"/></g></symbol>
    <symbol viewBox="0 0 24.99 30.01" id="ruler-security" xmlns="http://www.w3.org/2000/svg"><g data-name="Camada 2"><path d="M13 29.92c12.27-4.29 12.08-14.35 12-21.7V5.29a.85.85 0 00-.85-.85h-.74a12.9 12.9 0 01-9.82-3.7l-.51-.5a.85.85 0 00-1.18 0l-.51.5a12.9 12.9 0 01-9.75 3.7H.91a.85.85 0 00-.85.85v2.9C-.11 15.57-.3 25.64 12 29.92a1.55 1.55 0 001 0zm-2.67-11.33a.49.49 0 01-.28-.61l1.13-3.2a2.15 2.15 0 01-.36-3 2.12 2.12 0 013-.36 2.16 2.16 0 01.36 3 2 2 0 01-.36.36l1.1 3.22a.48.48 0 01-.28.61 5.94 5.94 0 01-4.31 0z" data-name="Camada 1"/></g></symbol>
</svg>